<svg width="135" height="145" viewBox="0 0 135 145" fill="none" xmlns="http://www.w3.org/2000/svg">
<path d="M39.7034 133.227C39.7034 133.227 40.8434 132.497 41.6034 132.927C42.3634 133.357 43.0534 135.627 38.4534 137.267C33.8534 138.907 23.3734 138.747 18.8234 137.437C13.7934 135.987 14.2334 134.287 14.6734 133.787C15.1134 133.287 16.0834 133.537 16.0834 133.537C16.0834 133.537 18.5634 135.867 24.4434 136.157C30.3234 136.447 37.1334 135.707 39.6134 134.257C40.5534 133.687 39.7034 133.227 39.7034 133.227Z" fill="#80E7FF"/>
<path d="M28.5825 138.577C24.8025 138.577 21.0325 138.207 18.7725 137.557C15.4825 136.607 14.5425 135.547 14.3325 134.827C14.1525 134.217 14.4625 133.797 14.5625 133.687C15.0525 133.137 16.0625 133.387 16.1025 133.397L16.1324 133.407L16.1625 133.427C16.1825 133.447 18.6825 135.727 24.4325 136.007C30.5725 136.317 37.2025 135.487 39.5325 134.127C39.7925 133.977 39.9225 133.827 39.9225 133.687C39.9225 133.527 39.7224 133.377 39.6424 133.337L39.4424 133.227L39.6324 133.107C39.6824 133.077 40.8525 132.337 41.6725 132.797C42.0025 132.987 42.3425 133.497 42.2825 134.167C42.2225 134.887 41.6425 136.267 38.4925 137.377C36.1825 138.207 32.3825 138.577 28.5825 138.577ZM15.5325 133.597C15.2625 133.597 14.9524 133.647 14.7624 133.867C14.6824 133.957 14.4525 134.267 14.5925 134.747C14.7825 135.407 15.6725 136.377 18.8525 137.297C23.3625 138.597 33.8525 138.747 38.4025 137.137C41.4125 136.067 41.9524 134.807 42.0124 134.157C42.0624 133.627 41.8125 133.197 41.5425 133.047C41.0325 132.757 40.2925 133.077 39.9625 133.247C40.0725 133.347 40.1924 133.507 40.2024 133.697C40.2024 133.937 40.0325 134.167 39.6825 134.367C37.3125 135.747 30.6225 136.587 24.4325 136.277C18.8325 135.997 16.3225 133.917 16.0225 133.647C15.9325 133.637 15.7425 133.597 15.5325 133.597Z" fill="#060642"/>
<path d="M111.374 135.597H107.574V139.397H111.374V135.597Z" fill="#00A7E6"/>
<path d="M111.373 139.527H107.573C107.503 139.527 107.443 139.467 107.443 139.397V135.597C107.443 135.527 107.503 135.467 107.573 135.467H111.373C111.443 135.467 111.503 135.527 111.503 135.597V139.397C111.513 139.467 111.453 139.527 111.373 139.527ZM107.713 139.257H111.243V135.727H107.713V139.257Z" fill="#060642"/>
<path d="M49.4813 139.387L53.2812 139.387L53.2813 135.587L49.4813 135.587L49.4813 139.387Z" fill="#00A7E6"/>
<path d="M53.2737 139.527H49.4738C49.4038 139.527 49.3438 139.467 49.3438 139.397V135.597C49.3438 135.527 49.4038 135.467 49.4738 135.467H53.2737C53.3437 135.467 53.4037 135.527 53.4037 135.597V139.397C53.4137 139.467 53.3537 139.527 53.2737 139.527ZM49.6138 139.257H53.1437V135.727H49.6138V139.257Z" fill="#060642"/>
<path d="M111.373 139.397L111.833 139.127V135.597H111.373V139.397Z" fill="#060642"/>
<path d="M111.372 139.527C111.352 139.527 111.322 139.517 111.302 139.507C111.262 139.487 111.232 139.437 111.232 139.387V135.587C111.232 135.517 111.292 135.457 111.362 135.457H111.822C111.892 135.457 111.952 135.517 111.952 135.587V139.127C111.952 139.177 111.922 139.217 111.882 139.247L111.422 139.507C111.422 139.517 111.402 139.527 111.372 139.527ZM111.512 135.727V139.157L111.702 139.047V135.717H111.512V135.727Z" fill="#060642"/>
<path d="M53.2734 139.397L53.7335 139.127V135.597H53.2734V139.397Z" fill="#060642"/>
<path d="M53.2728 139.527C53.2528 139.527 53.2228 139.517 53.2028 139.507C53.1628 139.487 53.1328 139.437 53.1328 139.387V135.587C53.1328 135.517 53.1928 135.457 53.2628 135.457H53.7228C53.7928 135.457 53.8528 135.517 53.8528 135.587V139.127C53.8528 139.177 53.8228 139.217 53.7828 139.247L53.3228 139.507C53.3228 139.517 53.3028 139.527 53.2728 139.527ZM53.4128 135.727V139.157L53.6028 139.047V135.717H53.4128V135.727Z" fill="#060642"/>
<path d="M131.775 124.717H127.975V128.517H131.775V124.717Z" fill="#00A7E6"/>
<path d="M131.774 128.657H127.974C127.904 128.657 127.844 128.597 127.844 128.527V124.727C127.844 124.657 127.904 124.597 127.974 124.597H131.774C131.844 124.597 131.904 124.657 131.904 124.727V128.527C131.904 128.597 131.844 128.657 131.774 128.657ZM128.104 128.387H131.634V124.857H128.104V128.387Z" fill="#060642"/>
<path d="M131.773 128.517L132.223 128.257V124.717H131.773V128.517Z" fill="#060642"/>
<path d="M131.773 128.657C131.753 128.657 131.723 128.647 131.703 128.637C131.663 128.617 131.633 128.567 131.633 128.517V124.717C131.633 124.647 131.693 124.587 131.763 124.587H132.223C132.293 124.587 132.353 124.647 132.353 124.717V128.257C132.353 128.307 132.323 128.347 132.283 128.377L131.823 128.637C131.813 128.647 131.793 128.657 131.773 128.657ZM131.903 124.857V128.287L132.093 128.177V124.847H131.903V124.857Z" fill="#060642"/>
<path d="M134.663 98.0368H66.1027C66.0327 98.0368 65.9727 97.9768 65.9727 97.9068V95.3468C65.9727 95.2768 66.0327 95.2168 66.1027 95.2168H134.663C134.733 95.2168 134.793 95.2768 134.793 95.3468V97.9068C134.793 97.9768 134.733 98.0368 134.663 98.0368ZM66.2427 97.7668H134.533V95.4768H66.2427V97.7668Z" fill="#060642"/>
<path d="M46.1523 106.777H114.702L134.662 95.3968H66.1024L46.1523 106.777Z" fill="#DCEDF3"/>
<path d="M114.702 106.907H46.1421C46.0821 106.907 46.0321 106.867 46.0121 106.807C45.9921 106.747 46.0221 106.687 46.0721 106.657L66.0321 95.2768C66.0521 95.2668 66.0722 95.2568 66.1022 95.2568H134.662C134.722 95.2568 134.772 95.2968 134.792 95.3568C134.812 95.4168 134.782 95.4768 134.732 95.5068L114.772 106.887C114.752 106.907 114.732 106.907 114.702 106.907ZM46.6621 106.637H114.672L134.152 95.5268H66.1421L46.6621 106.637Z" fill="#060642"/>
<path d="M103.344 72.9168C103.344 72.9168 108.534 78.7468 108.254 85.1468C107.974 91.5468 103.334 93.5868 100.924 94.0368C97.5141 94.6768 94.1641 92.3968 94.1641 92.3968L94.524 89.1268C94.524 89.1268 96.234 91.6168 100.074 91.0468C103.914 90.4768 105.384 87.5068 105.974 84.3568C106.614 80.9568 106.474 78.6868 103.344 72.9168Z" fill="#060642"/>
<path d="M99.6832 94.2868C96.7332 94.2868 94.1232 92.5368 94.0932 92.5168C94.0532 92.4868 94.0332 92.4368 94.0332 92.3868L94.3932 89.1168C94.4032 89.0568 94.4432 89.0168 94.4932 88.9968C94.5432 88.9868 94.6032 89.0068 94.6332 89.0468C94.6532 89.0668 96.3432 91.4568 100.053 90.9068C103.203 90.4368 105.103 88.2868 105.843 84.3268C106.463 81.0168 106.403 78.8268 103.223 72.9668C103.193 72.9068 103.203 72.8268 103.263 72.7968C103.323 72.7568 103.393 72.7668 103.443 72.8168C103.493 72.8768 108.673 78.7668 108.383 85.1468C108.053 92.4668 102.133 93.9468 100.943 94.1668C100.523 94.2568 100.103 94.2868 99.6832 94.2868ZM94.3032 92.3368C94.7932 92.6468 97.8332 94.4768 100.893 93.9068C102.043 93.6868 107.793 92.2568 108.113 85.1468C108.313 80.5368 105.623 76.1868 104.153 74.1768C106.683 79.1468 106.683 81.2868 106.103 84.3968C105.333 88.4868 103.373 90.7068 100.083 91.1868C96.9532 91.6468 95.1932 90.0968 94.6132 89.4668L94.3032 92.3368Z" fill="#060642"/>
<path d="M55.483 25.6268C55.483 25.6268 46.943 42.5768 43.813 50.3568C40.683 58.1368 40.873 71.8868 40.873 71.8868C40.873 71.8868 32.903 71.4168 29.303 67.3368C25.703 63.2568 43.3029 23.5568 46.9429 21.7568C50.5729 19.9468 55.483 25.6268 55.483 25.6268Z" fill="#060642"/>
<path d="M40.8726 72.0168C40.8626 72.0168 40.8626 72.0168 40.8726 72.0168C40.7826 72.0068 32.8025 71.4968 29.2025 67.4168C28.5625 66.6968 28.5226 64.9268 29.0626 62.1668C31.3526 50.4568 43.7925 23.1668 46.8825 21.6368C50.5725 19.8068 55.3826 25.3068 55.5826 25.5468C55.6226 25.5868 55.6226 25.6468 55.6026 25.6968C55.5126 25.8668 47.0325 42.7368 43.9425 50.4168C40.8625 58.0768 41.0125 71.7568 41.0125 71.8868C41.0125 71.9268 41.0026 71.9568 40.9726 71.9868C40.9326 71.9968 40.9026 72.0168 40.8726 72.0168ZM48.4826 21.5268C47.9726 21.5268 47.4726 21.6268 47.0026 21.8668C45.6426 22.5368 41.9225 29.2268 37.9425 38.1268C34.5925 45.6368 30.5626 55.8968 29.3326 62.2068C28.6826 65.5468 29.0126 66.7868 29.4126 67.2268C32.6726 70.9168 39.6526 71.6368 40.7426 71.7268C40.7326 70.2168 40.7625 57.5768 43.6925 50.2968C46.6725 42.8768 54.6725 26.9268 55.3225 25.6368C54.8325 25.1068 51.4926 21.5268 48.4826 21.5268Z" fill="#060642"/>
<path d="M33.6641 136.267C25.7941 137.117 18.4941 135.797 18.4941 135.797L18.6241 123.447C20.1841 123.797 22.1741 124.047 24.4641 123.937C27.3941 123.797 29.5541 123.107 30.9841 122.447C31.1841 126.047 31.5141 128.797 33.2841 130.567C35.5641 132.847 40.2542 133.297 40.2542 133.297C40.2542 133.297 41.5341 135.417 33.6641 136.267Z" fill="#060642"/>
<path d="M28.1533 136.687C22.7333 136.687 18.5233 135.937 18.4733 135.927C18.4133 135.917 18.3633 135.857 18.3633 135.797L18.4933 123.447C18.4933 123.407 18.5133 123.367 18.5433 123.347C18.5733 123.317 18.6133 123.317 18.6533 123.317C20.5333 123.737 22.4933 123.897 24.4633 123.807C27.4633 123.657 29.6333 122.927 30.9333 122.337C30.9733 122.317 31.0233 122.317 31.0633 122.347C31.1033 122.367 31.1233 122.407 31.1233 122.457C31.3033 125.797 31.6032 128.707 33.3832 130.487C35.6032 132.697 40.2233 133.167 40.2733 133.177C40.3133 133.177 40.3533 133.207 40.3733 133.237C40.3833 133.257 40.5933 133.617 40.3533 134.107C39.9833 134.867 38.5133 135.877 33.6833 136.407C31.7733 136.607 29.9033 136.687 28.1533 136.687ZM18.6233 135.677C19.5733 135.837 26.4132 136.917 33.6432 136.127L33.6533 136.257L33.6432 136.127C38.5933 135.587 39.8133 134.557 40.1033 133.987C40.2333 133.727 40.1933 133.517 40.1633 133.417C39.5233 133.347 35.3432 132.807 33.1932 130.657C31.3732 128.837 31.0533 125.957 30.8633 122.647C29.5333 123.237 27.3933 123.927 24.4733 124.067C22.5333 124.157 20.6133 124.007 18.7533 123.607L18.6233 135.677Z" fill="#060642"/>
<path d="M34.423 47.7868C34.423 47.7868 30.533 113.987 30.823 119.207C30.883 120.357 30.933 121.447 30.983 122.467C29.553 123.117 27.403 123.807 24.463 123.957C22.163 124.067 20.183 123.817 18.623 123.467L19.343 55.4868C19.343 55.4868 32.5631 44.6068 34.2531 43.6968C35.9431 42.7668 34.423 47.7868 34.423 47.7868Z" fill="#00A7E6"/>
<path d="M23.3724 124.107C21.7524 124.107 20.1424 123.937 18.5924 123.587C18.5324 123.577 18.4824 123.517 18.4824 123.457L19.2024 55.4768C19.2024 55.4368 19.2224 55.3968 19.2524 55.3768C19.7924 54.9368 32.5024 44.4768 34.1824 43.5668C34.4824 43.4068 34.7224 43.3968 34.9024 43.5368C35.6224 44.1268 34.6824 47.3668 34.5524 47.8068C34.4724 49.1368 30.6724 114.067 30.9524 119.187C30.9824 119.777 31.0124 120.357 31.0424 120.907C31.0624 121.437 31.0924 121.947 31.1224 122.447C31.1224 122.507 31.0924 122.557 31.0424 122.577C29.7324 123.177 27.5224 123.927 24.4724 124.077C24.1024 124.097 23.7324 124.107 23.3724 124.107ZM18.7524 123.337C20.6024 123.737 22.5224 123.897 24.4524 123.807C27.3924 123.667 29.5324 122.957 30.8324 122.367C30.8024 121.897 30.7824 121.417 30.7624 120.917C30.7324 120.357 30.7124 119.787 30.6724 119.197C30.3924 114.037 34.2324 48.4268 34.2724 47.7668C34.2724 47.7568 34.2724 47.7468 34.2824 47.7368C34.6924 46.3868 35.1724 44.1068 34.7224 43.7368C34.6324 43.6668 34.4924 43.6868 34.3024 43.7868C32.6924 44.6568 20.3424 54.7968 19.4624 55.5268L18.7524 123.337Z" fill="#060642"/>
<path d="M23.3637 127.537C21.7337 127.537 20.1137 127.357 18.5537 127.007C18.4837 126.987 18.4337 126.917 18.4537 126.847C18.4737 126.777 18.5437 126.727 18.6137 126.747C20.5037 127.177 22.4637 127.337 24.4537 127.247C27.6237 127.097 29.8737 126.287 31.2037 125.637C31.2737 125.607 31.3537 125.627 31.3837 125.697C31.4137 125.767 31.3837 125.847 31.3237 125.877C29.9737 126.537 27.6837 127.357 24.4637 127.517C24.1037 127.527 23.7337 127.537 23.3637 127.537Z" fill="white"/>
<path d="M55.4841 25.6268V28.9168C55.4341 29.5668 54.8241 29.6168 54.1741 29.6168H52.9941L53.2941 23.0468L55.4841 25.6268Z" fill="#060642"/>
<path d="M54.1638 29.7368H52.9838C52.9438 29.7368 52.9137 29.7168 52.8837 29.6968C52.8537 29.6668 52.8438 29.6368 52.8438 29.5968L53.1437 23.0268C53.1437 22.9668 53.1838 22.9268 53.2338 22.9068C53.2838 22.8868 53.3437 22.9068 53.3837 22.9468L55.5737 25.5368C55.5937 25.5568 55.6038 25.5968 55.6038 25.6268V28.9168C55.5438 29.7368 54.6838 29.7368 54.1638 29.7368ZM53.1238 29.4668H54.1638C54.9138 29.4668 55.3038 29.3768 55.3438 28.8968V25.6668L53.4037 23.3768L53.1238 29.4668Z" fill="#060642"/>
<path d="M55.0039 26.2668C55.0039 26.2668 38.1238 44.5468 36.9838 46.6368C35.8438 48.7268 28.2838 50.6368 23.8938 46.6568C21.0338 44.0668 47.4738 22.8268 49.5338 21.4668C51.5838 20.0968 55.0039 26.2668 55.0039 26.2668Z" fill="#66D1F2"/>
<path d="M30.4938 49.1068C27.8938 49.1068 25.4938 48.2768 23.8038 46.7568C23.6138 46.5768 23.5238 46.3368 23.5438 46.0168C23.8738 41.6168 47.5237 22.6368 49.4537 21.3568C49.7737 21.1468 50.1438 21.0868 50.5538 21.1868C52.5938 21.6868 55.0138 26.0268 55.1138 26.2068L55.1637 26.2968L55.0937 26.3668C54.9237 26.5468 38.2137 44.6568 37.0937 46.7068C36.5637 47.6768 34.7537 48.5768 32.5937 48.9368C31.8937 49.0468 31.1838 49.1068 30.4938 49.1068ZM50.1838 21.3968C49.9738 21.3968 49.7838 21.4568 49.6138 21.5668C48.5938 22.2468 42.0937 27.4168 36.1037 32.6868C28.2037 39.6368 23.9637 44.2468 23.8237 46.0268C23.8037 46.2568 23.8638 46.4268 23.9938 46.5468C26.0638 48.4268 29.2638 49.2168 32.5638 48.6568C34.6438 48.3068 36.3838 47.4668 36.8738 46.5568C37.9838 44.5268 53.5237 27.6668 54.8437 26.2368C54.4937 25.6268 52.2738 21.8668 50.5038 21.4368C50.3838 21.4168 50.2838 21.3968 50.1838 21.3968Z" fill="#060642"/>
<path d="M53.6931 16.1668C53.6931 16.1668 53.5732 14.7868 52.9832 14.9268C52.3932 15.0668 51.4531 15.8468 51.4531 15.8468L51.9431 17.1068L53.6931 16.1668Z" fill="#060642"/>
<path d="M51.9423 17.2468C51.9223 17.2468 51.9123 17.2468 51.8923 17.2368C51.8523 17.2268 51.8223 17.1968 51.8123 17.1568L51.3223 15.8968C51.3023 15.8468 51.3223 15.7868 51.3623 15.7468C51.4023 15.7168 52.3323 14.9368 52.9423 14.7968C53.0823 14.7668 53.2123 14.7868 53.3223 14.8768C53.7123 15.1568 53.8023 16.0668 53.8123 16.1668C53.8123 16.2168 53.7923 16.2768 53.7423 16.2968L51.9823 17.2368C51.9823 17.2368 51.9623 17.2468 51.9423 17.2468ZM51.6123 15.8868L52.0123 16.9168L53.5523 16.0868C53.5123 15.7468 53.3823 15.2268 53.1823 15.0868C53.1323 15.0468 53.0823 15.0368 53.0223 15.0568C52.5523 15.1568 51.8423 15.7068 51.6123 15.8868Z" fill="#060642"/>
<path d="M61.0533 22.7768C59.6633 23.7268 58.7933 24.2168 57.0333 25.5468C55.7833 26.4868 53.9533 27.6368 53.9533 27.6368C52.2433 28.8268 51.4133 28.1868 50.8433 27.5068C48.4333 24.6368 50.8033 16.4468 50.8033 16.4468L57.0233 13.5668C57.0333 13.5668 64.5433 20.3968 61.0533 22.7768Z" fill="white"/>
<path d="M52.2739 28.4368C51.5739 28.4368 51.1039 28.0268 50.7439 27.5968C48.3139 24.6968 50.5839 16.7468 50.6839 16.4168C50.6939 16.3768 50.7239 16.3468 50.7539 16.3368L56.9739 13.4568C57.0239 13.4368 57.0839 13.4468 57.1239 13.4768C57.3339 13.6668 62.3139 18.2368 62.1039 21.2268C62.0539 21.9268 61.7239 22.4868 61.1239 22.8968C60.6839 23.1968 60.2939 23.4568 59.9239 23.6968C59.0939 24.2368 58.3139 24.7568 57.1139 25.6668C55.8739 26.6068 54.0439 27.7468 54.0239 27.7568C53.3139 28.2468 52.7439 28.4368 52.2739 28.4368ZM50.9339 16.5468C50.7239 17.2868 48.7339 24.7668 50.9639 27.4268C51.5539 28.1268 52.3139 28.6268 53.8939 27.5368C53.9139 27.5168 55.7439 26.3868 56.9739 25.4568C58.1839 24.5368 58.9639 24.0268 59.7939 23.4768C60.1639 23.2268 60.5539 22.9768 60.9939 22.6768C61.5339 22.3068 61.8139 21.8268 61.8539 21.2068C62.0439 18.5168 57.6239 14.2868 57.0239 13.7368L50.9339 16.5468Z" fill="#060642"/>
<path d="M60.3144 13.9968C60.3144 13.9968 58.1043 15.8868 56.6343 19.5068C55.4843 22.3468 55.4844 26.6468 55.4844 26.6468L61.0644 22.7768L60.3144 13.9968Z" fill="#060642"/>
<path d="M55.4835 26.7868C55.4635 26.7868 55.4435 26.7768 55.4235 26.7668C55.3835 26.7468 55.3535 26.6968 55.3535 26.6468C55.3535 26.6068 55.3735 22.2768 56.5135 19.4468C57.9735 15.8268 60.2035 13.8968 60.2335 13.8868C60.2735 13.8568 60.3235 13.8468 60.3735 13.8668C60.4235 13.8868 60.4535 13.9268 60.4535 13.9768L61.2035 22.7568C61.2035 22.8068 61.1835 22.8468 61.1435 22.8768L55.5635 26.7468C55.5335 26.7768 55.5035 26.7868 55.4835 26.7868ZM60.2035 14.2868C59.6335 14.8468 57.9435 16.6368 56.7635 19.5668C55.8035 21.9468 55.6435 25.4268 55.6235 26.3968L60.9235 22.7168L60.2035 14.2868Z" fill="#060642"/>
<path d="M80.2238 17.3468C80.2238 17.3468 75.0038 24.6468 67.9938 28.5368C63.1038 31.2468 59.6837 30.0868 57.8337 27.9468C57.0337 27.0168 56.5237 25.9068 56.3237 24.8368C55.6537 21.3268 57.6038 16.0168 57.6038 16.0168C57.6038 16.0168 57.4337 15.9468 57.2137 15.7768C56.7937 15.4568 56.1938 14.7868 56.1838 13.5268C56.1838 11.6068 57.4938 10.0068 59.2338 10.1868C60.9738 10.3668 62.0437 11.8568 61.9037 13.3168C61.7737 14.6868 61.4837 15.2968 61.4437 15.3668C61.6237 15.1268 66.2838 8.76679 70.1538 9.04679C74.1138 9.33679 80.2238 17.3468 80.2238 17.3468Z" fill="white"/>
<path d="M62.6929 30.2568C60.0529 30.2568 58.453 28.8668 57.733 28.0368C56.963 27.1368 56.4129 26.0068 56.1929 24.8668C55.5729 21.6068 57.153 16.9068 57.433 16.0868C57.353 16.0468 57.253 15.9768 57.123 15.8868C56.723 15.5868 56.043 14.8768 56.043 13.5268C56.043 12.4168 56.4629 11.3968 57.1929 10.7368C57.7729 10.2068 58.483 9.97679 59.253 10.0468C61.153 10.2368 62.183 11.8968 62.043 13.3268C61.993 13.8868 61.9029 14.3268 61.8229 14.6568C63.1829 12.9468 66.923 8.67679 70.163 8.90679C74.123 9.19679 80.0729 16.9268 80.3229 17.2568C80.3629 17.3068 80.3629 17.3668 80.3229 17.4168C80.2729 17.4868 75.013 24.7868 68.043 28.6468C65.933 29.8368 64.1529 30.2568 62.6929 30.2568ZM58.973 10.3068C58.383 10.3068 57.833 10.5268 57.373 10.9368C56.713 11.5368 56.313 12.5068 56.313 13.5268C56.313 14.7568 56.923 15.3968 57.283 15.6668C57.483 15.8268 57.6429 15.8868 57.6429 15.8868C57.7129 15.9168 57.743 15.9868 57.723 16.0568C57.703 16.1068 55.8029 21.3768 56.4529 24.8068C56.6629 25.9068 57.183 26.9868 57.933 27.8468C59.003 29.0868 62.113 31.6268 67.923 28.4068C74.433 24.7968 79.453 18.1468 80.053 17.3368C79.403 16.5068 73.7829 9.43679 70.1429 9.16679C66.4729 8.90679 62.043 14.7668 61.553 15.4368C61.513 15.4968 61.433 15.5068 61.373 15.4768C61.313 15.4368 61.2929 15.3668 61.3229 15.3068C61.3529 15.2468 61.6329 14.6468 61.7629 13.2968C61.8929 11.9968 60.953 10.4868 59.213 10.3168C59.143 10.3168 59.063 10.3068 58.973 10.3068Z" fill="#060642"/>
<path d="M76.0328 3.97679C81.5128 6.60679 88.0428 6.52679 90.1528 11.0068C92.7428 16.4868 87.7128 20.2968 81.2928 19.3668C74.8828 18.4368 72.0428 10.2968 72.0428 10.2968C72.0428 10.2968 70.6928 11.7568 69.3028 12.1768C67.9128 12.5968 66.4228 11.7468 66.4628 11.8568C66.5028 11.9668 65.2928 14.3468 63.4428 15.3768C61.5928 16.4068 61.4528 15.3768 61.4528 15.3768C61.4528 15.3768 62.0928 13.6268 61.8828 12.5468C61.6728 11.4668 61.0028 10.4068 59.5228 10.2268C58.0428 10.0468 57.7628 10.4968 57.7628 10.4968C57.7628 10.4968 57.2628 8.15679 57.3628 6.37679C57.4628 4.59679 58.7528 2.49679 60.8128 2.10679C62.8728 1.71679 63.6228 2.63679 63.6228 2.63679C63.6228 2.63679 64.5128 0.576789 66.7928 0.186789C70.3028 -0.403211 72.6728 2.36679 76.0328 3.97679Z" fill="#060642"/>
<path d="M83.2124 19.6468C82.5824 19.6468 81.9324 19.5968 81.2724 19.5068C75.4324 18.6668 72.4925 11.8168 71.9925 10.5468C71.6025 10.9368 70.4924 11.9568 69.3424 12.3168C68.2424 12.6568 67.1125 12.2368 66.6225 12.0568C66.5925 12.0468 66.5724 12.0368 66.5424 12.0268C66.3024 12.6768 65.1025 14.6168 63.5025 15.5068C62.6925 15.9568 62.0725 16.0868 61.6825 15.8968C61.3625 15.7368 61.3125 15.4268 61.3125 15.4068C61.3125 15.3868 61.3124 15.3668 61.3224 15.3468C61.3324 15.3268 61.9425 13.6168 61.7425 12.5868C61.5925 11.8468 61.1125 10.5768 59.5025 10.3768C58.1625 10.2168 57.8725 10.5868 57.8725 10.5968C57.8425 10.6368 57.7824 10.6668 57.7324 10.6568C57.6824 10.6468 57.6425 10.6068 57.6225 10.5568C57.6125 10.5368 57.1224 8.17679 57.2224 6.39679C57.3324 4.57679 58.6124 2.41679 60.7824 2.00679C62.4224 1.69679 63.2624 2.18679 63.5724 2.44679C63.8424 1.92679 64.8025 0.416785 66.7525 0.0867853C69.2525 -0.343215 71.1925 0.906785 73.2525 2.22679C74.1425 2.79679 75.0724 3.39679 76.0824 3.88679C77.9424 4.77679 79.9025 5.35679 81.8125 5.90679C85.4325 6.96679 88.8524 7.96678 90.2724 10.9768C91.2924 13.1368 91.2025 15.2168 90.0025 16.8368C88.6625 18.6268 86.1524 19.6468 83.2124 19.6468ZM72.0424 10.1568C72.0524 10.1568 72.0624 10.1568 72.0724 10.1568C72.1224 10.1668 72.1524 10.1968 72.1724 10.2468C72.2024 10.3268 75.0625 18.3268 81.3125 19.2268C84.9225 19.7468 88.2424 18.7268 89.7924 16.6368C90.9224 15.1068 91.0124 13.1268 90.0324 11.0568C88.6624 8.15678 85.4525 7.21679 81.7425 6.13679C79.8325 5.57679 77.8524 4.99679 75.9724 4.09679C74.9424 3.60679 74.0125 3.00679 73.1125 2.42679C71.1025 1.13679 69.2125 -0.0832147 66.8125 0.326785C64.6425 0.696785 63.7525 2.67679 63.7525 2.69679C63.7325 2.73679 63.6924 2.76679 63.6424 2.77679C63.5924 2.78679 63.5524 2.76679 63.5224 2.72679C63.5124 2.71679 62.7924 1.87679 60.8424 2.23679C58.8824 2.60679 57.6025 4.63679 57.5025 6.37679C57.4125 7.80679 57.7324 9.62679 57.8524 10.2468C58.0924 10.1068 58.5824 9.96679 59.5424 10.0868C61.3224 10.3068 61.8624 11.7068 62.0224 12.5168C62.2224 13.5468 61.7024 15.1168 61.6024 15.3868C61.6224 15.4468 61.6724 15.5668 61.8224 15.6468C62.0324 15.7468 62.4824 15.7668 63.3924 15.2668C65.1224 14.2968 66.2824 12.1268 66.3424 11.8668C66.3424 11.8268 66.3524 11.7868 66.3824 11.7668C66.4524 11.6968 66.5224 11.7168 66.7324 11.8068C67.1924 11.9768 68.2624 12.3768 69.2724 12.0668C70.6124 11.6568 71.9424 10.2368 71.9524 10.2168C71.9724 10.1768 72.0124 10.1568 72.0424 10.1568Z" fill="#060642"/>
<path d="M57.5027 14.6268C57.4827 14.6268 57.4727 14.6268 57.4527 14.6168C57.3827 14.5868 57.3527 14.5068 57.3827 14.4468C57.3927 14.4268 57.6327 13.8468 58.4027 13.6868C58.6927 13.6268 58.9427 13.6568 59.1527 13.7268C58.9627 13.4368 58.7727 13.0668 58.7627 12.7268C58.7227 11.8868 59.0427 11.2268 59.0627 11.2068C59.0927 11.1368 59.1727 11.1168 59.2427 11.1468C59.3127 11.1768 59.3327 11.2568 59.3027 11.3268C59.3027 11.3368 59.0027 11.9468 59.0327 12.7168C59.0627 13.3068 59.7327 14.0468 59.7427 14.0568C59.7927 14.1068 59.7927 14.1968 59.7427 14.2468C59.6927 14.2968 59.6127 14.2968 59.5527 14.2468C59.5327 14.2268 59.0927 13.8368 58.4627 13.9568C57.8327 14.0868 57.6427 14.5368 57.6327 14.5468C57.6027 14.5968 57.5527 14.6268 57.5027 14.6268Z" fill="#060642"/>
<path d="M71.123 25.3668C71.083 25.3668 71.033 25.3468 71.013 25.3068C70.973 25.2468 70.993 25.1568 71.053 25.1168C71.063 25.1068 72.103 24.4168 73.023 23.5668C73.993 22.6668 74.993 21.5268 75.003 21.5168C75.053 21.4568 75.133 21.4568 75.193 21.5068C75.253 21.5568 75.253 21.6368 75.203 21.6968C75.193 21.7068 74.183 22.8568 73.203 23.7668C72.263 24.6368 71.203 25.3368 71.193 25.3468C71.173 25.3568 71.143 25.3668 71.123 25.3668Z" fill="#060642"/>
<path d="M68.272 20.8868L69.212 24.9668C69.252 25.1168 69.1521 25.2668 69.0021 25.3068C68.2521 25.4668 66.182 25.7068 65.542 23.7068C64.902 21.6868 67.122 20.8968 67.932 20.6768C68.072 20.6368 68.232 20.7268 68.272 20.8868Z" fill="white"/>
<path d="M68.0625 25.5368C67.1225 25.5368 65.8825 25.2368 65.4125 23.7468C65.2225 23.1368 65.2525 22.5868 65.5225 22.0968C66.0525 21.1268 67.3525 20.6868 67.8925 20.5468C68.0025 20.5168 68.1225 20.5368 68.2125 20.5968C68.3125 20.6568 68.3825 20.7468 68.4025 20.8568L69.3425 24.9368C69.3725 25.0468 69.3525 25.1568 69.2925 25.2568C69.2325 25.3468 69.1425 25.4168 69.0325 25.4368C68.8225 25.4768 68.4625 25.5368 68.0625 25.5368ZM67.9925 20.7968C67.9825 20.7968 67.9625 20.7968 67.9525 20.8068C67.4525 20.9468 66.2326 21.3468 65.7526 22.2268C65.5226 22.6468 65.4925 23.1268 65.6625 23.6668C66.2525 25.5268 68.1725 25.3368 68.9625 25.1768C69.0025 25.1668 69.0325 25.1468 69.0525 25.1168C69.0725 25.0868 69.0825 25.0468 69.0725 25.0068L68.1325 20.9268C68.1225 20.8868 68.1025 20.8568 68.0625 20.8368C68.0525 20.8068 68.0225 20.7968 67.9925 20.7968Z" fill="#060642"/>
<path d="M75.8123 20.3268C75.4223 20.6068 74.2723 19.7968 73.5623 19.5868C72.0423 19.1168 71.3323 19.6068 71.3223 18.9468C71.3223 18.6268 72.4623 18.1668 73.8423 18.4468C75.2423 18.7268 76.7023 19.6768 75.8123 20.3268Z" fill="#060642"/>
<path d="M75.6031 20.5168C75.2731 20.5168 74.8231 20.2968 74.3431 20.0668C74.0531 19.9268 73.7631 19.7768 73.5331 19.7068C72.8831 19.5068 72.3831 19.4868 72.0231 19.4668C71.5631 19.4468 71.2031 19.4268 71.2031 18.9268C71.2031 18.8168 71.2631 18.7168 71.3831 18.6168C71.7831 18.2868 72.7931 18.0668 73.8931 18.2868C74.9231 18.4968 76.0731 19.0968 76.2131 19.7368C76.2531 19.9168 76.2331 20.1768 75.9031 20.4168C75.8131 20.4968 75.7131 20.5168 75.6031 20.5168ZM72.9932 18.4868C72.3032 18.4868 71.7632 18.6668 71.5532 18.8368C71.4732 18.8968 71.4731 18.9368 71.4731 18.9368C71.4731 19.1568 71.5232 19.1768 72.0432 19.2068C72.4232 19.2268 72.9332 19.2468 73.6132 19.4568C73.8632 19.5368 74.1531 19.6768 74.4631 19.8268C74.9431 20.0668 75.5432 20.3568 75.7332 20.2168C75.9032 20.0968 75.9731 19.9568 75.9431 19.8068C75.8431 19.3468 74.8731 18.7868 73.8331 18.5668C73.5331 18.5068 73.2532 18.4868 72.9932 18.4868Z" fill="#060642"/>
<path d="M72.6782 21.6491C72.9437 21.3836 73.0798 21.0892 72.9822 20.9915C72.8846 20.8939 72.5902 21.03 72.3246 21.2956C72.0591 21.5611 71.9229 21.8556 72.0205 21.9532C72.1182 22.0509 72.4126 21.9147 72.6782 21.6491Z" fill="#060642"/>
<path d="M72.1227 22.1068C72.0227 22.1068 71.9727 22.0668 71.9327 22.0368C71.7427 21.8468 71.9627 21.4668 72.2327 21.1968C72.5127 20.9168 72.8927 20.7068 73.0727 20.8968C73.2627 21.0868 73.0427 21.4668 72.7727 21.7368C72.6327 21.8768 72.4827 21.9868 72.3427 22.0468C72.2527 22.0868 72.1827 22.1068 72.1227 22.1068ZM72.8827 21.0868C72.8127 21.0968 72.6327 21.1768 72.4327 21.3768C72.2327 21.5768 72.1427 21.7668 72.1427 21.8268C72.2127 21.8168 72.3927 21.7368 72.5927 21.5368C72.7927 21.3368 72.8727 21.1568 72.8827 21.0868Z" fill="#060642"/>
<path d="M30.8641 139.707C30.8641 139.707 24.7241 142.887 17.4241 142.977C10.1241 143.067 1.99414 140.347 1.99414 140.347L2.33411 126.307C3.92411 126.977 6.03412 127.607 8.72412 127.927C14.2041 128.577 18.8541 126.597 20.7741 125.607C20.7441 130.897 20.8941 134.397 21.3341 134.947C23.6141 137.787 30.8641 139.707 30.8641 139.707Z" fill="#060642"/>
<path d="M17.0535 143.117C9.90353 143.117 2.02348 140.507 1.94348 140.477C1.88348 140.457 1.85352 140.407 1.85352 140.347L2.19348 126.307C2.19348 126.267 2.21354 126.217 2.25354 126.197C2.29354 126.177 2.33348 126.167 2.38348 126.187C4.26348 126.977 6.40353 127.517 8.74353 127.797C14.2435 128.447 18.9535 126.407 20.7135 125.487C20.7535 125.467 20.8035 125.467 20.8435 125.497C20.8835 125.517 20.9035 125.567 20.9035 125.617C20.8535 132.657 21.1635 134.537 21.4335 134.867C23.6535 137.647 30.8235 139.567 30.8935 139.587C30.9435 139.597 30.9835 139.647 30.9935 139.707C31.0035 139.767 30.9735 139.817 30.9235 139.837C30.8635 139.867 24.6735 143.027 17.4235 143.127C17.3035 143.117 17.1835 143.117 17.0535 143.117ZM2.12354 140.247C3.05354 140.547 10.6435 142.927 17.4235 142.837C23.6835 142.757 29.1435 140.367 30.4835 139.737C28.9935 139.317 23.2435 137.547 21.2235 135.017C20.9535 134.677 20.5935 133.347 20.6335 125.817C18.7135 126.777 14.0835 128.687 8.70349 128.047C6.41349 127.777 4.31349 127.247 2.45349 126.487L2.12354 140.247Z" fill="#060642"/>
<path d="M24.394 50.2568C24.394 50.2568 20.924 103.527 20.774 125.607C18.854 126.597 14.204 128.577 8.724 127.927C6.024 127.607 3.91398 126.977 2.33398 126.307L4.17401 50.2568H24.394Z" fill="#00A7E6"/>
<path d="M10.8931 128.187C10.1831 128.187 9.45313 128.147 8.71313 128.057C6.34313 127.777 4.18314 127.227 2.28314 126.427C2.23314 126.407 2.20312 126.357 2.20312 126.297L4.04315 50.2468C4.04315 50.1768 4.10316 50.1168 4.17316 50.1168H24.3931C24.4331 50.1168 24.4632 50.1368 24.4932 50.1568C24.5232 50.1768 24.5331 50.2168 24.5331 50.2568C24.5031 50.7868 21.0631 103.777 20.9131 125.597C20.9131 125.647 20.8831 125.697 20.8431 125.717C19.2831 126.527 15.5031 128.187 10.8931 128.187ZM2.46313 126.217C4.32313 126.987 6.43315 127.517 8.73315 127.797C14.1632 128.437 18.8131 126.457 20.6331 125.527C20.7831 104.207 24.0432 53.4868 24.2432 50.3968H4.30316L2.46313 126.217Z" fill="#060642"/>
<path d="M28.6533 139.017C28.6533 139.017 29.9433 138.287 30.7933 138.717C31.6433 139.147 32.4333 141.417 27.2333 143.057C22.0333 144.697 10.2233 144.537 5.09333 143.227C-0.576672 141.777 -0.0766543 140.077 0.423346 139.577C0.923346 139.077 2.01331 139.327 2.01331 139.327C2.01331 139.327 4.80336 141.657 11.4334 141.947C18.0634 142.237 25.7433 141.497 28.5433 140.047C29.6133 139.477 28.6533 139.017 28.6533 139.017Z" fill="#80E7FF"/>
<path d="M16.123 144.367C11.863 144.367 7.62303 143.997 5.06303 143.347C1.28303 142.387 0.253007 141.297 0.0430066 140.557C-0.116993 139.967 0.212975 139.577 0.322975 139.467C0.862975 138.927 1.983 139.167 2.033 139.177L2.06303 139.187L2.08298 139.207C2.11298 139.227 4.92301 141.507 11.423 141.797C18.353 142.107 25.833 141.277 28.463 139.917C28.753 139.767 28.903 139.617 28.903 139.487C28.903 139.327 28.663 139.177 28.583 139.137L28.353 139.027L28.573 138.897C28.633 138.867 29.933 138.137 30.843 138.587C31.213 138.767 31.583 139.267 31.533 139.927C31.473 140.657 30.843 142.047 27.273 143.167C24.683 143.997 20.403 144.367 16.123 144.367ZM1.40299 139.387C1.09299 139.387 0.732977 139.447 0.512977 139.657C0.432977 139.737 0.183016 140.037 0.303016 140.487C0.453016 141.037 1.28302 142.107 5.12302 143.087C10.213 144.387 22.053 144.537 27.183 142.927C30.613 141.847 31.203 140.577 31.263 139.917C31.303 139.377 31.013 138.977 30.723 138.837C30.133 138.547 29.293 138.857 28.913 139.037C29.033 139.137 29.173 139.287 29.173 139.487C29.173 139.737 28.983 139.957 28.583 140.167C25.923 141.547 18.373 142.387 11.413 142.077C5.083 141.797 2.25297 139.697 1.94297 139.447C1.87297 139.427 1.65299 139.387 1.40299 139.387Z" fill="#060642"/>
<path d="M93.7438 59.0868C91.8738 59.7468 87.8538 60.8568 83.5338 60.1868C80.4838 59.7168 78.6537 59.0668 77.5938 58.5568C77.7638 57.9968 77.8837 57.5568 77.9437 57.2668C78.0237 56.8768 78.0438 56.3968 78.0038 55.8668C79.1038 56.3468 80.8437 56.8868 83.5237 57.3068C87.8037 57.9768 91.7838 56.8868 93.6838 56.2268C93.7538 57.5868 93.7538 58.6368 93.7438 59.0868Z" fill="#FBAB3E"/>
<path d="M86.3036 60.5368C85.4036 60.5368 84.4636 60.4768 83.5036 60.3268C80.3636 59.8368 78.5236 59.1668 77.5336 58.6868L77.4336 58.6368L77.4636 58.5268C77.6436 57.9368 77.7536 57.5168 77.8136 57.2468C77.8936 56.8768 77.9136 56.4168 77.8736 55.8768L77.8536 55.6568L78.0536 55.7468C79.4336 56.3468 81.2836 56.8268 83.5436 57.1768C87.7536 57.8268 91.6735 56.7868 93.6335 56.1068L93.8036 56.0468L93.8136 56.2268C93.8836 57.6468 93.8736 58.7068 93.8636 59.0968V59.1968L93.7736 59.2268C92.2336 59.7668 89.4836 60.5368 86.3036 60.5368ZM77.7635 58.4868C78.7635 58.9568 80.5536 59.5868 83.5536 60.0568C87.7336 60.7068 91.6136 59.6868 93.6036 58.9968C93.6136 58.5668 93.6136 57.6368 93.5536 56.4168C91.5136 57.1068 87.6536 58.0868 83.5036 57.4468C81.3236 57.1068 79.5236 56.6468 78.1536 56.0868C78.1736 56.5568 78.1435 56.9668 78.0735 57.3068C78.0235 57.5668 77.9235 57.9568 77.7635 58.4868Z" fill="#060642"/>
<path d="M69.9831 34.9368C70.0131 34.8368 70.0331 34.7468 70.0631 34.6568C70.8431 31.9168 72.0031 31.3768 72.0031 31.3768L73.9831 33.1868L82.7631 41.1968C82.7631 41.1968 87.6931 40.4168 90.7931 44.3268C92.9331 47.0168 93.5231 52.6768 93.6831 56.2268C91.7931 56.8868 87.8031 57.9768 83.5231 57.3068C80.8431 56.8868 79.1031 56.3468 78.0031 55.8668C77.7831 52.7868 75.6731 47.7068 73.2831 45.4668C70.4831 42.8368 69.2031 37.9268 69.9831 34.9368Z" fill="#66D1F2"/>
<path d="M86.3039 57.6568C85.4039 57.6568 84.4638 57.5968 83.5138 57.4468C81.2338 57.0868 79.3638 56.6068 77.9638 55.9968L77.8838 55.9668L77.8739 55.8868C77.6539 52.8868 75.6138 47.8368 73.1938 45.5768C70.2438 42.8168 69.0838 37.8368 69.8438 34.9168C69.8738 34.8168 69.8939 34.7268 69.9239 34.6368C70.7139 31.8668 71.8839 31.2968 71.9339 31.2768L72.0138 31.2368L82.8039 41.0668C83.4039 40.9968 87.9738 40.5668 90.9038 44.2568C93.1038 47.0268 93.6738 52.9468 93.8238 56.2368V56.3368L93.7338 56.3668C92.1938 56.8968 89.4539 57.6568 86.3039 57.6568ZM78.1438 55.7768C79.5138 56.3568 81.3339 56.8268 83.5539 57.1768C87.6939 57.8168 91.5639 56.8168 93.5539 56.1368C93.4039 52.8668 92.8238 47.0968 90.6938 44.4168C87.6738 40.6168 82.8338 41.3268 82.7838 41.3368L82.7238 41.3468L82.6739 41.3068L71.9838 31.5568C71.7238 31.7268 70.8338 32.4668 70.1938 34.7068C70.1738 34.7968 70.1439 34.8868 70.1239 34.9868C69.3839 37.8268 70.5138 42.6868 73.3938 45.3768C75.8238 47.6568 77.8938 52.7168 78.1438 55.7768Z" fill="#060642"/>
<path d="M79.9725 103.217C72.1325 102.957 68.5025 102.697 66.8525 102.537C66.1025 102.457 65.5326 101.807 65.5626 101.057C65.6226 99.7168 65.8926 97.8068 66.9926 97.5368H64.9625C64.9625 97.5368 64.6425 96.1468 64.9625 95.1168C65.2825 94.0868 66.2126 93.9468 67.1726 93.9768C68.1326 94.0068 69.9826 94.0868 69.9826 94.0868C69.9826 94.0868 71.2626 81.3168 71.6226 78.0468C71.9426 75.1368 76.2525 63.0568 77.6025 58.5668C78.6625 59.0768 80.4926 59.7268 83.5426 60.1968C87.8626 60.8668 91.8826 59.7568 93.7526 59.0968C93.7526 59.2568 93.7526 59.3368 93.7526 59.3368L89.8126 60.6868C89.8126 60.6868 90.5825 64.4968 91.5725 69.5868C92.6525 75.1268 94.0125 82.1868 94.9425 87.5068C95.5325 90.8868 95.9525 93.5568 96.0225 94.6968C96.3025 99.2368 92.8125 103.647 79.9725 103.217Z" fill="#66D1F2"/>
<path d="M81.6735 103.387C81.1235 103.387 80.5534 103.377 79.9734 103.357C72.2334 103.097 68.5635 102.847 66.8535 102.677C66.0235 102.597 65.4034 101.887 65.4434 101.057C65.4934 99.8068 65.7234 98.3068 66.4634 97.6768H64.8735L64.8535 97.5768C64.8435 97.5168 64.5335 96.1368 64.8535 95.0868C65.2135 93.9268 66.2934 93.8168 67.1934 93.8568C68.0034 93.8868 69.4435 93.9368 69.8735 93.9568C70.0035 92.6168 71.1635 81.1068 71.4935 78.0468C71.7135 76.0468 73.8234 69.6868 75.5134 64.5868C76.3034 62.2168 77.0434 59.9768 77.4734 58.5468L77.5234 58.3968L77.6635 58.4668C78.6435 58.9368 80.4535 59.5968 83.5635 60.0868C87.8035 60.7468 91.7434 59.6868 93.7034 58.9968L93.8834 58.9368V59.1268C93.8834 59.2868 93.8834 59.3768 93.8834 59.3768V59.4668L89.9634 60.8068C90.1034 61.4868 90.8134 65.0468 91.7034 69.5868C92.7134 74.7568 94.1234 82.0668 95.0734 87.5068C95.7334 91.2468 96.0934 93.6668 96.1534 94.7068C96.2834 96.7468 95.6634 98.4868 94.3234 99.8768C92.0334 102.197 87.7835 103.387 81.6735 103.387ZM65.0834 97.3968H68.1035L67.0334 97.6668C65.9934 97.9268 65.7534 99.9068 65.7034 101.067C65.6734 101.747 66.1835 102.337 66.8735 102.407C68.5835 102.577 72.2435 102.837 79.9835 103.087C86.9335 103.317 91.6935 102.167 94.1235 99.6568C95.4135 98.3268 96.0034 96.6568 95.8834 94.6968C95.8234 93.6668 95.4535 91.2568 94.8035 87.5268C93.8535 82.0868 92.4435 74.7868 91.4335 69.6168C90.4535 64.5868 89.6735 60.7568 89.6735 60.7268L89.6534 60.6068L92.3234 59.6968C90.1434 60.3068 86.9434 60.8668 83.5334 60.3368C80.5334 59.8668 78.7234 59.2368 77.7034 58.7568C77.2634 60.1868 76.5434 62.3568 75.7834 64.6568C74.0934 69.7568 71.9834 76.0968 71.7734 78.0668C71.4234 81.2968 70.1534 93.9768 70.1334 94.1068L70.1235 94.2368L69.9935 94.2268C69.9935 94.2268 68.1435 94.1568 67.1835 94.1168C66.3235 94.0868 65.4135 94.1868 65.1135 95.1568C64.8435 95.9768 65.0134 97.0568 65.0834 97.3968Z" fill="#060642"/>
<path d="M74.9527 39.9168C74.9127 39.9168 74.8727 39.9168 74.8327 39.9068C73.8127 39.7868 73.6827 38.4868 73.6827 38.4368C73.6727 38.3668 73.7327 38.2968 73.8027 38.2868C73.8727 38.2768 73.9427 38.3368 73.9527 38.4068C73.9527 38.4168 74.0627 39.5468 74.8627 39.6368C75.6527 39.7268 75.8827 38.4068 75.8927 38.3968C75.9027 38.3268 75.9727 38.2768 76.0527 38.2868C76.1227 38.2968 76.1727 38.3668 76.1627 38.4468C76.1527 38.5068 75.9027 39.9168 74.9527 39.9168Z" fill="#060642"/>
<path d="M73.9844 33.1968C73.7744 33.7168 73.3544 34.3368 72.4744 34.7668C71.7544 35.1168 70.8545 34.9668 70.0645 34.6668C70.8445 31.9268 72.0045 31.3868 72.0045 31.3868L73.9844 33.1968Z" fill="#060642"/>
<path d="M71.5238 35.1068C71.0738 35.1068 70.5738 35.0068 70.0138 34.7968C69.9438 34.7768 69.9138 34.6968 69.9338 34.6368C70.7238 31.8668 71.8938 31.2968 71.9438 31.2768C71.9938 31.2568 72.0538 31.2668 72.0938 31.2968L74.0738 33.1068C74.1138 33.1468 74.1338 33.2068 74.1038 33.2568C73.9038 33.7468 73.4738 34.4368 72.5338 34.8968C72.2338 35.0268 71.8938 35.1068 71.5238 35.1068ZM70.2238 34.5768C71.1138 34.8968 71.8538 34.9168 72.4138 34.6368C73.2238 34.2368 73.6238 33.6668 73.8238 33.2268L71.9838 31.5468C71.7238 31.7168 70.8638 32.4368 70.2238 34.5768Z" fill="#060642"/>
<path d="M86.6829 39.7868C87.1529 39.9568 87.7929 41.5568 87.6529 42.9768C87.5129 44.3968 86.7029 43.9368 86.5529 43.4068C86.3729 42.7768 86.2129 41.3968 85.9729 40.8368C85.6629 40.1368 86.0029 39.5368 86.6829 39.7868Z" fill="#060642"/>
<path d="M87.1135 44.0568C86.7935 44.0568 86.5135 43.7468 86.4235 43.4368C86.3435 43.1768 86.2735 42.7968 86.2035 42.3868C86.1035 41.8268 85.9835 41.1968 85.8435 40.8868C85.6535 40.4568 85.6835 40.0268 85.9135 39.7768C86.1035 39.5768 86.4035 39.5268 86.7235 39.6468C87.2935 39.8568 87.9235 41.5468 87.7835 42.9868C87.7035 43.8268 87.3935 44.0268 87.1535 44.0568C87.1435 44.0568 87.1335 44.0568 87.1135 44.0568ZM86.3935 39.8568C86.2835 39.8568 86.1835 39.8968 86.1135 39.9668C85.9535 40.1368 85.9535 40.4468 86.0935 40.7768C86.2435 41.1168 86.3535 41.7368 86.4635 42.3368C86.5335 42.7368 86.6035 43.1168 86.6735 43.3568C86.7435 43.5968 86.9535 43.7968 87.1235 43.7768C87.3135 43.7568 87.4635 43.4468 87.5135 42.9468C87.6535 41.5268 87.0135 40.0268 86.6335 39.8968C86.5535 39.8768 86.4635 39.8568 86.3935 39.8568Z" fill="#060642"/>
<path d="M84.0339 43.0468C84.1885 43.0468 84.3139 42.9214 84.3139 42.7668C84.3139 42.6121 84.1885 42.4868 84.0339 42.4868C83.8792 42.4868 83.7539 42.6121 83.7539 42.7668C83.7539 42.9214 83.8792 43.0468 84.0339 43.0468Z" fill="#060642"/>
<path d="M84.0333 43.1868C83.8033 43.1868 83.6133 42.9968 83.6133 42.7668C83.6133 42.5368 83.8033 42.3468 84.0333 42.3468C84.2633 42.3468 84.4532 42.5368 84.4532 42.7668C84.4532 42.9968 84.2633 43.1868 84.0333 43.1868ZM84.0333 42.6168C83.9533 42.6168 83.8832 42.6868 83.8832 42.7668C83.8832 42.8468 83.9533 42.9168 84.0333 42.9168C84.1133 42.9168 84.1833 42.8468 84.1833 42.7668C84.1833 42.6868 84.1133 42.6168 84.0333 42.6168Z" fill="#060642"/>
<path d="M92.6322 47.5968C91.5322 47.4568 90.0022 47.6768 88.5822 50.9668C87.1622 54.2468 85.5922 58.6568 85.4122 59.2968C85.2322 59.9368 89.1822 63.7468 91.7822 64.6268C94.3822 65.5168 96.7922 64.7668 97.0122 64.6268C97.2222 64.4868 95.6622 52.2868 95.2322 50.5768C94.8022 48.8768 94.0222 47.7768 92.6322 47.5968Z" fill="#060642"/>
<path d="M94.443 65.1968C93.623 65.1968 92.693 65.0868 91.743 64.7668C89.143 63.8768 85.083 60.0368 85.293 59.2668C85.483 58.5768 87.073 54.1268 88.463 50.9168C89.933 47.5368 91.563 47.3268 92.653 47.4668C94.003 47.6368 94.883 48.6468 95.363 50.5568C95.593 51.4568 96.103 55.1368 96.493 58.1868C97.313 64.5968 97.163 64.6968 97.083 64.7568C96.893 64.8768 95.833 65.1968 94.443 65.1968ZM92.183 47.7068C91.153 47.7068 89.913 48.2468 88.703 51.0268C87.323 54.2268 85.733 58.6568 85.543 59.3468C85.413 59.8268 89.213 63.6268 91.823 64.5168C94.263 65.3568 96.543 64.7068 96.893 64.5568C96.963 63.6368 95.503 52.2668 95.103 50.6368C94.653 48.8468 93.843 47.9068 92.623 47.7468C92.483 47.7168 92.333 47.7068 92.183 47.7068Z" fill="#060642"/>
<path d="M94.9328 87.4968C92.0028 87.8768 88.4528 81.6968 88.8328 75.9068C89.1228 71.4668 90.6228 70.0368 91.5628 69.5868C92.6428 75.1268 94.0028 82.1868 94.9328 87.4968Z" fill="#00A7E6"/>
<path d="M94.6726 87.6468C93.9226 87.6468 93.1226 87.2668 92.3426 86.5368C90.3626 84.6768 88.4126 80.3168 88.7026 75.8968C89.0026 71.3468 90.5827 69.9068 91.5027 69.4568C91.5427 69.4368 91.5827 69.4368 91.6227 69.4568C91.6627 69.4768 91.6826 69.5068 91.6926 69.5468C92.7026 74.7168 94.1127 82.0268 95.0627 87.4668C95.0727 87.5068 95.0626 87.5368 95.0426 87.5668C95.0226 87.5968 94.9926 87.6168 94.9526 87.6168C94.8526 87.6468 94.7626 87.6468 94.6726 87.6468ZM91.4626 69.7868C90.5826 70.2968 89.2426 71.7568 88.9626 75.9168C88.6826 80.2568 90.5826 84.5268 92.5226 86.3368C93.2926 87.0568 94.0626 87.4068 94.7726 87.3768C93.8326 82.0168 92.4626 74.8968 91.4626 69.7868Z" fill="#060642"/>
<path d="M87.0458 72.1003C87.2774 71.3279 87.1006 70.5925 86.6509 70.4577C86.2012 70.3229 85.6489 70.8397 85.4174 71.6121C85.1858 72.3845 85.3626 73.1199 85.8123 73.2548C86.2619 73.3896 86.8142 72.8727 87.0458 72.1003Z" fill="#00A7E6"/>
<path d="M85.9631 73.4268C85.9031 73.4268 85.8331 73.4168 85.7731 73.3968C85.2431 73.2368 85.0231 72.4468 85.2831 71.5868C85.5431 70.7268 86.1531 70.1868 86.6831 70.3468C87.2131 70.5068 87.4331 71.2968 87.1731 72.1568C86.9531 72.9168 86.4431 73.4268 85.9631 73.4268ZM85.5431 71.6668C85.3331 72.3568 85.4831 73.0268 85.8531 73.1368C86.2231 73.2468 86.7131 72.7668 86.9231 72.0768C87.1331 71.3868 86.9831 70.7168 86.6131 70.6068C86.2431 70.4968 85.7531 70.9868 85.5431 71.6668Z" fill="#060642"/>
<path d="M76.2728 98.3068C76.2628 98.3068 76.2628 98.3068 76.2528 98.3068C76.1728 98.2968 68.2628 97.3168 67.0228 97.6668C66.9528 97.6868 66.8728 97.6468 66.8528 97.5768C66.8328 97.5068 66.8728 97.4268 66.9428 97.4068C68.1028 97.0868 74.4128 97.8168 75.9528 98.0068C75.2528 97.0668 73.1428 93.6768 74.8928 88.9568C76.9628 83.3868 83.0628 83.0368 83.1228 83.0368C83.1928 83.0268 83.2628 83.0868 83.2628 83.1668C83.2628 83.2368 83.2128 83.3068 83.1328 83.3068C83.0728 83.3068 77.1528 83.6568 75.1428 89.0468C73.1328 94.4468 76.3328 98.0468 76.3628 98.0868C76.4028 98.1268 76.4128 98.1868 76.3828 98.2368C76.3728 98.2768 76.3228 98.3068 76.2728 98.3068Z" fill="#060642"/>
<path d="M73.4641 79.2468L71.4041 95.9568C71.4041 95.9568 67.5941 95.9668 66.2141 95.9568C65.1041 95.9468 64.8541 97.7268 64.8341 98.4468C64.8241 99.2368 65.7541 99.3868 65.7541 99.3868C65.7541 99.3868 66.1341 97.3468 67.8441 97.4468C69.6941 97.5568 73.7441 97.8768 73.7441 97.8768" fill="#66D1F2"/>
<path d="M65.8733 99.5468L65.7433 99.5268C65.3833 99.4668 64.6932 99.1568 64.7032 98.4468C64.7132 97.5368 65.0532 95.8268 66.2032 95.8268C66.2032 95.8268 66.2032 95.8268 66.2132 95.8268C67.4432 95.8368 70.6332 95.8268 71.2832 95.8268L73.3332 79.2268L73.6033 79.2568L71.5232 96.0868H71.4032C71.3632 96.0868 67.5732 96.0968 66.2132 96.0868C66.2132 96.0868 66.2132 96.0868 66.2032 96.0868C65.2232 96.0868 64.9833 97.7868 64.9733 98.4368C64.9633 98.9468 65.4333 99.1468 65.6633 99.2168C65.7933 98.7368 66.3233 97.2168 67.8533 97.3068C69.6833 97.4168 73.7133 97.7268 73.7533 97.7368L73.7333 98.0068C73.6933 98.0068 69.6632 97.6868 67.8332 97.5768C66.2632 97.4768 65.8932 99.3868 65.8932 99.4068L65.8733 99.5468Z" fill="#060642"/>
<path d="M113.083 106.777H47.7734V135.597H113.083V106.777Z" fill="#DCEDF3"/>
<path d="M113.083 135.727H47.7726C47.7026 135.727 47.6426 135.667 47.6426 135.597V106.777C47.6426 106.707 47.7026 106.647 47.7726 106.647H113.083C113.153 106.647 113.213 106.707 113.213 106.777V135.597C113.223 135.667 113.163 135.727 113.083 135.727ZM47.9026 135.457H112.943V106.907H47.9026V135.457Z" fill="#060642"/>
<path d="M133.064 124.217V96.3068L113.084 107.627V135.597L133.064 124.217Z" fill="#C5E3EA"/>
<path d="M113.083 135.727C113.063 135.727 113.033 135.717 113.013 135.707C112.973 135.687 112.943 135.637 112.943 135.587V107.627C112.943 107.577 112.973 107.537 113.013 107.507L132.983 96.1868C133.023 96.1668 133.073 96.1668 133.113 96.1868C133.153 96.2068 133.183 96.2568 133.183 96.3068V124.207C133.183 124.257 133.153 124.297 133.113 124.327L113.143 135.707C113.133 135.717 113.103 135.727 113.083 135.727ZM113.223 107.707V135.357L132.933 124.127V96.5368L113.223 107.707Z" fill="#060642"/>
<path d="M47.9034 21.4668C47.5134 23.4268 46.1634 28.5768 46.1634 28.5768C46.1634 28.5768 45.3534 29.5568 44.0534 31.1668C42.5934 32.9668 40.5134 35.5668 38.2334 38.4868C37.1734 39.8468 36.0734 41.2768 34.9734 42.7268C33.9734 44.0468 32.9734 45.3768 32.0134 46.6968C31.7234 47.0968 31.4334 47.4968 31.1434 47.8968C24.7434 56.7868 19.9734 71.2968 19.9734 71.2968C19.9734 71.2968 17.6234 70.8668 10.7234 64.7568C3.82339 58.6368 0.693359 53.0968 0.693359 53.0968C0.693359 53.0968 1.40339 49.8268 4.10339 44.5668C6.80339 39.3068 12.3934 29.9468 22.3434 23.6968C32.3034 17.4368 47.8734 16.5868 47.8734 16.5868C47.8734 16.5868 48.2934 19.5068 47.9034 21.4668Z" fill="#DCEDF3"/>
<path d="M19.9828 71.4168C19.9728 71.4168 19.9627 71.4168 19.9627 71.4168C19.8627 71.3968 17.5027 70.9168 10.6527 64.8368C3.81274 58.7768 0.622747 53.1968 0.592747 53.1368C0.572747 53.1068 0.572737 53.0768 0.582737 53.0468C0.592737 53.0168 1.33273 49.6968 4.01273 44.4768C8.76273 35.2368 14.9128 28.1968 22.3028 23.5468C32.1728 17.3368 47.7427 16.4268 47.9027 16.4168C47.9727 16.4168 48.0328 16.4668 48.0428 16.5368C48.0628 16.6568 48.4328 19.5368 48.0428 21.4868C47.6528 23.4268 46.3128 28.5568 46.3028 28.6068C46.2928 28.6268 46.2927 28.6468 46.2727 28.6568C46.2627 28.6668 45.4528 29.6468 44.1628 31.2468C43.0828 32.5868 40.8828 35.3168 38.3528 38.5668C37.1628 40.0968 36.1027 41.4768 35.0927 42.8068C34.0327 44.2068 33.0427 45.5368 32.1327 46.7768C31.8427 47.1768 31.5527 47.5768 31.2627 47.9768C24.9427 56.7468 20.1628 71.1968 20.1128 71.3368C20.0928 71.3868 20.0428 71.4168 19.9828 71.4168ZM0.852756 53.0568C1.17276 53.5968 4.35273 58.8968 10.8227 64.6468C16.8027 69.9468 19.3527 70.9568 19.8927 71.1268C20.3727 69.7068 25.0027 56.1868 31.0327 47.8068C31.3228 47.4068 31.6127 47.0068 31.9027 46.6068C32.8027 45.3768 33.8028 44.0368 34.8628 42.6368C35.8628 41.3168 36.9328 39.9268 38.1228 38.3968C40.6628 35.1468 42.8527 32.4168 43.9427 31.0768C45.1227 29.6168 45.9027 28.6668 46.0327 28.5068C46.1427 28.0868 47.3927 23.2868 47.7627 21.4268C48.1027 19.7368 47.8427 17.2668 47.7727 16.6868C46.2727 16.7868 31.7728 17.8968 22.4328 23.7668C15.0828 28.3868 8.96276 35.3868 4.23276 44.5868C1.76276 49.4368 0.952756 52.6268 0.852756 53.0568Z" fill="#060642"/>
<path d="M52.9842 14.9168L48.3242 16.0168C47.9342 16.1068 47.6242 16.3868 47.4942 16.7668C47.0942 17.8968 46.2842 20.4268 46.1542 22.7468C45.9742 25.8368 46.1542 28.5768 46.1542 28.5768L49.3642 27.9868C49.9742 27.8768 50.4043 27.3368 50.3743 26.7168C50.3243 25.5068 50.2943 23.3968 50.5643 20.9368C51.0143 16.8268 52.9842 14.9168 52.9842 14.9168Z" fill="#DCEDF3"/>
<path d="M46.1534 28.7068C46.1234 28.7068 46.0933 28.6968 46.0733 28.6768C46.0433 28.6568 46.0234 28.6168 46.0234 28.5768C46.0234 28.5468 45.8434 25.7968 46.0234 22.7268C46.1534 20.4468 46.9234 17.9768 47.3734 16.7168C47.5234 16.2968 47.8634 15.9868 48.3034 15.8868L52.9634 14.7868C53.0234 14.7768 53.0834 14.7968 53.1134 14.8568C53.1434 14.9068 53.1334 14.9768 53.0934 15.0168C53.0734 15.0368 51.1534 16.9468 50.7134 20.9468C50.4534 23.3368 50.4634 25.3968 50.5234 26.7068C50.5534 27.3868 50.0734 27.9968 49.4034 28.1168L46.1933 28.7068C46.1733 28.7068 46.1634 28.7068 46.1534 28.7068ZM52.6034 15.1468L48.3634 16.1468C48.0234 16.2268 47.7433 16.4768 47.6333 16.8068C47.2733 17.8168 46.4334 20.4068 46.3034 22.7468C46.1534 25.3868 46.2634 27.7968 46.2934 28.4068L49.3534 27.8368C49.8934 27.7368 50.2734 27.2468 50.2534 26.7068C50.1934 25.3868 50.1833 23.3168 50.4433 20.9068C50.7833 17.7168 52.0234 15.8568 52.6034 15.1468Z" fill="#060642"/>
<path d="M15.334 56.4668C15.174 56.4668 15.014 56.4468 14.854 56.3968C13.934 56.1068 12.554 55.5368 11.164 54.4468C9.724 53.3068 8.89397 51.9468 8.44397 51.0068C8.17397 50.4268 8.24402 49.7468 8.62402 49.2368L12.764 44.4268C12.814 44.3768 12.894 44.3668 12.954 44.4068L20.414 50.3168C20.474 50.3568 20.484 50.4468 20.444 50.4968L16.614 55.8368C16.304 56.2368 15.834 56.4668 15.334 56.4668ZM12.894 44.6868L8.84399 49.3968C8.52399 49.8168 8.47398 50.3868 8.70398 50.8768C9.13398 51.7968 9.94399 53.1168 11.344 54.2168C12.704 55.2868 14.054 55.8468 14.944 56.1268C15.484 56.2968 16.064 56.1068 16.404 55.6668L20.154 50.4368L12.894 44.6868Z" fill="#060642"/>
<path d="M114.714 106.777H46.1543V109.337H114.714V106.777Z" fill="#060642"/>
<path d="M114.704 109.467H46.1437C46.0737 109.467 46.0137 109.407 46.0137 109.337V106.777C46.0137 106.707 46.0737 106.647 46.1437 106.647H114.704C114.774 106.647 114.834 106.707 114.834 106.777V109.337C114.844 109.407 114.784 109.467 114.704 109.467ZM46.2837 109.197H114.574V106.907H46.2837V109.197Z" fill="#060642"/>
<path d="M114.703 109.337L134.663 97.8968V95.3968L114.703 106.777V109.337Z" fill="#060642"/>
<path d="M114.702 109.467C114.682 109.467 114.652 109.457 114.632 109.447C114.592 109.427 114.562 109.377 114.562 109.327V106.767C114.562 106.717 114.592 106.677 114.632 106.647L134.592 95.2668C134.632 95.2468 134.682 95.2468 134.722 95.2668C134.762 95.2868 134.792 95.3368 134.792 95.3868V97.8868C134.792 97.9368 134.762 97.9768 134.722 98.0068L114.762 109.447C114.752 109.467 114.732 109.467 114.702 109.467ZM114.842 106.857V109.107L134.532 97.8268V95.6368L114.842 106.857Z" fill="#060642"/>
<path d="M10.8833 132.267C10.1733 132.267 9.44335 132.227 8.70335 132.137C6.30335 131.847 4.10339 131.287 2.17339 130.467C2.10339 130.437 2.07338 130.357 2.10338 130.287C2.13338 130.217 2.21337 130.187 2.28337 130.217C4.18337 131.027 6.36338 131.587 8.73338 131.867C14.2434 132.517 18.9534 130.467 20.7234 129.547C20.7934 129.517 20.8734 129.537 20.9034 129.607C20.9334 129.677 20.9134 129.757 20.8434 129.787C19.3034 130.597 15.5033 132.267 10.8833 132.267Z" fill="white"/>
<path d="M41.1544 47.1268L35.9644 47.3768C35.7944 46.5568 35.6344 45.6668 35.4144 44.6868C35.2844 44.0868 35.1344 43.4268 34.9744 42.7168C33.9744 44.0368 32.9744 45.3668 32.0144 46.6868C31.9544 44.8868 31.5944 40.5768 31.5744 35.7468C31.5544 28.9668 33.4944 24.7468 33.5544 24.6268L38.2344 38.4768L41.1544 47.1268Z" fill="#060642"/>
<path d="M35.9637 47.5168C35.9037 47.5168 35.8437 47.4768 35.8337 47.4068C35.7637 47.0768 35.6937 46.7368 35.6337 46.3868C35.5337 45.8568 35.4237 45.3068 35.2937 44.7168C35.1837 44.2368 35.0737 43.7168 34.9437 43.1668L34.9137 43.0368C33.9237 44.3568 32.9837 45.6068 32.1337 46.7768C32.1037 46.8268 32.0437 46.8468 31.9837 46.8268C31.9337 46.8068 31.8937 46.7568 31.8837 46.7068C31.8637 46.1968 31.8237 45.4868 31.7737 44.5968C31.6437 42.4568 31.4537 39.2168 31.4437 35.7568C31.4137 28.8268 33.4137 24.6168 33.4337 24.5768C33.4537 24.5268 33.5137 24.4968 33.5637 24.4968C33.6137 24.4968 33.6637 24.5368 33.6837 24.5868L41.2837 47.0868C41.2937 47.1268 41.2937 47.1668 41.2637 47.2068C41.2437 47.2368 41.2037 47.2668 41.1637 47.2668L35.9637 47.5168ZM34.9737 42.5868C34.9837 42.5868 34.9938 42.5868 35.0038 42.5868C35.0538 42.5968 35.0937 42.6368 35.1037 42.6868L35.1937 43.0968C35.3237 43.6468 35.4337 44.1668 35.5437 44.6568C35.6737 45.2468 35.7837 45.7968 35.8837 46.3368C35.9437 46.6468 36.0037 46.9568 36.0637 47.2468L40.9637 47.0068L33.5337 25.0168C33.0837 26.1268 31.6837 30.0468 31.7037 35.7568C31.7137 39.2068 31.9037 42.4368 32.0337 44.5768C32.0737 45.2668 32.1037 45.8368 32.1337 46.3068C32.9737 45.1568 33.8937 43.9268 34.8637 42.6468C34.8937 42.6068 34.9337 42.5868 34.9737 42.5868Z" fill="#060642"/>
<path d="M62.6923 56.6868C61.6823 56.6468 60.6324 56.5868 59.5424 56.5168C59.0324 55.4868 58.6223 54.1768 58.5723 52.5768C58.5023 50.5368 59.0624 49.0168 59.6824 47.9668C60.6924 48.0768 61.6824 48.1668 62.5924 48.2368C62.0424 49.2668 61.5723 50.7068 61.6323 52.5668C61.6923 54.2568 62.1523 55.6368 62.6923 56.6868Z" fill="#060642"/>
<path d="M62.6917 56.8268C61.6817 56.7868 60.6217 56.7268 59.5317 56.6568C59.4817 56.6568 59.4417 56.6268 59.4217 56.5868C58.8117 55.3568 58.4817 54.0068 58.4417 52.5968C58.3817 50.8568 58.7617 49.2868 59.5717 47.9168C59.6017 47.8668 59.6517 47.8468 59.7017 47.8468C60.7417 47.9568 61.7217 48.0468 62.6117 48.1168C62.6617 48.1168 62.7017 48.1468 62.7217 48.1868C62.7417 48.2268 62.7417 48.2768 62.7217 48.3168C62.0517 49.5768 61.7317 51.0068 61.7817 52.5768C61.8317 54.0168 62.1817 55.3768 62.8217 56.6268C62.8417 56.6668 62.8417 56.7168 62.8117 56.7568C62.7817 56.7968 62.7417 56.8268 62.6917 56.8268ZM59.6317 56.3868C60.6117 56.4468 61.5617 56.5068 62.4717 56.5468C61.8717 55.3168 61.5517 53.9868 61.5017 52.5868C61.4517 51.0368 61.7517 49.6268 62.3817 48.3668C61.5717 48.2968 60.6917 48.2168 59.7617 48.1168C59.0117 49.4168 58.6617 50.9168 58.7117 52.5768C58.7517 53.9268 59.0617 55.2068 59.6317 56.3868Z" fill="#060642"/>
<path d="M58.5717 52.5768C58.6217 54.1668 59.0318 55.4868 59.5418 56.5168C56.9418 56.3468 54.1118 56.0768 51.0618 55.7068C38.1518 54.1368 36.9117 51.9568 35.9617 47.3768C35.7917 46.5568 35.6318 45.6668 35.4118 44.6868C35.2818 44.0868 35.1317 43.4268 34.9717 42.7168C33.7217 37.2168 31.8918 28.9468 33.5518 24.6268C33.9718 23.5168 34.6317 22.6768 35.5817 22.1968C37.9017 21.0368 41.6317 21.8168 42.6417 24.7368C43.2617 26.5268 43.6618 28.6968 44.0518 31.1568C44.3218 32.8368 44.5717 34.6568 44.8817 36.5668C46.3017 45.4568 46.7318 45.5268 46.7318 45.5268C46.7318 45.5268 51.1418 46.8768 55.4118 47.4468C56.7618 47.6268 58.2517 47.8068 59.6917 47.9568C59.0617 49.0168 58.5017 50.5468 58.5717 52.5768Z" fill="#DCEDF3"/>
<path d="M59.5422 56.6468C56.8322 56.4668 53.9722 56.1968 51.0422 55.8368C44.7022 55.0668 41.0822 54.1468 38.9522 52.7768C36.8022 51.3968 36.2822 49.5968 35.8322 47.3968C35.7622 47.0668 35.6922 46.7268 35.6322 46.3768C35.5322 45.8468 35.4222 45.2968 35.2922 44.7068C35.1822 44.2268 35.0722 43.7068 34.9422 43.1568L34.8522 42.7468C33.6922 37.6068 31.7422 28.9968 33.4322 24.5768C33.8922 23.3868 34.5922 22.5468 35.5222 22.0768C36.8622 21.4068 38.6322 21.3668 40.1222 21.9768C41.4122 22.5068 42.3522 23.4668 42.7722 24.6968C43.4222 26.5868 43.8422 28.9068 44.1922 31.1368C44.3222 31.9268 44.4422 32.7468 44.5722 33.5968C44.7122 34.5468 44.8622 35.5368 45.0222 36.5468C46.2422 44.1868 46.7222 45.2668 46.8122 45.4168C47.3322 45.5668 51.4722 46.7868 55.4322 47.3168C56.9122 47.5168 58.3822 47.6868 59.7122 47.8268C59.7622 47.8268 59.8022 47.8568 59.8222 47.8968C59.8422 47.9368 59.8422 47.9868 59.8222 48.0268C59.0422 49.3468 58.6722 50.8768 58.7322 52.5568C58.7722 53.9268 59.1022 55.2368 59.6922 56.4368C59.7122 56.4768 59.7122 56.5268 59.6822 56.5668C59.6322 56.6268 59.5922 56.6468 59.5422 56.6468ZM37.8922 21.8168C37.0922 21.8168 36.3122 21.9868 35.6422 22.3168C34.7722 22.7468 34.1122 23.5468 33.6822 24.6668C32.0122 29.0068 33.9522 37.5668 35.1122 42.6768L35.2022 43.0868C35.3322 43.6368 35.4422 44.1568 35.5522 44.6468C35.6822 45.2368 35.7922 45.7868 35.8922 46.3268C35.9622 46.6768 36.0322 47.0168 36.0922 47.3468C37.0122 51.7868 38.0322 53.9868 51.0722 55.5668C53.9122 55.9068 56.6822 56.1768 59.3122 56.3568C58.7722 55.1768 58.4722 53.9068 58.4322 52.5768C58.3822 50.9168 58.7222 49.3968 59.4522 48.0768C58.1822 47.9368 56.7722 47.7668 55.3722 47.5868C51.1422 47.0268 46.7222 45.6768 46.6722 45.6668C46.2622 45.5968 45.3822 40.6968 44.7322 36.5968C44.5722 35.5868 44.4222 34.5968 44.2822 33.6368C44.1522 32.7868 44.0322 31.9668 43.9122 31.1768C43.5622 28.9668 43.1522 26.6568 42.5122 24.7868C42.1122 23.6368 41.2322 22.7268 40.0122 22.2268C39.3422 21.9568 38.6022 21.8168 37.8922 21.8168ZM46.7422 45.4068C46.7422 45.4068 46.7522 45.4068 46.7722 45.4168C46.7722 45.4068 46.7622 45.4068 46.7422 45.4068Z" fill="#060642"/>
<path d="M82.362 52.6468C82.502 53.2868 81.432 54.7068 78.662 55.7068C76.732 56.3968 71.232 57.0468 62.702 56.6868C62.152 55.6368 61.702 54.2568 61.642 52.5768C61.582 50.7068 62.042 49.2768 62.602 48.2468C64.482 48.3968 66.032 48.4468 66.722 48.3168C68.212 48.0268 73.622 44.4768 74.402 44.4768C75.182 44.4768 75.472 45.4768 74.762 46.3268C74.282 46.9068 73.302 47.8168 73.302 47.8168C73.302 47.8168 76.612 47.8868 78.692 47.1068C80.382 46.4768 81.062 46.3768 81.492 46.6268C81.922 46.8768 82.002 47.4568 81.612 48.2268C81.312 48.8068 80.702 49.3768 80.662 49.4068C80.722 49.3668 82.062 48.6168 82.542 49.1368C83.042 49.6668 82.612 50.8068 82.252 51.2668C81.902 51.7268 81.292 52.1568 81.292 52.1568C81.292 52.1568 82.232 52.0868 82.362 52.6468Z" fill="white"/>
<path d="M67.353 56.9268C65.903 56.9268 64.343 56.8968 62.683 56.8268C62.633 56.8268 62.5929 56.7968 62.5729 56.7568C61.9029 55.4768 61.543 54.0768 61.503 52.5868C61.453 50.9668 61.783 49.4868 62.473 48.1868C62.503 48.1368 62.553 48.1168 62.603 48.1168C64.663 48.2768 66.073 48.2968 66.683 48.1868C67.453 48.0368 69.353 46.9668 71.033 46.0168C72.863 44.9868 74.0029 44.3468 74.3829 44.3468C74.7429 44.3468 75.033 44.5268 75.183 44.8468C75.393 45.2968 75.263 45.9168 74.843 46.4168C74.503 46.8268 73.943 47.3768 73.613 47.6868C74.503 47.6768 76.973 47.6068 78.623 46.9868C80.323 46.3468 81.053 46.2268 81.533 46.5168C82.053 46.8168 82.1129 47.4968 81.7029 48.2968C81.5729 48.5468 81.3929 48.7968 81.2129 48.9968C81.6829 48.8268 82.293 48.7068 82.623 49.0468C83.193 49.6568 82.713 50.8668 82.343 51.3568C82.143 51.6268 81.8629 51.8768 81.653 52.0468C81.9729 52.0868 82.393 52.2268 82.483 52.6368C82.643 53.3468 81.5729 54.8168 78.7029 55.8468C77.0529 56.4268 73.063 56.9268 67.353 56.9268ZM62.783 56.5568C70.903 56.8968 76.583 56.3168 78.623 55.5868C81.413 54.5868 82.353 53.2068 82.233 52.6868C82.133 52.2568 81.313 52.2968 81.303 52.2968C81.243 52.2968 81.183 52.2668 81.163 52.2068C81.143 52.1468 81.1629 52.0868 81.2129 52.0568C81.2229 52.0568 81.8029 51.6368 82.1429 51.1968C82.4729 50.7768 82.873 49.6968 82.433 49.2368C82.103 48.8768 81.1629 49.2768 80.7129 49.5268C80.6529 49.5568 80.583 49.5468 80.533 49.4868C80.493 49.4368 80.503 49.3568 80.553 49.3068C80.663 49.2068 81.203 48.6768 81.473 48.1568C81.813 47.5068 81.7829 46.9568 81.403 46.7368C81.013 46.5068 80.303 46.6368 78.723 47.2268C76.633 48.0068 73.413 47.9468 73.283 47.9468C73.233 47.9468 73.183 47.9068 73.163 47.8568C73.143 47.8068 73.1529 47.7468 73.1929 47.7068C73.2029 47.6968 74.1629 46.7968 74.6429 46.2268C74.9929 45.8068 75.1129 45.2968 74.9429 44.9368C74.8429 44.7168 74.6429 44.5968 74.3929 44.5968C74.0629 44.5968 72.593 45.4268 71.173 46.2268C69.393 47.2368 67.553 48.2768 66.733 48.4368C66.103 48.5568 64.733 48.5368 62.673 48.3768C62.023 49.6168 61.7229 51.0268 61.7729 52.5668C61.8129 53.9868 62.153 55.3268 62.783 56.5568Z" fill="#060642"/>
<path d="M76.9516 51.1068C76.8816 51.1068 76.8316 51.0568 76.8216 50.9968C76.8116 50.9268 76.8616 50.8568 76.9316 50.8468C76.9416 50.8468 77.8316 50.6968 78.6616 50.4068C79.5516 50.0868 80.5616 49.3168 80.5716 49.3068C80.6316 49.2568 80.7116 49.2768 80.7616 49.3268C80.8116 49.3868 80.7916 49.4668 80.7416 49.5168C80.7016 49.5468 79.6916 50.3168 78.7616 50.6568C77.9016 50.9668 77.0216 51.1068 76.9816 51.1168C76.9616 51.0968 76.9616 51.1068 76.9516 51.1068Z" fill="#060642"/>
<path d="M71.9913 48.0168C71.9213 48.0168 71.8613 47.9568 71.8613 47.8868C71.8613 47.8168 71.9113 47.7468 71.9913 47.7468L73.2813 47.6768C73.3513 47.6768 73.4213 47.7268 73.4213 47.8068C73.4213 47.8768 73.3713 47.9468 73.2913 47.9468L71.9913 48.0168C72.0013 48.0168 72.0013 48.0168 71.9913 48.0168Z" fill="#060642"/>
<path d="M78.6628 53.4268C78.6028 53.4268 78.5428 53.3868 78.5328 53.3168C78.5228 53.2468 78.5627 53.1768 78.6427 53.1568C78.6427 53.1568 79.0028 53.0868 79.7128 52.7868C80.4328 52.4868 81.2328 52.0368 81.2428 52.0368C81.3128 51.9968 81.3928 52.0268 81.4228 52.0868C81.4628 52.1468 81.4328 52.2368 81.3728 52.2668C81.3628 52.2668 80.5527 52.7268 79.8227 53.0368C79.0827 53.3468 78.7227 53.4168 78.7027 53.4268C78.6727 53.4268 78.6728 53.4268 78.6628 53.4268Z" fill="#060642"/>
</svg>
