<svg width="90" height="146" viewBox="0 0 90 146" fill="none" xmlns="http://www.w3.org/2000/svg">
<path d="M68.846 68.0151L19.726 70.8151L15.416 144.955H75.326L68.846 68.0151Z" fill="#C5E3EA"/>
<path d="M75.326 145.205H15.416C15.346 145.205 15.286 145.175 15.236 145.125C15.186 145.075 15.166 145.005 15.166 144.935L19.476 70.8051C19.486 70.6751 19.586 70.5751 19.716 70.5651L68.826 67.7651C68.956 67.7551 69.076 67.8551 69.086 67.9951L75.576 144.935C75.586 145.005 75.556 145.075 75.506 145.125C75.466 145.175 75.396 145.205 75.326 145.205ZM15.676 144.705H75.056L68.616 68.2851L19.956 71.0651L15.676 144.705Z" fill="#020035"/>
<path d="M39.5377 123.775C39.4477 127.935 40.4477 130.755 41.5077 132.895C29.5177 132.935 19.3477 132.995 19.3477 132.995L33.9577 116.535H42.5477C41.2377 117.835 39.6177 120.155 39.5377 123.775Z" fill="white"/>
<path d="M19.3471 133.245C19.2471 133.245 19.1571 133.185 19.1171 133.095C19.0771 133.005 19.0871 132.895 19.1571 132.825L33.7671 116.365C33.8171 116.315 33.8871 116.285 33.9571 116.285H42.5471C42.6471 116.285 42.7371 116.345 42.7771 116.445C42.8171 116.535 42.7971 116.645 42.7171 116.715C41.4171 118.005 39.8571 120.275 39.7771 123.785C39.6871 128.095 40.7671 130.865 41.7171 132.785C41.7571 132.865 41.7471 132.955 41.7071 133.025C41.6571 133.095 41.5771 133.145 41.4971 133.145C29.5171 133.185 19.3571 133.245 19.3471 133.245ZM34.0771 116.785L19.9171 132.745C22.1771 132.735 30.9571 132.685 41.1171 132.645C40.1871 130.685 39.2071 127.925 39.2971 123.765C39.3671 120.445 40.7171 118.185 41.9771 116.785H34.0771Z" fill="#020035"/>
<path d="M66.2269 132.835C58.9469 132.835 49.7869 132.865 41.5069 132.895C40.4469 130.755 39.4469 127.935 39.5369 123.775C39.6169 120.155 41.2369 117.835 42.5469 116.535H69.4769L63.1169 83.7551C63.1169 83.7551 64.4469 69.7951 72.3669 69.4751C72.3669 69.4751 78.3869 66.8351 81.6169 82.8451C84.8469 98.8451 88.6469 114.245 89.1169 118.595C90.1569 128.055 86.7269 132.835 66.2269 132.835Z" fill="#020035"/>
<path d="M41.5064 133.145C41.4164 133.145 41.3264 133.095 41.2864 133.005C40.3064 131.025 39.1964 128.185 39.2864 123.765C39.3664 120.085 41.0064 117.705 42.3664 116.355C42.4164 116.305 42.4764 116.285 42.5464 116.285H69.1764L62.8764 83.8051C62.8764 83.7851 62.8664 83.7551 62.8764 83.7351C62.9364 83.1551 64.3164 69.6051 72.3264 69.2251C72.5764 69.1351 73.7664 68.7651 75.3064 69.5651C77.2964 70.5951 80.0464 73.7351 81.8764 82.7951C83.3064 89.8851 84.8264 96.7451 86.1664 102.805C87.8164 110.255 89.1164 116.135 89.3864 118.575C89.8864 123.095 89.2464 126.065 87.3364 128.205C84.3064 131.585 77.8064 133.095 66.2464 133.095C59.0564 133.085 50.1064 133.115 41.5064 133.145ZM42.6564 116.785C41.3764 118.085 39.8664 120.335 39.7964 123.785C39.7064 127.995 40.7364 130.725 41.6764 132.645C50.2264 132.615 59.1164 132.585 66.2364 132.585C77.6364 132.585 84.0264 131.125 86.9464 127.865C88.7864 125.815 89.3564 123.055 88.8764 118.625C88.6164 116.215 87.3164 110.345 85.6664 102.915C84.3264 96.8551 82.8064 89.9951 81.3764 82.9051C79.5864 74.0351 76.9564 71.0051 75.0664 70.0251C73.5764 69.2451 72.4864 69.7151 72.4764 69.7151C72.4464 69.7251 72.4164 69.7351 72.3864 69.7351C64.9664 70.0351 63.4564 82.9851 63.3764 83.7551L69.7264 116.495C69.7364 116.565 69.7264 116.645 69.6764 116.705C69.6264 116.765 69.5564 116.795 69.4864 116.795H42.6564V116.785Z" fill="#020035"/>
<path d="M35.3367 121.035C25.8067 129.765 17.2667 138.405 11.5567 139.415C8.55674 139.945 5.34674 139.535 3.20674 137.185C0.626736 134.355 0.136736 130.245 0.256736 126.545C0.416736 121.875 1.45674 117.155 2.33674 112.575C3.23674 107.895 4.27674 103.235 5.38674 98.6051C6.79674 92.7251 8.29674 86.8451 10.1667 81.0951C10.7567 79.2751 11.2967 77.1551 12.3867 75.5551C15.6267 70.7951 23.9167 73.2451 23.9167 73.2451L28.4967 80.7851L22.6267 108.735C22.8667 108.545 23.0867 108.345 23.3167 108.145C23.2767 110.225 23.6867 113.205 25.7467 115.965C28.4267 119.525 33.0167 120.675 35.3367 121.035Z" fill="#020035"/>
<path d="M9.30682 139.875C6.71682 139.875 4.53682 139.015 3.02682 137.355C0.836818 134.945 -0.143182 131.415 0.016818 126.545C0.146818 122.515 0.956818 118.425 1.72682 114.475C1.85682 113.825 1.97682 113.185 2.10682 112.545C2.91682 108.295 3.88682 103.855 5.15682 98.5651C6.42682 93.2751 7.98682 87.0651 9.94682 81.0351C10.0468 80.7251 10.1468 80.3951 10.2468 80.0751C10.7468 78.4551 11.2668 76.7851 12.1968 75.4351C15.4968 70.5751 23.6568 72.9251 24.0068 73.0251C24.0668 73.0451 24.1168 73.0851 24.1468 73.1351L28.7268 80.6751C28.7568 80.7251 28.7668 80.7951 28.7568 80.8551L23.0368 108.085L23.1668 107.975C23.2468 107.905 23.3468 107.895 23.4368 107.935C23.5268 107.975 23.5868 108.065 23.5768 108.165C23.5368 110.155 23.9268 113.105 25.9568 115.835C28.5468 119.295 32.9668 120.435 35.3768 120.805C35.4768 120.815 35.5468 120.885 35.5768 120.975C35.6068 121.065 35.5768 121.165 35.5068 121.235C34.1468 122.475 32.8168 123.715 31.5068 124.935C23.4968 132.375 16.5768 138.795 11.6068 139.675C10.8068 139.805 10.0368 139.875 9.30682 139.875ZM19.2768 72.8751C16.8768 72.8751 14.1368 73.4451 12.6068 75.6951C11.7268 76.9951 11.2168 78.6251 10.7268 80.2051C10.6268 80.5351 10.5268 80.8551 10.4168 81.1751C8.46682 87.1851 6.90682 93.3851 5.63682 98.6651C4.36682 103.955 3.39682 108.385 2.58682 112.625C2.46682 113.265 2.33682 113.915 2.20682 114.555C1.43682 118.485 0.636818 122.555 0.506818 126.555C0.346818 131.285 1.28682 134.705 3.38682 137.015C5.83682 139.705 9.52682 139.525 11.5068 139.175C16.3368 138.325 23.2068 131.945 31.1568 124.555C32.3468 123.455 33.5568 122.325 34.7868 121.195C32.2268 120.735 28.0768 119.475 25.5568 116.115C23.6168 113.515 23.1168 110.735 23.0768 108.695C22.9868 108.775 22.8868 108.855 22.7868 108.935C22.7068 109.005 22.5868 109.005 22.4968 108.955C22.4068 108.895 22.3668 108.795 22.3868 108.695L28.2368 80.8451L23.7568 73.4751C23.3368 73.3451 21.4568 72.8751 19.2768 72.8751Z" fill="#020035"/>
<path d="M0.486709 130.545C0.296709 129.905 0.226709 128.915 0.266709 127.645C0.286709 128.615 0.356709 129.595 0.486709 130.545Z" fill="#020035"/>
<path d="M0.485906 130.795C0.375906 130.795 0.275906 130.725 0.245906 130.615C0.0559062 129.955 -0.0240938 128.955 0.0159062 127.635C0.0159062 127.505 0.135906 127.395 0.265906 127.395C0.405906 127.395 0.515906 127.505 0.515906 127.645C0.535906 128.645 0.605906 129.615 0.735906 130.515C0.755906 130.645 0.665906 130.765 0.535906 130.795C0.525906 130.795 0.505906 130.795 0.485906 130.795Z" fill="#020035"/>
<path d="M68.3277 36.7951C68.3277 36.7951 61.1077 31.7651 49.0677 27.2851C37.0277 22.8051 22.8877 30.7351 22.8877 30.7351C22.8877 30.7351 20.6277 44.2051 21.8477 51.4251C23.0677 58.6451 28.2677 76.9051 29.4277 78.5751C30.5877 80.2451 31.6877 88.1651 45.1077 87.4151C58.5277 86.6651 68.1677 70.4951 67.2877 58.1051C66.4077 45.7151 68.3277 36.7951 68.3277 36.7951Z" fill="#00A7E6"/>
<path d="M56.4165 55.1551V78.9351C56.4165 78.9351 49.3665 82.3151 41.1065 82.0251C32.8465 81.7351 34.4665 80.5851 34.4665 80.5851V51.8551L56.4165 55.1551Z" fill="white"/>
<path d="M56.4168 55.1551V60.9251C55.0268 62.4451 52.4168 64.6451 48.1168 66.4651C43.4268 68.4551 37.7668 68.1251 34.4668 67.6651V51.8551L56.4168 55.1551Z" fill="#020035"/>
<path d="M39.367 68.2651C37.427 68.2651 35.697 68.0951 34.427 67.9151C34.307 67.8951 34.207 67.7951 34.207 67.6651V51.8551C34.207 51.7851 34.237 51.7151 34.297 51.6651C34.357 51.6151 34.427 51.5951 34.497 51.6051L56.447 54.9051C56.567 54.9251 56.657 55.0251 56.657 55.1551V60.9251C56.657 60.9851 56.637 61.0451 56.587 61.0951C55.447 62.3451 52.837 64.7351 48.197 66.6951C45.367 67.9051 42.157 68.2651 39.367 68.2651ZM34.717 67.4451C37.787 67.8551 43.397 68.1951 48.017 66.2351C52.477 64.3451 55.017 62.0651 56.167 60.8251V55.3651L34.717 52.1451V67.4451Z" fill="#020035"/>
<path d="M42.1067 82.2951C41.7767 82.2951 41.4367 82.2851 41.0967 82.2751C34.4367 82.0451 34.1967 81.2451 34.1067 80.9551C34.0467 80.7551 34.1267 80.5951 34.2167 80.4851V51.8551C34.2167 51.7851 34.2467 51.7151 34.3067 51.6651C34.3667 51.6151 34.4367 51.5951 34.5067 51.6051L56.4567 54.9051C56.5767 54.9251 56.6667 55.0251 56.6667 55.1551V78.9351C56.6667 79.0351 56.6067 79.1151 56.5267 79.1651C56.4567 79.1951 49.8967 82.2951 42.1067 82.2951ZM34.7167 52.1451V80.5851C34.7167 80.6651 34.6767 80.7451 34.6067 80.7851C34.5967 80.8351 34.8867 81.5551 41.1067 81.7751C48.5867 82.0451 55.1267 79.2451 56.1567 78.7751V55.3651L34.7167 52.1451Z" fill="#020035"/>
<path d="M68.3271 67.8751C66.1871 71.7851 57.5871 87.0351 50.6071 92.9051C47.9771 93.6951 45.1971 94.0351 42.3771 93.9151C38.7971 91.4351 34.8871 85.6251 31.5671 78.5651C32.5671 79.1351 33.6671 79.6151 34.8671 79.9751C43.9371 82.6951 55.4971 82.5651 60.9571 73.2451C66.4171 63.9251 67.4271 30.8751 67.2771 25.0551C67.1371 19.2451 64.7771 11.2551 61.4671 8.10513C58.1571 4.94513 53.6671 2.71513 48.7271 1.81513C45.6971 1.26513 42.4171 1.28513 38.9671 2.20513C32.7471 3.86513 27.8071 7.89513 25.0771 14.0451C22.3571 20.1951 22.2071 33.9651 23.9271 52.2851C24.7071 60.5751 27.7371 70.4051 31.5671 78.5651C26.4071 75.6751 23.8171 70.5951 22.9371 68.5451C22.9371 68.5451 22.9271 68.5351 22.9371 68.5251C20.9671 54.7551 19.1471 28.0351 22.5871 16.4051C25.9371 5.04513 34.2971 1.64513 40.4571 0.665128C40.4571 0.665128 40.4571 0.665128 40.4671 0.665128C40.6871 0.615128 47.6271 -0.774873 54.6371 1.85513C63.8371 5.30513 68.4371 13.8251 68.9271 22.4751C69.4271 31.1251 70.0871 44.1451 68.3271 67.8751Z" fill="#66D1F2"/>
<path d="M43.4863 94.1851C43.1163 94.1851 42.7363 94.1751 42.3663 94.1651C42.3163 94.1651 42.2763 94.1451 42.2363 94.1251C38.8263 91.7651 34.8663 86.1651 31.3763 78.7451C26.2163 75.8151 23.5963 70.7151 22.7063 68.6451C22.6963 68.6151 22.6863 68.5751 22.6863 68.5451C20.5463 53.6051 19.0363 27.5351 22.3463 16.3351C25.6863 5.02513 34.0163 1.43513 40.4163 0.415131C40.4763 0.405131 47.5463 -1.07487 54.7263 1.61513C63.2163 4.79513 68.6163 12.5851 69.1763 22.4551C69.6263 30.3051 70.3863 43.4451 68.5763 67.8851C68.5763 67.9251 68.5663 67.9551 68.5463 67.9851C66.1363 72.3951 57.7163 87.2451 50.7663 93.0851C50.7363 93.1051 50.7063 93.1251 50.6763 93.1351C48.3663 93.8351 45.9563 94.1851 43.4863 94.1851ZM42.4663 93.6651C45.2263 93.7751 47.9263 93.4451 50.4963 92.6751C57.3463 86.8851 65.6563 72.2351 68.0963 67.7951C69.9063 43.4151 69.1463 30.3151 68.6963 22.4851C68.1463 12.8251 62.8663 5.19513 54.5663 2.08513C47.5263 -0.554869 40.6063 0.885131 40.5363 0.905131C40.5163 0.905131 40.4863 0.915131 40.4663 0.915131C34.2463 1.90513 26.0963 5.41513 22.8363 16.4751C19.5463 27.6051 21.0663 53.5851 23.1963 68.4851C24.0463 70.4451 26.4263 75.0651 31.0163 77.9351C27.1363 69.4651 24.4163 59.9451 23.6963 52.3051C21.8663 32.7551 22.2563 19.8451 24.8663 13.9351C27.5763 7.83513 32.4363 3.69513 38.9163 1.95513C42.1463 1.09513 45.4663 0.955131 48.7863 1.56513C53.7263 2.46513 58.2963 4.71513 61.6563 7.92513C65.1163 11.2151 67.4063 19.3751 67.5463 25.0451C67.6563 29.3051 66.9263 63.5651 61.1963 73.3651C54.3763 85.0151 39.2863 81.5451 34.8163 80.2051C33.8963 79.9251 32.9963 79.5751 32.1463 79.1351C35.4863 86.1351 39.2263 91.3951 42.4663 93.6651ZM31.7663 78.3851C32.7663 78.9451 33.8363 79.4051 34.9463 79.7351C39.3263 81.0451 54.1063 84.4451 60.7463 73.1151C66.0763 64.0251 67.1963 31.3651 67.0363 25.0551C66.9063 19.4851 64.6663 11.4851 61.3063 8.27513C58.0163 5.14513 53.5463 2.92513 48.6963 2.05513C45.4463 1.46513 42.2063 1.59513 39.0463 2.43513C32.7163 4.13513 27.9663 8.17513 25.3163 14.1351C22.7363 19.9651 22.3563 32.7851 24.1863 52.2551C24.9063 60.0451 27.7463 69.8051 31.7663 78.3851Z" fill="#020035"/>
<path d="M80.4875 77.8751C80.4875 77.8751 77.3775 79.5451 67.7475 93.5151C58.1175 107.495 46.8775 108.105 39.2875 104.245C35.2075 102.175 31.8275 96.1551 29.2375 89.9651C27.0075 84.6451 25.3575 79.1851 24.3575 75.9951C23.9275 74.6151 23.4275 71.9851 22.9375 68.5451C23.8175 70.5951 26.4075 75.6751 31.5675 78.5651C34.8875 85.6251 38.7975 91.4351 42.3775 93.9151C43.8075 94.9151 45.1875 95.3751 46.4575 95.1751C47.7175 94.9751 49.1175 94.1551 50.6075 92.9051C57.5875 87.0351 65.5875 72.8651 67.7275 68.9551C68.0575 68.3551 68.3875 66.9551 68.3875 66.9551C68.3875 66.9551 70.6975 66.5951 75.2075 68.9951C80.2375 71.6451 80.4875 77.8251 80.4875 77.8751Z" fill="#66D1F2"/>
<path d="M42.3777 93.9151C37.9677 93.7351 33.4577 92.4151 29.2377 89.9651C12.7577 80.3751 12.0977 76.0951 12.0977 76.0951C12.0977 76.0951 12.3877 73.5451 15.4077 70.6751C18.4377 67.8051 22.5877 67.6551 22.5877 67.6551C22.5877 67.6551 22.6977 67.9751 22.9377 68.5251C22.9277 68.5351 22.9377 68.5451 22.9377 68.5451C23.8177 70.5951 26.4077 75.6751 31.5677 78.5651C34.8877 85.6251 38.7977 91.4351 42.3777 93.9151Z" fill="#66D1F2"/>
<path d="M42.3777 94.1651C37.8677 93.9851 33.2877 92.6051 29.1077 90.1851C12.7177 80.6451 11.8777 76.3151 11.8477 76.1351C11.8477 76.1151 11.8477 76.0951 11.8477 76.0651C11.8577 75.9551 12.1777 73.3951 15.2377 70.4951C18.2977 67.5951 22.4077 67.4151 22.5777 67.4051C22.6777 67.4051 22.7877 67.4651 22.8277 67.5751C22.8277 67.5851 22.9377 67.8951 23.1677 68.4251C23.1777 68.4451 23.1777 68.4651 23.1877 68.4851C24.0777 70.5351 26.6477 75.5251 31.6877 78.3451C31.7377 78.3751 31.7677 78.4051 31.7877 78.4551C35.2577 85.8251 39.1677 91.3851 42.5177 93.7051C42.6077 93.7651 42.6477 93.8851 42.6077 93.9851C42.5877 94.0951 42.4877 94.1651 42.3777 94.1651ZM12.3577 76.0851C12.4677 76.4651 13.9877 80.7951 29.3677 89.7451C33.2177 91.9751 37.4177 93.3051 41.5677 93.6151C38.3177 91.0151 34.6477 85.6751 31.3777 78.7451C26.2177 75.8151 23.5977 70.7151 22.7077 68.6451C22.6977 68.6251 22.6977 68.6051 22.6877 68.5951C22.5577 68.2951 22.4677 68.0651 22.4177 67.9251C21.5977 67.9951 18.1477 68.4251 15.5777 70.8651C12.8777 73.4351 12.4077 75.7551 12.3577 76.0851Z" fill="#020035"/>
<path d="M50.6067 93.1551C50.5167 93.1551 50.4367 93.1051 50.3867 93.0251C50.3267 92.9251 50.3567 92.7951 50.4467 92.7151C57.3267 86.9251 65.7067 72.1451 68.1067 67.7551C68.1667 67.6551 68.2767 67.6051 68.3867 67.6351C68.4967 67.6651 68.5767 67.7651 68.5767 67.8751V67.9051C67.6367 80.6151 60.9467 90.0451 50.6767 93.1451C50.6567 93.1551 50.6367 93.1551 50.6067 93.1551ZM67.9767 69.0251C65.1367 74.1251 57.9567 86.4351 51.6767 92.2851C60.7867 89.0251 66.7967 80.4551 67.9767 69.0251Z" fill="#020035"/>
<path d="M24.8663 28.4451C24.8663 28.4451 23.6263 27.1051 22.0163 27.2951C20.4063 27.4851 20.0563 33.1651 21.4363 36.1251C22.8163 39.0851 24.9463 38.7851 26.0163 38.0851C27.0863 37.3851 24.8663 28.4451 24.8663 28.4451Z" fill="white"/>
<path d="M22.1077 35.5451C21.9877 35.5451 21.8877 35.4651 21.8577 35.3451C21.8177 35.1451 21.7277 34.4451 22.2077 33.8151C22.4277 33.5151 22.6977 33.3351 22.9477 33.2251C22.6577 33.0051 22.3477 32.7051 22.0977 32.2851C21.7577 31.7251 21.5977 31.0551 21.6477 30.3951C21.6577 30.2551 21.7677 30.1451 21.9177 30.1651C22.0577 30.1751 22.1577 30.2951 22.1477 30.4351C22.1277 30.7551 22.1477 31.3951 22.5277 32.0351C22.8677 32.6051 23.3377 32.9251 23.6777 33.0851C23.7777 33.1351 23.8377 33.2451 23.8177 33.3551C23.7977 33.4651 23.7077 33.5451 23.5977 33.5651C23.4577 33.5851 22.9577 33.6651 22.6177 34.1251C22.2677 34.5951 22.3377 35.1051 22.3577 35.2551C22.3877 35.3951 22.2977 35.5251 22.1577 35.5451C22.1477 35.5451 22.1277 35.5451 22.1077 35.5451Z" fill="#020035"/>
<path d="M23.688 37.2951C23.9752 37.2951 24.208 37.0623 24.208 36.7751C24.208 36.4879 23.9752 36.2551 23.688 36.2551C23.4008 36.2551 23.168 36.4879 23.168 36.7751C23.168 37.0623 23.4008 37.2951 23.688 37.2951Z" fill="#020035"/>
<path d="M23.6873 37.5351C23.2973 37.5351 22.9673 37.2351 22.9273 36.8451C22.8873 36.4251 23.1973 36.0451 23.6173 36.0051C24.0273 35.9751 24.4173 36.2751 24.4573 36.6951C24.4773 36.8951 24.4173 37.0951 24.2873 37.2551C24.1573 37.4151 23.9773 37.5151 23.7673 37.5351C23.7373 37.5351 23.7173 37.5351 23.6873 37.5351ZM23.4273 36.7951C23.4473 36.9451 23.5773 37.0551 23.7173 37.0351C23.7873 37.0251 23.8473 36.9951 23.8973 36.9351C23.9373 36.8851 23.9673 36.8051 23.9573 36.7351C23.9473 36.6651 23.9173 36.6051 23.8573 36.5551C23.8073 36.5051 23.7373 36.4851 23.6573 36.4951C23.5173 36.5151 23.4073 36.6451 23.4273 36.7951Z" fill="#020035"/>
<path d="M24.4672 38.7851C24.2072 38.7851 23.9472 38.7451 23.6972 38.6751C22.6772 38.3851 21.8472 37.5551 21.2172 36.2151C20.0372 33.6951 20.1272 29.4151 21.0272 27.8151C21.2872 27.3451 21.6172 27.0851 21.9972 27.0351C23.7272 26.8351 25.0072 28.2051 25.0572 28.2651C25.0872 28.2951 25.1072 28.3351 25.1172 28.3751C25.6472 30.5051 27.2972 37.5351 26.1672 38.2751C25.6472 38.6151 25.0472 38.7851 24.4672 38.7851ZM22.3172 27.5251C22.2272 27.5251 22.1372 27.5251 22.0372 27.5451C21.7772 27.5751 21.5672 27.8451 21.4472 28.0751C20.6172 29.5651 20.5672 33.6851 21.6572 36.0251C22.2172 37.2351 22.9472 37.9651 23.8272 38.2151C24.4972 38.4051 25.2672 38.2751 25.8772 37.8751C26.4372 37.5051 25.6772 32.7751 24.6372 28.5851C24.4272 28.3651 23.4972 27.5251 22.3172 27.5251Z" fill="#020035"/>
<path d="M66.2364 28.4451C66.2364 28.4451 67.4764 27.1051 69.0864 27.2951C70.6964 27.4851 71.0464 33.1651 69.6664 36.1251C68.2864 39.0851 66.1564 38.7851 65.0864 38.0851C64.0164 37.3851 66.2364 28.4451 66.2364 28.4451Z" fill="white"/>
<path d="M68.9851 35.5451C68.9651 35.5451 68.9551 35.5451 68.9351 35.5451C68.7951 35.5151 68.7151 35.3851 68.7351 35.2551C68.7551 35.1551 68.8451 34.6051 68.4851 34.1251C68.1451 33.6751 67.6451 33.5851 67.5051 33.5651C67.3951 33.5551 67.3051 33.4651 67.2851 33.3551C67.2651 33.2451 67.3251 33.1351 67.4251 33.0851C67.7551 32.9251 68.2251 32.6051 68.5751 32.0351C68.9651 31.3951 68.9851 30.7551 68.9551 30.4351C68.9451 30.2951 69.0451 30.1751 69.1851 30.1651C69.3151 30.1351 69.4451 30.2551 69.4551 30.3951C69.4851 30.7751 69.4551 31.5251 69.0051 32.2851C68.7551 32.7051 68.4451 33.0051 68.1551 33.2251C68.3951 33.3351 68.6651 33.5151 68.8951 33.8151C69.3751 34.4551 69.2751 35.1451 69.2351 35.3451C69.2051 35.4651 69.1051 35.5451 68.9851 35.5451Z" fill="#020035"/>
<path d="M67.4067 37.2951C67.6939 37.2951 67.9267 37.0623 67.9267 36.7751C67.9267 36.4879 67.6939 36.2551 67.4067 36.2551C67.1195 36.2551 66.8867 36.4879 66.8867 36.7751C66.8867 37.0623 67.1195 37.2951 67.4067 37.2951Z" fill="#020035"/>
<path d="M67.4163 37.5351C67.3863 37.5351 67.3663 37.5351 67.3363 37.5351C67.1263 37.5151 66.9463 37.4151 66.8163 37.2551C66.6863 37.0951 66.6263 36.8951 66.6463 36.6951C66.6863 36.2751 67.0763 35.9751 67.4863 36.0051C67.9063 36.0451 68.2163 36.4251 68.1763 36.8451C68.1563 37.0551 68.0563 37.2351 67.8963 37.3651C67.7563 37.4751 67.5863 37.5351 67.4163 37.5351ZM67.4064 36.5051C67.2664 36.5051 67.1563 36.6051 67.1363 36.7451C67.1263 36.8151 67.1463 36.8851 67.1963 36.9451C67.2363 37.0051 67.3063 37.0351 67.3763 37.0451C67.4563 37.0551 67.5163 37.0351 67.5763 36.9851C67.6363 36.9351 67.6663 36.8751 67.6763 36.8051C67.6863 36.7351 67.6663 36.6651 67.6163 36.6051C67.5763 36.5451 67.5063 36.5151 67.4363 36.5051C67.4263 36.5051 67.4164 36.5051 67.4064 36.5051Z" fill="#020035"/>
<path d="M66.6359 38.7851C66.0459 38.7851 65.4459 38.6151 64.9459 38.2751C63.8159 37.5351 65.4659 30.5051 65.9959 28.3751C66.0059 28.3351 66.0259 28.2951 66.0559 28.2651C66.1059 28.2051 67.4059 26.8451 69.1159 27.0351C69.4959 27.0751 69.8259 27.3451 70.0859 27.8151C70.9759 29.4151 71.0659 33.6951 69.8959 36.2151C69.2659 37.5551 68.4359 38.3851 67.4159 38.6751C67.1559 38.7551 66.8959 38.7851 66.6359 38.7851ZM66.4659 28.5651C65.4259 32.7651 64.6559 37.4851 65.2259 37.8551C65.8359 38.2551 66.6059 38.3851 67.2759 38.1951C68.1459 37.9451 68.8759 37.2151 69.4459 36.0051C70.5359 33.6751 70.4859 29.5551 69.6559 28.0551C69.5259 27.8351 69.3259 27.5551 69.0659 27.5251C67.7459 27.3951 66.6859 28.3551 66.4659 28.5651Z" fill="#020035"/>
<path d="M67.2867 24.6951C67.2867 24.6951 65.9267 39.7251 64.8367 44.9151C62.9967 53.7351 54.5367 61.9151 46.0267 61.9151C33.8167 61.9151 28.6267 53.7251 26.4667 43.4551C24.3067 33.1851 23.4667 23.7051 23.8267 22.9851C24.1867 22.2651 25.3367 14.3651 31.8767 12.4951C38.4167 10.6251 55.0067 5.88513 60.3967 12.4951C65.7867 19.1051 67.2867 24.6951 67.2867 24.6951Z" fill="white"/>
<path d="M46.0165 62.1651C35.3265 62.1651 28.8465 56.0651 26.2165 43.5051C24.1765 33.7951 23.1465 23.7751 23.5965 22.8651C23.6365 22.7851 23.7065 22.5151 23.7965 22.2151C24.3565 20.1551 26.0565 13.8951 31.8065 12.2551C38.1765 10.4351 55.0965 5.60513 60.5865 12.3351C65.9465 18.9051 67.5165 24.5851 67.5265 24.6351C67.5365 24.6651 67.5365 24.6951 67.5365 24.7251C67.5265 24.8751 66.1665 39.8351 65.0865 44.9751C63.1365 54.2951 54.4065 62.1651 46.0165 62.1651ZM50.4665 9.34513C43.7565 9.34513 35.8365 11.6051 31.9365 12.7251C26.4665 14.2851 24.8765 20.1351 24.2765 22.3351C24.1665 22.7251 24.1065 22.9551 24.0465 23.0851C23.7365 23.8051 24.5865 33.2851 26.7065 43.3951C29.2865 55.6851 35.6065 61.6551 46.0165 61.6551C54.1765 61.6551 62.6865 53.9651 64.5865 44.8651C65.6265 39.8851 66.9365 25.6351 67.0265 24.7151C66.8765 24.1951 65.2365 18.8251 60.1865 12.6351C58.1965 10.1951 54.5565 9.34513 50.4665 9.34513Z" fill="#020035"/>
<path d="M45.377 43.6951C45.237 43.6951 45.127 43.5851 45.127 43.4451V35.6851C45.127 35.5451 45.237 35.4351 45.377 35.4351C45.517 35.4351 45.627 35.5451 45.627 35.6851V43.4451C45.627 43.5851 45.517 43.6951 45.377 43.6951Z" fill="#020035"/>
<path d="M40.0165 45.1751C39.4965 45.1751 38.8665 45.0551 38.2865 44.6151C37.0065 43.6451 37.2465 41.2551 37.2565 41.1551C37.2765 41.0151 37.3965 40.9151 37.5365 40.9351C37.6765 40.9451 37.7765 41.0751 37.7565 41.2051C37.7565 41.2251 37.5365 43.4151 38.5965 44.2151C39.6465 45.0151 40.9965 44.5051 41.0165 44.5051C41.1465 44.4551 41.2865 44.5151 41.3365 44.6451C41.3865 44.7751 41.3265 44.9151 41.1965 44.9651C41.1565 44.9851 40.6665 45.1751 40.0165 45.1751Z" fill="#020035"/>
<path d="M38.9665 37.0551C39.2813 37.0551 39.5365 36.6835 39.5365 36.2251C39.5365 35.7667 39.2813 35.3951 38.9665 35.3951C38.6517 35.3951 38.3965 35.7667 38.3965 36.2251C38.3965 36.6835 38.6517 37.0551 38.9665 37.0551Z" fill="#020035"/>
<path d="M38.9665 37.3051C38.5065 37.3051 38.1465 36.8351 38.1465 36.2251C38.1465 35.6151 38.5065 35.1451 38.9665 35.1451C39.4265 35.1451 39.7965 35.6151 39.7965 36.2251C39.7965 36.8351 39.4265 37.3051 38.9665 37.3051ZM38.9665 35.6551C38.8165 35.6551 38.6465 35.9051 38.6465 36.2351C38.6465 36.5651 38.8165 36.8151 38.9665 36.8151C39.1165 36.8151 39.2965 36.5651 39.2965 36.2351C39.2965 35.9051 39.1165 35.6551 38.9665 35.6551Z" fill="#020035"/>
<path d="M38.8272 36.6251C38.8172 36.6251 38.7972 36.6251 38.7872 36.6251C38.7472 36.6151 37.8572 36.4651 36.8672 35.9951C35.8772 35.5251 35.2172 34.8251 35.1972 34.7951C35.1072 34.6951 35.1072 34.5351 35.2072 34.4451C35.3072 34.3551 35.4672 34.3551 35.5572 34.4551C35.5672 34.4651 36.1772 35.1151 37.0772 35.5451C37.9972 35.9851 38.8572 36.1351 38.8572 36.1351C38.9972 36.1551 39.0872 36.2851 39.0572 36.4251C39.0572 36.5351 38.9472 36.6251 38.8272 36.6251Z" fill="#020035"/>
<path d="M50.2868 37.0551C50.6016 37.0551 50.8568 36.6835 50.8568 36.2251C50.8568 35.7667 50.6016 35.3951 50.2868 35.3951C49.972 35.3951 49.7168 35.7667 49.7168 36.2251C49.7168 36.6835 49.972 37.0551 50.2868 37.0551Z" fill="#020035"/>
<path d="M50.287 37.3051C49.827 37.3051 49.457 36.8351 49.457 36.2251C49.457 35.6151 49.817 35.1451 50.287 35.1451C50.747 35.1451 51.107 35.6151 51.107 36.2251C51.107 36.8351 50.757 37.3051 50.287 37.3051ZM50.287 35.6551C50.137 35.6551 49.957 35.9051 49.957 36.2351C49.957 36.5651 50.127 36.8151 50.287 36.8151C50.447 36.8151 50.607 36.5651 50.607 36.2351C50.607 35.9051 50.447 35.6551 50.287 35.6551Z" fill="#020035"/>
<path d="M50.4266 36.6251C50.3066 36.6251 50.1966 36.5351 50.1766 36.4151C50.1566 36.2751 50.2466 36.1551 50.3766 36.1251C50.3866 36.1251 51.2466 35.9751 52.1566 35.5351C53.0566 35.1051 53.6766 34.4551 53.6766 34.4451C53.7766 34.3451 53.9266 34.3351 54.0266 34.4351C54.1266 34.5251 54.1366 34.6851 54.0366 34.7851C54.0066 34.8151 53.3566 35.5051 52.3666 35.9851C51.3866 36.4551 50.4866 36.6151 50.4466 36.6151C50.4566 36.6251 50.4366 36.6251 50.4266 36.6251Z" fill="#020035"/>
<path d="M67.5368 30.0551C67.5368 30.0551 66.7768 30.7051 64.9168 31.0651C62.9568 31.4351 61.7968 31.5751 61.7968 31.5751C61.7968 31.5751 61.6269 28.4051 60.9068 25.3151C60.1868 22.2251 59.0368 19.3351 59.0368 19.3351C59.0368 19.3351 59.7068 24.9951 59.8168 27.8651C59.9268 30.7351 59.9268 31.9451 59.9268 31.9451C59.9268 31.9451 53.6068 33.2051 46.0268 33.2051C38.4468 33.2051 36.3668 32.2351 36.3668 32.2351C36.3668 32.2351 35.8068 28.6751 36.1668 26.2051C36.4968 23.9651 36.9768 22.1451 36.9768 22.1451C36.9768 22.1451 35.5369 24.4851 34.8969 27.7551C34.3169 30.7051 34.4869 31.9751 34.4869 31.9751C34.4869 31.9751 31.9869 31.7651 29.2569 30.7051C27.0769 29.8551 25.9568 29.2051 25.9568 29.2051C25.9568 29.2051 25.5768 25.1251 26.4068 21.7851C27.2368 18.4451 27.6969 17.5151 27.6969 17.5151C27.6969 17.5151 25.9769 21.0151 25.2869 24.0651C24.7769 26.3251 24.8768 28.9751 24.8768 28.9751L23.2368 28.1851C23.2368 28.1851 21.8868 16.6751 27.9068 9.08513C33.5068 2.01513 41.3769 1.71513 45.6569 1.71513C49.7069 1.71513 60.3669 3.76513 64.4069 12.1651C68.4569 20.5751 67.5368 30.0551 67.5368 30.0551Z" fill="#020035"/>
<path d="M46.0273 33.4451C38.4773 33.4451 36.3473 32.4951 36.2573 32.4551C36.1773 32.4151 36.1273 32.3451 36.1173 32.2651C36.0973 32.1151 35.5573 28.6351 35.9173 26.1651C36.0273 25.4251 36.1473 24.7351 36.2673 24.1251C35.8673 25.0851 35.4173 26.3551 35.1373 27.7951C34.5773 30.6551 34.7273 31.9251 34.7373 31.9351C34.7473 32.0151 34.7273 32.0851 34.6673 32.1451C34.6173 32.1951 34.5373 32.2351 34.4673 32.2251C34.3673 32.2151 31.8973 32.0051 29.1773 30.9351C27.0073 30.0851 25.8873 29.4451 25.8473 29.4251C25.7773 29.3851 25.7273 29.3151 25.7273 29.2351C25.7173 29.0751 25.3973 25.5551 26.0473 22.3651C25.8573 22.9551 25.6873 23.5551 25.5573 24.1351C25.0573 26.3451 25.1573 28.9551 25.1573 28.9851C25.1573 29.0751 25.1173 29.1551 25.0473 29.2051C24.9773 29.2551 24.8773 29.2551 24.7973 29.2251L23.1573 28.4351C23.0773 28.3951 23.0273 28.3251 23.0173 28.2351C23.0073 28.1151 21.7273 16.5351 27.7373 8.94513C33.6373 1.46513 42.0673 1.46513 45.6673 1.46513C49.5273 1.46513 60.4673 3.36513 64.6373 12.0551C68.6573 20.4251 67.7973 29.9751 67.7873 30.0751C67.7773 30.1351 67.7473 30.1951 67.6973 30.2451C67.6673 30.2751 66.8673 30.9451 64.9573 31.3051C63.0173 31.6751 61.8273 31.8151 61.8173 31.8151C61.7473 31.8251 61.6773 31.8051 61.6273 31.7551C61.5773 31.7151 61.5473 31.6451 61.5373 31.5751C61.5373 31.5451 61.3573 28.3851 60.6573 25.3551C60.3173 23.9051 59.8773 22.4851 59.5173 21.3951C59.7273 23.3151 59.9973 26.0951 60.0573 27.8451C60.1673 30.6951 60.1673 31.9251 60.1673 31.9351C60.1673 32.0551 60.0873 32.1551 59.9673 32.1851C59.9073 32.1951 53.5473 33.4451 46.0273 33.4451ZM36.5873 32.0451C37.1273 32.2351 39.5873 32.9451 46.0273 32.9451C52.7473 32.9451 58.5373 31.9451 59.6773 31.7351C59.6773 31.2751 59.6573 30.0551 59.5673 27.8751C59.4573 25.0451 58.7973 19.4151 58.7873 19.3651C58.7773 19.2351 58.8573 19.1251 58.9773 19.0951C59.0973 19.0651 59.2273 19.1251 59.2673 19.2451C59.2773 19.2751 60.4273 22.1851 61.1473 25.2551C61.7373 27.8151 61.9673 30.4551 62.0273 31.2951C62.4773 31.2351 63.4773 31.0851 64.8673 30.8251C66.3073 30.5551 67.0673 30.0951 67.2973 29.9351C67.3773 28.8551 67.9173 20.0551 64.1873 12.2851C60.1273 3.81513 49.4373 1.96513 45.6673 1.96513C42.1373 1.96513 33.8773 1.96513 28.1073 9.24513C22.5773 16.2351 23.3573 26.7151 23.4773 28.0351L24.6273 28.5851C24.6173 27.7451 24.6573 25.7851 25.0473 24.0251C25.7173 21.0351 27.3873 17.6051 27.4673 17.4251V17.4151C27.5273 17.2951 27.6773 17.2451 27.7973 17.3051C27.9173 17.3651 27.9673 17.5151 27.9073 17.6351C27.8873 17.6751 27.4273 18.6651 26.6373 21.8551C25.9173 24.7851 26.1273 28.3351 26.1773 29.0551C26.5073 29.2351 27.5773 29.7951 29.3273 30.4751C31.4573 31.3051 33.4573 31.6051 34.1873 31.6951C34.1673 31.1451 34.1873 29.8751 34.6173 27.7051C35.2573 24.4251 36.6773 22.1051 36.7373 22.0051C36.8073 21.8951 36.9373 21.8551 37.0473 21.9051C37.1573 21.9551 37.2173 22.0751 37.1873 22.1951C37.1873 22.2151 36.7073 24.0251 36.3873 26.2251C36.1073 28.3651 36.4973 31.3651 36.5873 32.0451Z" fill="#020035"/>
<path d="M29.9168 21.2351C29.9068 21.2351 29.8968 21.2351 29.8868 21.2351C29.7468 21.2151 29.6568 21.0951 29.6668 20.9551C29.6768 20.8651 29.9768 18.6651 30.9068 16.8351C32.1368 14.4151 33.5668 13.4151 33.6268 13.3751C33.7468 13.2951 33.8968 13.3251 33.9768 13.4351C34.0568 13.5451 34.0268 13.7051 33.9168 13.7851C33.9068 13.7951 32.5268 14.7651 31.3568 17.0551C30.4668 18.8051 30.1768 20.9951 30.1668 21.0151C30.1468 21.1451 30.0368 21.2351 29.9168 21.2351Z" fill="white"/>
<path d="M32.4871 20.7451C32.4771 20.7451 32.4671 20.7451 32.4571 20.7451C32.3171 20.7251 32.2271 20.6051 32.2371 20.4651C32.2471 20.3951 32.4571 18.7851 33.1471 17.4451C34.0471 15.6651 35.1071 14.9351 35.1471 14.9051C35.2671 14.8251 35.4171 14.8551 35.4971 14.9651C35.5771 15.0751 35.5471 15.2351 35.4371 15.3151C35.4271 15.3251 34.4371 16.0251 33.5971 17.6751C32.9571 18.9451 32.7371 20.5251 32.7371 20.5351C32.7171 20.6551 32.6171 20.7451 32.4871 20.7451Z" fill="white"/>
<path d="M0.305859 126.695C0.285859 127.005 0.275859 127.295 0.265859 127.575C0.255859 127.375 0.255859 127.165 0.255859 126.955C0.255859 126.875 0.275859 126.785 0.305859 126.695Z" fill="#020035"/>
<path d="M0.265859 127.825C0.135859 127.825 0.0258594 127.725 0.0158594 127.585C0.00585938 127.385 0.00585938 127.165 0.00585938 126.955C0.00585938 126.855 0.0258594 126.745 0.0658594 126.615C0.105859 126.495 0.225859 126.415 0.345859 126.445C0.465859 126.465 0.555859 126.575 0.545859 126.705C0.525859 126.975 0.515859 127.225 0.505859 127.465V127.575C0.515859 127.715 0.405859 127.825 0.265859 127.825Z" fill="#020035"/>
<path d="M10.5061 138.225C8.24612 138.225 6.06612 137.555 4.21612 136.275C2.14612 134.835 0.606122 132.675 0.306122 130.765C-0.0538784 128.475 10.1461 119.345 22.4961 108.545L23.1661 107.965C23.2461 107.905 23.3461 107.885 23.4361 107.925C23.5261 107.965 23.5861 108.055 23.5761 108.155C23.5361 110.145 23.9261 113.095 25.9561 115.825C28.5461 119.285 32.9661 120.425 35.3761 120.795C35.4761 120.805 35.5461 120.875 35.5761 120.965C35.6061 121.055 35.5761 121.155 35.5061 121.225L34.6161 122.035C25.5761 130.315 18.4461 136.855 12.8761 137.985C12.0861 138.145 11.2861 138.225 10.5061 138.225ZM23.0761 108.695L22.8261 108.915C13.9161 116.705 0.446122 128.485 0.796122 130.685C1.07612 132.465 2.53612 134.495 4.49612 135.855C6.18612 137.025 8.98612 138.255 12.7761 137.485C18.2161 136.385 25.3061 129.885 34.2861 121.655L34.7961 121.185C32.2361 120.725 28.0861 119.465 25.5661 116.105C23.6161 113.515 23.1261 110.735 23.0761 108.695Z" fill="#020035"/>
<path d="M40.6874 91.8851H57.4474C58.0474 91.8851 58.5274 91.4051 58.5274 90.8051V72.5951C58.5274 71.9951 58.0474 71.5151 57.4474 71.5151H40.6874C40.0874 71.5151 39.6074 71.9951 39.6074 72.5951V90.8051C39.6074 91.4051 40.0974 91.8851 40.6874 91.8851Z" fill="#FBAB3E"/>
<path d="M57.4474 92.1351H40.6874C39.9574 92.1351 39.3574 91.5351 39.3574 90.8051V72.5951C39.3574 71.8651 39.9574 71.2651 40.6874 71.2651H57.4374C58.1674 71.2651 58.7674 71.8651 58.7674 72.5951V90.8051C58.7674 91.5351 58.1774 92.1351 57.4474 92.1351ZM40.6874 71.7651C40.2274 71.7651 39.8574 72.1351 39.8574 72.5951V90.8051C39.8574 91.2651 40.2274 91.6351 40.6874 91.6351H57.4374C57.8974 91.6351 58.2674 91.2651 58.2674 90.8051V72.5951C58.2674 72.1351 57.8974 71.7651 57.4374 71.7651H40.6874Z" fill="#020035"/>
<path d="M41.5259 77.8751H44.6059C44.7559 77.8751 44.8759 77.7551 44.8759 77.6051V73.5151C44.8759 73.3651 44.7559 73.2451 44.6059 73.2451H41.5259C41.3759 73.2451 41.2559 73.3651 41.2559 73.5151V77.6051C41.2559 77.7551 41.3759 77.8751 41.5259 77.8751Z" fill="#020035"/>
<path d="M44.5961 78.1251H41.5161C41.2261 78.1251 40.9961 77.8951 40.9961 77.6051V73.5151C40.9961 73.2251 41.2261 72.9951 41.5161 72.9951H44.5961C44.8861 72.9951 45.1161 73.2251 45.1161 73.5151V77.6051C45.1161 77.8951 44.8861 78.1251 44.5961 78.1251ZM41.5261 73.4951L41.5061 77.6051L41.5261 77.6251H44.6061L44.6261 73.5151L41.5261 73.4951Z" fill="#020035"/>
<path d="M47.8569 30.0151C47.7969 30.0151 47.7369 29.9951 47.6969 29.9551C47.5969 29.8651 47.5768 29.7051 47.6668 29.6051C47.7268 29.5351 49.1669 27.8651 51.7669 27.8251C51.8069 27.8251 51.8369 27.8251 51.8769 27.8251C54.3869 27.8251 56.1569 29.0751 56.2269 29.1351C56.3369 29.2151 56.3669 29.3751 56.2869 29.4851C56.2069 29.5951 56.0468 29.6251 55.9368 29.5451C55.9168 29.5351 54.1669 28.3051 51.7768 28.3351C49.4168 28.3651 48.0669 29.9151 48.0469 29.9351C47.9969 29.9851 47.9269 30.0151 47.8569 30.0151Z" fill="white"/>
<path d="M39.9872 30.0151C39.9172 30.0151 39.8472 29.9851 39.7972 29.9251C39.7872 29.9051 38.4272 28.3551 36.0672 28.3251C36.0372 28.3251 36.0072 28.3251 35.9672 28.3251C33.6172 28.3251 31.9172 29.5251 31.8972 29.5351C31.7872 29.6151 31.6272 29.5951 31.5472 29.4751C31.4672 29.3651 31.4972 29.2051 31.6072 29.1251C31.6872 29.0751 33.4472 27.8151 35.9572 27.8151C35.9972 27.8151 36.0272 27.8151 36.0672 27.8151C38.6672 27.8551 40.1071 29.5251 40.1671 29.5951C40.2571 29.7051 40.2472 29.8551 40.1372 29.9451C40.1072 29.9951 40.0472 30.0151 39.9872 30.0151Z" fill="white"/>
<path d="M38.9659 37.0351C39.0818 37.0351 39.1759 36.8874 39.1759 36.7051C39.1759 36.5229 39.0818 36.3751 38.9659 36.3751C38.8499 36.3751 38.7559 36.5229 38.7559 36.7051C38.7559 36.8874 38.8499 37.0351 38.9659 37.0351Z" fill="white"/>
<path d="M50.2862 37.0351C50.4022 37.0351 50.4962 36.8874 50.4962 36.7051C50.4962 36.5229 50.4022 36.3751 50.2862 36.3751C50.1702 36.3751 50.0762 36.5229 50.0762 36.7051C50.0762 36.8874 50.1702 37.0351 50.2862 37.0351Z" fill="white"/>
<path d="M67.6068 37.0851C67.6841 37.0851 67.7468 37.0224 67.7468 36.9451C67.7468 36.8678 67.6841 36.8051 67.6068 36.8051C67.5295 36.8051 67.4668 36.8678 67.4668 36.9451C67.4668 37.0224 67.5295 37.0851 67.6068 37.0851Z" fill="white"/>
<path d="M23.4466 37.1951C23.524 37.1951 23.5866 37.1324 23.5866 37.0551C23.5866 36.9778 23.524 36.9151 23.4466 36.9151C23.3693 36.9151 23.3066 36.9778 23.3066 37.0551C23.3066 37.1324 23.3693 37.1951 23.4466 37.1951Z" fill="white"/>
<path d="M46.6877 106.695C40.4377 106.695 36.2177 103.545 34.1277 99.8851C31.0577 94.5151 29.0377 90.1151 29.0177 90.0651C28.9577 89.9351 29.0177 89.7951 29.1377 89.7351C29.2577 89.6751 29.4077 89.7351 29.4677 89.8551C29.4877 89.8951 31.4977 94.2751 34.5577 99.6251C37.3177 104.455 43.9277 108.355 54.1777 104.825C62.2277 102.055 68.7477 92.3051 72.2577 87.0651C73.0277 85.9151 73.6877 84.9251 74.2077 84.2351C76.8077 80.8151 79.6377 78.2751 80.2177 77.7651C80.0677 76.8951 79.0777 72.0451 76.0677 69.7951C73.2077 67.6551 69.5777 67.2651 68.6277 67.2051L68.5777 67.8851C68.5677 68.0251 68.4577 68.1351 68.3077 68.1151C68.1677 68.1051 68.0677 67.9851 68.0777 67.8451L68.1477 66.9151C68.1577 66.7851 68.2677 66.6851 68.3977 66.6851C68.3977 66.6851 68.3977 66.6851 68.4077 66.6851C68.5877 66.6851 72.9377 66.8151 76.3777 69.3951C79.8377 71.9851 80.7077 77.5951 80.7377 77.8251C80.7477 77.9151 80.7177 77.9951 80.6577 78.0551C80.6277 78.0851 77.4777 80.7751 74.6177 84.5451C74.1077 85.2151 73.4477 86.2051 72.6777 87.3451C68.8877 93.0051 62.5577 102.475 54.3477 105.295C51.5277 106.275 48.9677 106.695 46.6877 106.695Z" fill="#020035"/>
<path d="M61.8568 91.3451C61.4568 93.7851 54.5268 103.845 41.7668 115.215C40.9668 115.925 40.1868 116.635 39.4168 117.325C38.6368 118.025 37.8868 118.715 37.1368 119.395C36.5268 119.955 35.9268 120.495 35.3368 121.035C33.0168 120.675 28.4268 119.525 25.7568 115.965C23.6968 113.205 23.2868 110.225 23.3268 108.145C25.3368 106.385 27.1668 104.775 28.6768 103.425C28.8668 103.255 29.0468 103.085 29.2268 102.925C30.4768 101.795 31.4568 100.875 32.0668 100.235C36.8068 95.2751 35.6768 91.5651 35.6168 89.4551C35.5668 87.3551 35.6268 85.5551 37.2868 83.7451C38.4968 82.4451 39.1968 82.0951 39.4968 82.0051C39.5468 81.9951 39.5868 81.9851 39.6068 81.9851C39.6368 81.9751 39.6568 81.9751 39.6568 81.9751V86.0651C39.6568 86.0651 40.1968 88.0051 42.6268 87.4151C45.0468 86.8151 50.8368 84.6051 53.4568 81.9751C56.0768 79.3451 56.8468 78.7351 57.8768 79.3851C58.8968 80.0351 58.8968 82.2951 58.8968 82.2951C58.8968 82.2951 60.2268 82.2351 60.9468 83.3151C61.9768 84.8851 61.2168 87.8951 61.2168 87.8951C61.2168 87.8951 62.2868 88.7051 61.8568 91.3451Z" fill="white"/>
<path d="M35.3368 121.285C35.3268 121.285 35.3068 121.285 35.2968 121.285C32.8168 120.905 28.2568 119.715 25.5568 116.115C23.4368 113.275 23.0368 110.205 23.0768 108.145C23.0768 108.075 23.1068 108.005 23.1568 107.965C25.1668 106.205 26.9968 104.595 28.5068 103.245L29.0568 102.745C30.3968 101.535 31.3168 100.655 31.8868 100.065C35.9068 95.8551 35.6268 92.5851 35.4368 90.4151C35.4068 90.0651 35.3768 89.7551 35.3668 89.4651C35.3168 87.2551 35.4068 85.4251 37.1068 83.5751C38.3568 82.2351 39.0968 81.8651 39.4268 81.7651C39.4368 81.7651 39.4768 81.7551 39.4868 81.7551C39.5168 81.7451 39.5468 81.7451 39.5668 81.7451C39.5968 81.7351 39.6368 81.7351 39.6468 81.7351C39.7868 81.7351 39.8968 81.8451 39.8968 81.9851V86.0351C39.9768 86.2651 40.5368 87.6751 42.5568 87.1751C45.0368 86.5651 50.7268 84.3551 53.2668 81.8051C55.8168 79.2451 56.7668 78.4051 57.9968 79.1751C58.9168 79.7651 59.0968 81.4251 59.1268 82.0551C59.5868 82.0951 60.5468 82.2851 61.1468 83.1751C62.1068 84.6351 61.6268 87.1751 61.4868 87.8151C61.7768 88.1351 62.4668 89.1451 62.0968 91.3851C61.6768 93.9251 54.5868 104.125 41.9268 115.405C41.4168 115.865 40.9068 116.315 40.4068 116.765L39.5768 117.515C38.7968 118.215 38.0368 118.905 37.2968 119.585C36.9668 119.885 36.6368 120.185 36.3168 120.485L35.4968 121.225C35.4668 121.265 35.4068 121.285 35.3368 121.285ZM23.5768 108.265C23.5568 110.255 23.9568 113.145 25.9568 115.815C28.5068 119.215 32.8268 120.375 35.2568 120.765L35.9868 120.105C36.3168 119.815 36.6368 119.515 36.9668 119.205C37.7068 118.525 38.4668 117.835 39.2468 117.135L40.0768 116.385C40.5768 115.935 41.0768 115.475 41.5968 115.025C54.1668 103.825 61.1968 93.7751 61.6068 91.3051C62.0068 88.8751 61.0668 88.1051 61.0568 88.0951C60.9768 88.0351 60.9468 87.9351 60.9668 87.8351C60.9768 87.8051 61.6868 84.9151 60.7268 83.4551C60.0968 82.5151 58.9068 82.5451 58.8968 82.5451C58.8068 82.5451 58.7668 82.5251 58.7168 82.4751C58.6668 82.4251 58.6368 82.3651 58.6368 82.2951C58.6368 81.7051 58.4768 80.0651 57.7368 79.5951C56.9168 79.0751 56.3368 79.4351 53.6268 82.1551C51.0168 84.7751 45.2068 87.0351 42.6768 87.6651C40.0368 88.3051 39.4068 86.1651 39.4068 86.1451C39.3968 86.1251 39.3968 86.1051 39.3968 86.0751V82.3151C39.0668 82.4651 38.4468 82.8551 37.4568 83.9251C35.8868 85.6351 35.7968 87.2951 35.8568 89.4551C35.8668 89.7351 35.8968 90.0451 35.9168 90.3751C36.1168 92.6251 36.4168 96.0351 32.2368 100.415C31.6668 101.015 30.7368 101.895 29.3868 103.115L28.8368 103.615C27.3568 104.945 25.5568 106.525 23.5768 108.265Z" fill="#020035"/>
<path d="M54.5362 90.2151C54.4662 90.2151 54.3962 90.1851 54.3562 90.1351C54.2662 90.0351 54.2662 89.8751 54.3762 89.7851C54.4062 89.7551 57.5662 86.8551 58.2862 84.1251C58.7162 82.4951 58.6162 81.7251 58.6162 81.7151C58.5962 81.5751 58.6962 81.4551 58.8262 81.4351C58.9562 81.4151 59.0862 81.5051 59.1062 81.6451C59.1162 81.6751 59.2262 82.5151 58.7662 84.2551C58.0062 87.1351 54.8362 90.0351 54.7062 90.1551C54.6562 90.1951 54.5962 90.2151 54.5362 90.2151Z" fill="#020035"/>
<path d="M58.017 93.7651C57.957 93.7651 57.907 93.7451 57.857 93.7051C57.757 93.6151 57.737 93.4551 57.827 93.3551C57.837 93.3351 59.277 91.6351 59.817 90.7951C60.607 89.5551 60.967 87.8651 60.967 87.8451C60.997 87.7151 61.117 87.6251 61.267 87.6551C61.397 87.6851 61.487 87.8151 61.457 87.9551C61.437 88.0251 61.077 89.7551 60.237 91.0751C59.677 91.9451 58.267 93.6151 58.207 93.6851C58.157 93.7351 58.087 93.7651 58.017 93.7651Z" fill="#020035"/>
<path d="M33.6764 101.115C34.4275 101.115 35.0364 100.506 35.0364 99.7551C35.0364 99.004 34.4275 98.3951 33.6764 98.3951C32.9253 98.3951 32.3164 99.004 32.3164 99.7551C32.3164 100.506 32.9253 101.115 33.6764 101.115Z" fill="#020035"/>
<path d="M33.6764 101.365C32.7864 101.365 32.0664 100.645 32.0664 99.7551C32.0664 98.8651 32.7864 98.1451 33.6764 98.1451C34.5664 98.1451 35.2864 98.8651 35.2864 99.7551C35.2864 100.645 34.5564 101.365 33.6764 101.365ZM33.6764 98.6551C33.0664 98.6551 32.5664 99.1551 32.5664 99.7651C32.5664 100.375 33.0664 100.875 33.6764 100.875C34.2864 100.875 34.7864 100.375 34.7864 99.7651C34.7864 99.1551 34.2864 98.6551 33.6764 98.6551Z" fill="#020035"/>
<path d="M35.026 104.245C35.7771 104.245 36.386 103.636 36.386 102.885C36.386 102.134 35.7771 101.525 35.026 101.525C34.2749 101.525 33.666 102.134 33.666 102.885C33.666 103.636 34.2749 104.245 35.026 104.245Z" fill="#020035"/>
<path d="M35.026 104.495C34.136 104.495 33.416 103.775 33.416 102.885C33.416 101.995 34.136 101.275 35.026 101.275C35.916 101.275 36.636 101.995 36.636 102.885C36.636 103.775 35.916 104.495 35.026 104.495ZM35.026 101.775C34.416 101.775 33.916 102.275 33.916 102.885C33.916 103.495 34.416 103.995 35.026 103.995C35.636 103.995 36.136 103.495 36.136 102.885C36.136 102.275 35.636 101.775 35.026 101.775Z" fill="#020035"/>
<path d="M37.1862 106.825C37.9373 106.825 38.5462 106.216 38.5462 105.465C38.5462 104.714 37.9373 104.105 37.1862 104.105C36.4351 104.105 35.8262 104.714 35.8262 105.465C35.8262 106.216 36.4351 106.825 37.1862 106.825Z" fill="#020035"/>
<path d="M37.1862 107.065C36.2962 107.065 35.5762 106.345 35.5762 105.455C35.5762 104.565 36.2962 103.845 37.1862 103.845C38.0762 103.845 38.7962 104.565 38.7962 105.455C38.7962 106.345 38.0662 107.065 37.1862 107.065ZM37.1862 104.355C36.5762 104.355 36.0762 104.855 36.0762 105.465C36.0762 106.075 36.5762 106.575 37.1862 106.575C37.7962 106.575 38.2962 106.075 38.2962 105.465C38.2962 104.855 37.7962 104.355 37.1862 104.355Z" fill="#020035"/>
<path d="M39.8971 108.865C40.6482 108.865 41.2571 108.256 41.2571 107.505C41.2571 106.754 40.6482 106.145 39.8971 106.145C39.146 106.145 38.5371 106.754 38.5371 107.505C38.5371 108.256 39.146 108.865 39.8971 108.865Z" fill="#020035"/>
<path d="M39.8971 109.115C39.0071 109.115 38.2871 108.395 38.2871 107.505C38.2871 106.615 39.0071 105.895 39.8971 105.895C40.7871 105.895 41.5071 106.615 41.5071 107.505C41.5071 108.395 40.7871 109.115 39.8971 109.115ZM39.8971 106.405C39.2871 106.405 38.7871 106.905 38.7871 107.515C38.7871 108.125 39.2871 108.625 39.8971 108.625C40.5071 108.625 41.0071 108.125 41.0071 107.515C41.0071 106.905 40.5071 106.405 39.8971 106.405Z" fill="#020035"/>
<path d="M43.2467 110.535C43.9978 110.535 44.6067 109.926 44.6067 109.175C44.6067 108.424 43.9978 107.815 43.2467 107.815C42.4956 107.815 41.8867 108.424 41.8867 109.175C41.8867 109.926 42.4956 110.535 43.2467 110.535Z" fill="#020035"/>
<path d="M43.2467 110.785C42.3567 110.785 41.6367 110.065 41.6367 109.175C41.6367 108.285 42.3567 107.565 43.2467 107.565C44.1367 107.565 44.8567 108.285 44.8567 109.175C44.8567 110.065 44.1267 110.785 43.2467 110.785ZM43.2467 108.075C42.6367 108.075 42.1367 108.575 42.1367 109.185C42.1367 109.795 42.6367 110.295 43.2467 110.295C43.8567 110.295 44.3567 109.795 44.3567 109.185C44.3567 108.575 43.8567 108.075 43.2467 108.075Z" fill="#020035"/>
<path d="M46.4674 111.275C47.2185 111.275 47.8274 110.666 47.8274 109.915C47.8274 109.164 47.2185 108.555 46.4674 108.555C45.7163 108.555 45.1074 109.164 45.1074 109.915C45.1074 110.666 45.7163 111.275 46.4674 111.275Z" fill="#020035"/>
<path d="M46.4674 111.525C45.5774 111.525 44.8574 110.805 44.8574 109.915C44.8574 109.025 45.5774 108.305 46.4674 108.305C47.3574 108.305 48.0774 109.025 48.0774 109.915C48.0774 110.805 47.3474 111.525 46.4674 111.525ZM46.4674 108.815C45.8574 108.815 45.3574 109.315 45.3574 109.925C45.3574 110.535 45.8574 111.035 46.4674 111.035C47.0774 111.035 47.5774 110.535 47.5774 109.925C47.5774 109.315 47.0774 108.815 46.4674 108.815Z" fill="#020035"/>
<path d="M14.5261 115.775C14.4561 115.775 14.3861 115.745 14.3361 115.685C14.2461 115.575 14.2561 115.425 14.3661 115.335L23.1761 107.955C23.2761 107.865 23.4361 107.875 23.5261 107.985C23.6161 108.095 23.6061 108.245 23.4961 108.335L14.6861 115.715C14.6361 115.755 14.5761 115.775 14.5261 115.775Z" fill="white"/>
</svg>
