<svg width="92" height="145" viewBox="0 0 92 145" fill="none" xmlns="http://www.w3.org/2000/svg">
<path d="M11.1149 89.9255C11.7849 91.0655 13.0749 91.6655 14.3749 91.4655C17.2749 91.0155 22.2149 90.1155 23.4749 89.0855C25.2949 87.6055 23.7449 84.0155 23.7449 84.0155L13.6349 68.4655C13.2049 67.8055 12.4349 67.4655 11.6649 67.5955L1.98493 69.2255C0.644931 69.4555 -0.0550753 70.9555 0.634925 72.1255L11.1149 89.9255Z" fill="#020035"/>
<path d="M10.8049 90.1155L0.324892 72.3155C-0.0551084 71.6655 -0.0951145 70.8655 0.224886 70.1755C0.544886 69.4855 1.18488 69.0055 1.93488 68.8755L11.6149 67.2455C12.5249 67.0955 13.4449 67.4955 13.9549 68.2755L24.0949 83.8755C24.1649 84.0355 25.7249 87.7355 23.7149 89.3755C22.4449 90.4055 17.9749 91.2855 14.4449 91.8355C14.2549 91.8655 14.0649 91.8755 13.8849 91.8755C12.6249 91.8655 11.4549 91.2155 10.8049 90.1155ZM23.4449 84.2155L13.3349 68.6655C12.9849 68.1255 12.3449 67.8555 11.7249 67.9555L2.04489 69.5855C1.52489 69.6755 1.09488 69.9955 0.874879 70.4755C0.654879 70.9555 0.674887 71.4855 0.944887 71.9455L11.4249 89.7455C12.0149 90.7555 13.1649 91.2855 14.3149 91.1155C19.1149 90.3655 22.3649 89.5255 23.2449 88.8055C24.8349 87.5155 23.4449 84.2155 23.4449 84.2155Z" fill="#020035"/>
<path d="M3.3745 69.7955C2.4145 69.8255 1.8345 70.8755 2.3145 71.7055L9.9045 84.9155V84.9255L12.8045 89.9755C13.7045 91.0055 15.0045 90.5755 15.0045 90.5755L18.5445 89.8755C18.2445 88.2155 17.3245 86.3655 16.5145 85.1355C15.1445 83.0755 16.1345 81.5055 16.9045 81.2655C18.3545 80.7955 21.4645 83.2555 22.9345 84.8355C23.2145 85.1255 23.9245 85.4555 24.3245 85.3855L21.0345 80.2555L19.4645 77.8055L14.7345 70.4355C14.3345 69.8155 13.6345 69.4455 12.8945 69.4655L3.3745 69.7955Z" fill="#020035"/>
<path d="M12.4939 90.1555L9.59391 85.1055C9.58391 85.0855 9.57392 85.0755 9.57392 85.0555L2.00391 71.8855C1.71391 71.3855 1.71393 70.7855 1.99393 70.2755C2.27393 69.7655 2.78393 69.4555 3.36393 69.4355L12.8739 69.1055C13.7139 69.0955 14.5639 69.5055 15.0339 70.2355L24.6339 85.1955C24.7039 85.2955 24.7139 85.4255 24.6639 85.5355C24.6139 85.6455 24.5139 85.7255 24.3939 85.7455C23.8239 85.8455 23.0039 85.4255 22.6739 85.0855C21.1139 83.4255 18.2039 81.2255 17.0139 81.6155C16.7939 81.6855 16.4739 81.9755 16.3139 82.4455C16.1639 82.8655 16.0339 83.7555 16.8239 84.9355C17.6339 86.1555 18.6039 88.0755 18.9139 89.8155C18.9439 90.0155 18.8239 90.1955 18.6239 90.2355L15.1339 90.9155C15.1039 90.9255 14.8139 91.0155 14.4039 91.0155C13.8539 91.0255 13.1139 90.8655 12.4939 90.1555ZM16.2039 85.3355C15.2439 83.8855 15.4239 82.7455 15.6139 82.2055C15.8339 81.5755 16.2839 81.0855 16.7839 80.9255C18.5239 80.3655 21.8439 83.1555 23.1839 84.5855C23.2639 84.6655 23.3839 84.7455 23.5139 84.8255L14.4039 70.6255C14.0739 70.1155 13.5139 69.7955 12.8839 69.8255L3.37391 70.1555C3.05391 70.1655 2.76392 70.3455 2.60392 70.6255C2.44392 70.9055 2.45393 71.2455 2.61393 71.5255L10.2039 84.7355C10.2139 84.7555 10.2239 84.7655 10.2239 84.7855L13.0639 89.7355C13.7939 90.5655 14.8339 90.2455 14.9239 90.2255L18.1039 89.6055C17.7639 88.0555 16.9239 86.4155 16.2039 85.3355Z" fill="#020035"/>
<path d="M16.4256 99.1055C16.3156 98.7555 14.2256 93.2655 14.9956 91.2155C14.5856 91.3255 14.2056 91.4155 13.9656 91.4455C12.4156 91.6455 11.5156 90.4755 11.5156 90.4755C12.2756 92.1955 14.5956 96.4855 16.4256 99.1055Z" fill="white"/>
<path d="M16.1349 99.3155C14.2849 96.6755 11.9749 92.4055 11.1949 90.6155C11.1249 90.4455 11.1849 90.2555 11.3449 90.1555C11.5049 90.0555 11.7049 90.1055 11.8149 90.2455C11.8449 90.2855 12.5949 91.2555 13.9349 91.0755C14.0749 91.0555 14.3549 91.0055 14.9149 90.8555C15.0449 90.8155 15.1849 90.8555 15.2749 90.9655C15.3649 91.0655 15.3949 91.2055 15.3449 91.3355C15.1049 91.9755 14.9549 93.7955 16.6949 98.7355C16.7449 98.8655 16.7749 98.9555 16.7849 98.9955C16.8349 99.1655 16.7549 99.3455 16.5949 99.4255C16.5449 99.4555 16.4949 99.4655 16.4349 99.4655C16.3149 99.4655 16.2049 99.4155 16.1349 99.3155ZM14.0149 91.7955C13.3949 91.8755 12.8749 91.7655 12.4549 91.5955C13.1449 92.9755 14.1849 94.8655 15.2249 96.5755C14.6049 94.4155 14.3649 92.7855 14.5049 91.7055C14.3049 91.7555 14.1449 91.7855 14.0149 91.7955Z" fill="#020035"/>
<path d="M12.715 68.7055L22.655 83.9255C22.965 84.3955 22.755 85.0255 22.225 85.2255L13.635 88.3855C13.235 88.5355 12.785 88.3655 12.575 87.9955L2.99504 71.1655C2.69504 70.6455 3.00502 69.9855 3.59502 69.8755L11.825 68.3255C12.165 68.2655 12.515 68.4155 12.715 68.7055Z" fill="#FBAB3E"/>
<path d="M12.4051 71.8955C12.9051 71.7755 13.4252 71.9755 13.7052 72.4055L20.4751 82.5655C20.7951 83.0255 20.5752 83.6655 20.0452 83.8455L14.8052 85.5355C14.1052 85.7555 13.3452 85.4655 12.9852 84.8255L7.15514 74.5855C6.79514 73.9555 7.14514 73.1655 7.84514 72.9955L12.4051 71.8955Z" fill="#020035"/>
<path d="M16.734 99.5955C19.764 104.346 42.604 131.156 42.604 131.156L45.684 107.766C45.684 107.766 34.354 93.4355 28.094 85.7055C26.534 83.7855 25.294 82.2755 24.604 81.4855C23.334 80.0255 22.264 78.9755 21.054 78.3655C19.704 77.6955 19.2141 77.4255 19.2141 77.4255C19.2141 77.4255 23.084 82.8655 23.434 84.0155C23.704 84.9055 23.034 84.9755 22.824 85.0155C22.424 85.0855 21.614 84.8755 20.644 84.0155C19.024 82.5955 16.864 80.4255 15.404 80.8955C14.634 81.1455 13.644 82.7055 15.014 84.7655C15.494 85.4955 16.014 86.4455 16.414 87.4355C15.854 87.9755 15.104 88.8655 14.554 90.0555C13.654 92.0455 13.894 95.1355 16.734 99.5955Z" fill="white"/>
<path d="M42.3243 131.396C41.3943 130.296 19.4243 104.506 16.4243 99.7855C13.1943 94.7255 13.4543 91.6155 14.2343 89.9055C14.7943 88.7155 15.5243 87.8455 15.9943 87.3555C15.6443 86.5355 15.2043 85.6955 14.7143 84.9755C13.7543 83.5255 13.9343 82.3855 14.1243 81.8355C14.3443 81.2055 14.7943 80.7155 15.2943 80.5555C16.7743 80.0755 18.6543 81.7555 20.3043 83.2355L20.8843 83.7455C21.8243 84.5655 22.5243 84.7055 22.8043 84.6555C22.9043 84.6355 23.0643 84.6055 23.1143 84.5255C23.1543 84.4555 23.1543 84.3055 23.0943 84.1255C22.8243 83.2355 19.9843 79.1455 18.9243 77.6455C18.8243 77.5055 18.8343 77.3255 18.9443 77.1955C19.0543 77.0655 19.2443 77.0355 19.3843 77.1155C19.3943 77.1155 19.8743 77.3855 21.2043 78.0555C22.4943 78.6955 23.5943 79.8055 24.8643 81.2555C25.5543 82.0455 26.8043 83.5755 28.3543 85.4855C34.5543 93.1255 45.8343 107.406 45.9443 107.546C46.0043 107.626 46.0343 107.716 46.0243 107.816L42.9443 131.206C42.9243 131.346 42.8243 131.466 42.6843 131.506C42.6543 131.516 42.6143 131.526 42.5843 131.526C42.4943 131.516 42.3943 131.476 42.3243 131.396ZM27.8043 85.9355C26.2543 84.0255 25.0143 82.5055 24.3243 81.7255C23.1143 80.3355 22.0743 79.2855 20.8843 78.6955C20.6943 78.5955 20.5143 78.5155 20.3543 78.4255C21.5343 80.1255 23.5143 83.0455 23.7843 83.9055C23.9043 84.3055 23.8843 84.6355 23.7343 84.8955C23.5143 85.2555 23.1043 85.3255 22.8943 85.3655C22.3943 85.4555 21.4743 85.2155 20.4043 84.2855L19.8243 83.7755C18.4643 82.5555 16.6143 80.8955 15.5243 81.2455C15.3043 81.3155 14.9843 81.6055 14.8243 82.0755C14.6743 82.4955 14.5443 83.3855 15.3343 84.5755C15.8843 85.4055 16.3943 86.3755 16.7743 87.3055C16.8343 87.4455 16.7943 87.5955 16.6943 87.7055C16.2743 88.1055 15.4943 88.9655 14.9143 90.2155C14.2043 91.7655 14.0043 94.6155 17.0543 99.4055C19.7743 103.676 38.9243 126.256 42.3643 130.306L45.3143 107.876C44.1843 106.466 33.6943 93.2055 27.8043 85.9355Z" fill="#020035"/>
<path d="M7.57403 70.5255C7.59403 70.5255 7.61404 70.5255 7.64404 70.5155L9.75403 70.1155C9.95403 70.0755 10.084 69.8855 10.044 69.6955C10.004 69.4955 9.82402 69.3655 9.62402 69.4055L7.51404 69.8055C7.31404 69.8455 7.18403 70.0355 7.22403 70.2255C7.24403 70.4055 7.40403 70.5255 7.57403 70.5255Z" fill="#020035"/>
<path d="M48.3057 72.5355C48.3057 72.5355 45.9357 80.0555 43.1857 96.4855C41.9857 103.676 39.0957 134.456 39.0957 134.456L90.0357 136.386C90.0357 136.386 76.6257 76.4655 73.7557 71.4655C70.7557 66.2355 68.8657 66.9855 68.8657 66.9855L48.3057 72.5355Z" fill="#00A7E6"/>
<path d="M90.0243 136.756L39.0843 134.826C38.9843 134.826 38.8943 134.776 38.8243 134.706C38.7543 134.636 38.7243 134.536 38.7343 134.436C38.7643 134.126 41.5843 103.546 42.8243 96.4355C45.2943 82.2355 47.9243 72.5455 47.9543 72.4455C47.9843 72.3255 48.0743 72.2355 48.1943 72.1955L70.2443 65.2255C70.2943 65.2055 70.3543 65.2055 70.4043 65.2155C70.5843 65.2355 72.2743 65.6255 74.4043 71.3155C77.2943 79.0255 90.2643 135.756 90.3943 136.326C90.4243 136.436 90.3943 136.556 90.3243 136.636C90.2543 136.716 90.1543 136.766 90.0443 136.766C90.0343 136.756 90.0343 136.756 90.0243 136.756ZM48.6043 72.8255C48.2243 74.2455 45.8143 83.4755 43.5443 96.5555C42.3843 103.206 39.8243 130.556 39.4943 134.116L89.5843 136.016C88.3343 130.566 76.4643 78.8555 73.7243 71.5555C71.9843 66.9055 70.6343 66.0655 70.3543 65.9355L48.6043 72.8255Z" fill="#020035"/>
<path d="M47.8053 59.5655L48.0853 65.9155C48.2953 66.5855 48.0853 73.3155 48.0853 73.3155C48.0853 73.3155 49.2753 79.8855 62.2053 75.6955C75.1353 71.5055 71.6753 67.2155 71.6753 67.2155L63.2953 44.8655L60.6553 35.6055L51.8053 37.6755L44.1953 53.7155L47.8053 59.5655Z" fill="white"/>
<path d="M50.0647 76.3555C48.0747 75.1655 47.7447 73.4455 47.7247 73.3155L47.4847 60.7155L43.8847 53.8655C43.8347 53.7655 43.8247 53.6455 43.8747 53.5455L51.4847 37.5055C51.5347 37.4055 51.6247 37.3355 51.7347 37.3055L60.5847 35.2355C60.7647 35.1955 60.9647 35.3055 61.0147 35.4855L63.6447 44.7155L72.0047 67.0155C72.1647 67.2455 72.7247 68.1655 72.3347 69.4855C71.6147 71.9055 68.2547 74.1055 62.3347 76.0255C59.4047 76.9755 56.8747 77.4455 54.7447 77.4455C52.8547 77.4655 51.2947 77.0955 50.0647 76.3555ZM52.0647 37.9855L44.6147 53.7055L48.1647 60.4655C48.1947 60.5155 48.2047 60.5755 48.2047 60.6255L48.4447 73.2555C48.4447 73.2655 48.7247 74.7155 50.4347 75.7355C52.1147 76.7355 55.5047 77.4855 62.1047 75.3555C69.1547 73.0755 71.1747 70.8155 71.6347 69.3255C71.9847 68.1955 71.4247 67.4755 71.4047 67.4455C71.3847 67.4155 71.3647 67.3855 71.3447 67.3455L62.9547 44.9655L60.4147 36.0355L52.0647 37.9855Z" fill="#020035"/>
<path d="M28.8457 16.1955C28.8457 16.1955 28.9457 51.8955 33.2957 59.3455C37.6457 66.7955 48.2957 62.6555 52.2357 58.3155C56.1757 53.9755 58.5457 46.6255 58.5457 46.6255C58.5457 46.6255 59.1657 39.3855 55.8557 33.5855C52.5457 27.7955 38.8857 15.1655 37.8557 15.1655C36.8257 15.1655 28.8457 16.1955 28.8457 16.1955Z" fill="white"/>
<path d="M40.6844 63.8155C45.1244 63.8155 50.0444 61.2655 52.4944 58.5555C56.4344 54.2055 58.7844 47.0355 58.8844 46.7355C58.9444 46.5455 58.8444 46.3455 58.6544 46.2755C58.4644 46.2155 58.2644 46.3155 58.1944 46.5055C58.1744 46.5755 55.7944 53.8255 51.9544 58.0655C49.4144 60.8755 44.1044 63.4855 39.6344 63.0355C36.9744 62.7555 34.9444 61.4555 33.6044 59.1655C29.3544 51.8855 29.2044 16.5555 29.2044 16.1955C29.2044 15.9955 29.0444 15.8355 28.8444 15.8355C28.6444 15.8355 28.4844 15.9955 28.4844 16.1955C28.4844 17.6555 28.6344 52.0755 32.9844 59.5255C34.4244 61.9955 36.7044 63.4555 39.5644 63.7555C39.9244 63.7955 40.3044 63.8155 40.6844 63.8155Z" fill="#020035"/>
<path d="M25.5353 14.5455C25.9153 17.4455 28.8053 19.1955 33.0453 20.0055C36.3553 20.6355 39.1853 20.1255 39.1853 20.1255C39.1853 20.1255 41.0453 32.6455 41.8753 35.2355C42.7053 37.8255 46.5353 37.8255 48.0853 36.5855C49.6353 35.3455 48.6653 35.4955 49.8753 32.0655C51.0853 28.6355 60.1153 39.3055 60.1153 39.3055C60.1153 39.3055 60.5053 41.2355 60.9253 43.7155C61.3353 46.1955 64.3353 49.5055 67.3453 50.0255C70.3453 50.5455 73.5553 48.5755 75.7253 35.7455C77.8953 22.9155 76.9653 6.77554 68.1753 2.63554C59.3853 -1.50446 46.1453 0.465536 34.9953 4.63554C25.5353 8.16554 25.3753 13.3055 25.5353 14.5455Z" fill="#020035"/>
<path d="M67.2747 50.3855C64.0747 49.8355 60.9847 46.3155 60.5647 43.7755C60.2047 41.6255 59.8547 39.8755 59.7747 39.4655C57.0847 36.2955 52.2847 31.4755 50.6447 31.7555C50.5047 31.7855 50.3347 31.8555 50.2247 32.1855C49.7447 33.5655 49.6147 34.3555 49.5347 34.8755C49.3947 35.7655 49.3047 36.0755 48.3247 36.8655C47.2647 37.7155 45.4047 37.9955 43.9047 37.5355C42.7247 37.1755 41.8847 36.3955 41.5447 35.3455C40.7847 32.9755 39.2147 22.6455 38.8947 20.5355C38.0147 20.6555 35.6647 20.8655 32.9847 20.3555C28.2547 19.4555 25.5547 17.4555 25.1747 14.5855C25.0347 13.5255 24.8647 8.03553 34.8547 4.29553C48.0047 -0.624467 60.5147 -1.36447 68.3147 2.31553C77.4947 6.63553 78.2347 23.0655 76.0747 35.8155C74.7847 43.4555 72.9947 47.9955 70.6147 49.6755C69.8647 50.2055 69.0547 50.4655 68.1547 50.4655C67.8647 50.4655 67.5747 50.4455 67.2747 50.3855ZM35.1047 4.97553C25.4147 8.59553 25.8147 13.9055 25.8847 14.4955C26.2947 17.6955 30.0447 19.0655 33.1047 19.6455C36.3047 20.2555 39.0847 19.7755 39.1147 19.7655C39.2147 19.7455 39.3147 19.7655 39.3947 19.8255C39.4747 19.8855 39.5247 19.9655 39.5447 20.0655C39.5647 20.1955 41.4147 32.5855 42.2247 35.1155C42.5647 36.1655 43.4347 36.6355 44.0947 36.8355C45.3647 37.2255 46.9847 36.9855 47.8547 36.2855C48.6547 35.6455 48.6847 35.4855 48.8047 34.7555C48.8947 34.2055 49.0247 33.3755 49.5347 31.9355C49.7547 31.2955 50.1847 31.0955 50.5147 31.0355C53.0947 30.5755 59.6547 38.1955 60.3947 39.0655C60.4347 39.1155 60.4647 39.1655 60.4747 39.2255C60.4747 39.2455 60.8747 41.1955 61.2847 43.6555C61.6647 45.9555 64.5647 49.1755 67.4047 49.6655C68.4847 49.8455 69.3747 49.6655 70.2047 49.0755C72.4147 47.5055 74.1047 43.1255 75.3647 35.6855C77.6447 22.1955 76.2647 6.84553 68.0147 2.96553C64.8247 1.46553 60.8147 0.725533 56.2747 0.725533C49.9647 0.725533 42.6447 2.15553 35.1047 4.97553Z" fill="#020035"/>
<path d="M34.9844 46.6055C35.0344 46.6055 35.0944 46.5955 35.1444 46.5655C35.2144 46.5355 35.8344 46.2155 36.3144 45.2655C37.0644 43.7555 36.3544 41.9055 36.3244 41.8355C36.2544 41.6455 36.0444 41.5555 35.8544 41.6355C35.6644 41.7055 35.5744 41.9155 35.6444 42.1055C35.6544 42.1255 36.2644 43.7355 35.6544 44.9455C35.2944 45.6755 34.8344 45.9155 34.8144 45.9255C34.6344 46.0155 34.5644 46.2355 34.6544 46.4055C34.7244 46.5255 34.8444 46.6055 34.9844 46.6055Z" fill="#020035"/>
<path d="M34.2468 37.6843C34.5121 37.5743 34.4546 36.8276 34.1184 36.0163C33.7822 35.2051 33.2945 34.6366 33.0292 34.7466C32.7639 34.8566 32.8214 35.6033 33.1576 36.4146C33.4939 37.2258 33.9815 37.7943 34.2468 37.6843Z" fill="#020035"/>
<path d="M28.2547 30.5755C28.3647 31.7455 30.1547 31.3755 31.4947 31.4355C32.9747 31.5055 34.7247 32.4155 35.1847 32.2255C36.0147 31.8855 35.6347 30.1255 33.6247 29.0555C31.7347 28.0555 28.0447 28.4455 28.2547 30.5755Z" fill="#020035"/>
<path d="M56.2551 52.0855C56.2551 52.0855 56.7651 57.8955 53.2851 62.8255C51.6651 65.1155 47.9851 67.8855 47.9851 67.8855L47.9551 61.8055C47.9551 61.8055 49.9451 60.7455 51.6351 58.9055C55.3551 54.8755 56.2551 52.0855 56.2551 52.0855Z" fill="#020035"/>
<path d="M47.8257 68.2155C47.7057 68.1555 47.6257 68.0255 47.6257 67.8955L47.5957 61.8155C47.5957 61.6855 47.6657 61.5555 47.7857 61.4955C47.8057 61.4855 49.7457 60.4355 51.3757 58.6755C54.9857 54.7655 55.9157 52.0155 55.9257 51.9855C55.9757 51.8255 56.1257 51.7155 56.3157 51.7355C56.4857 51.7555 56.6157 51.8955 56.6357 52.0655C56.6557 52.3055 57.1157 58.0655 53.5957 63.0555C51.9657 65.3655 48.3657 68.0755 48.2157 68.1955C48.1557 68.2455 48.0757 68.2655 47.9957 68.2655C47.9257 68.2555 47.8757 68.2455 47.8257 68.2155ZM51.9057 59.1555C50.4857 60.7055 48.8657 61.7055 48.3257 62.0155L48.3457 67.1455C49.4357 66.2755 51.8057 64.3055 52.9957 62.6155C55.2657 59.4055 55.7957 55.7655 55.9057 53.7255C55.2357 54.9655 54.0157 56.8555 51.9057 59.1555Z" fill="#020035"/>
<path d="M48.1642 70.0455C48.1642 70.0455 46.8442 70.4555 46.0842 72.7355C45.3242 75.0155 45.9442 79.7755 56.4342 79.6355C66.9242 79.4955 73.3442 75.0655 74.8642 72.0955C76.3842 69.1255 74.5842 66.7055 73.5442 65.9255C72.5142 65.1455 70.9742 65.3455 70.9742 65.3455C70.9742 65.3455 73.1242 69.3655 70.9542 71.1055C68.7942 72.8355 64.2142 75.1555 58.1442 75.5055C52.0742 75.8555 48.4442 74.6755 48.0842 72.9455C47.7242 71.2155 48.1642 70.0455 48.1642 70.0455Z" fill="#020035"/>
<path d="M46.635 77.0855C45.335 75.4755 45.515 73.6055 45.735 72.6455C46.325 70.0755 47.825 69.8055 47.895 69.8055C47.995 69.7855 48.105 69.8155 48.185 69.8855C48.265 69.9555 48.315 70.0555 48.315 70.1555C48.315 70.1655 48.335 71.2455 48.675 72.9055C48.955 74.2655 51.995 75.4755 58.135 75.1255C63.855 74.7955 68.395 72.6855 70.735 70.8055C72.635 69.2855 70.675 65.5355 70.655 65.5055C70.595 65.3955 70.595 65.2755 70.655 65.1655C70.705 65.0555 70.815 64.9855 70.935 64.9755C71.005 64.9655 72.625 64.7755 73.765 65.6255C74.855 66.4455 76.685 69.3055 75.055 72.4955C73.555 75.4255 67.365 79.8455 56.445 79.9855C56.295 79.9855 56.145 79.9855 55.995 79.9855C51.335 79.9955 48.185 79.0155 46.635 77.0855ZM71.185 71.3755C68.755 73.3155 64.065 75.5155 58.175 75.8455C52.215 76.1855 48.395 75.1355 47.955 73.0455C47.745 72.0055 47.645 71.1955 47.605 70.6955C47.245 70.9455 46.725 71.5155 46.435 72.7955C46.245 73.6355 46.085 75.2455 47.195 76.6255C48.655 78.4355 51.755 79.3255 56.425 79.2555C66.945 79.1155 73.025 74.8255 74.395 72.1555C75.825 69.3655 74.255 66.8955 73.315 66.1955C72.755 65.7755 72.025 65.6855 71.535 65.6655C72.065 66.8755 73.095 69.8455 71.185 71.3755Z" fill="#020035"/>
<path d="M49.6342 35.3355C49.6342 35.3355 49.0142 26.6455 55.7342 25.1955C59.6342 24.3555 62.5942 27.2155 63.4642 30.7455C64.0242 33.0155 63.5142 35.2955 62.1642 37.2355C60.9942 38.9155 59.1342 40.3655 56.9842 40.1955L49.6342 35.3355Z" fill="white"/>
<path d="M57.4152 40.5855C59.4652 40.5855 61.5052 39.5255 62.7052 37.8055C64.0352 35.8955 64.4552 33.2255 63.8352 30.6655C62.9552 27.0855 59.8652 23.9455 55.6752 24.8455C48.7352 26.3355 48.8252 34.6055 48.8352 34.6955C48.8352 34.8955 49.0052 35.0455 49.1952 35.0455C49.1952 35.0455 49.1952 35.0455 49.2052 35.0455C49.4052 35.0455 49.5652 34.8755 49.5552 34.6755C49.5452 34.3555 49.4752 26.9155 55.8252 25.5555C59.5652 24.7555 62.3352 27.6055 63.1252 30.8355C63.6952 33.1555 63.3052 35.6655 62.1052 37.3855C60.9652 39.0255 58.9652 39.9855 57.0152 39.8355C56.8052 39.8155 56.6452 39.9655 56.6252 40.1655C56.6052 40.3655 56.7552 40.5355 56.9552 40.5555C57.1052 40.5755 57.2652 40.5855 57.4152 40.5855Z" fill="#020035"/>
<path d="M59.7743 35.5955C59.9743 35.5955 60.1343 35.4355 60.1343 35.2355C60.1343 35.0555 60.1343 34.8155 58.3943 33.8455C57.6343 33.4255 56.7543 33.3255 56.0043 33.3155C56.5143 32.9455 57.0643 32.4755 57.4643 31.9755C58.4143 30.7655 58.5643 28.9955 58.5743 28.9155C58.5943 28.7155 58.4443 28.5455 58.2443 28.5255C58.0243 28.5255 57.8743 28.6555 57.8543 28.8555C57.8543 28.8755 57.7143 30.4855 56.8943 31.5255C56.0543 32.5855 54.3343 33.5255 54.3143 33.5355C54.1543 33.6255 54.0843 33.8155 54.1443 33.9855C54.2143 34.1555 54.3943 34.2555 54.5743 34.2055C54.5943 34.2055 56.6343 33.7055 58.0343 34.4855C59.1143 35.0855 59.3843 35.3355 59.4343 35.3955C59.5143 35.5155 59.6343 35.5955 59.7743 35.5955Z" fill="#020035"/>
<path d="M60.7448 89.9055C61.7948 96.6955 63.7648 107.596 65.2648 115.766C67.7748 116.636 72.8848 116.816 78.7848 115.766C82.8848 115.036 85.4148 112.946 87.1548 111.436C84.3848 98.0955 81.4048 83.2055 78.6048 79.6355C72.5448 71.8655 58.8848 77.8955 60.7448 89.9055Z" fill="#66D1F2"/>
<path d="M65.144 116.106C65.024 116.066 64.934 115.956 64.904 115.826C62.734 104.046 61.214 95.3355 60.384 89.9555C59.344 83.2055 63.264 78.3955 67.624 76.6155C71.984 74.8355 76.414 75.9355 78.904 79.4155C81.474 83.0055 84.324 96.0055 87.514 111.356C87.544 111.486 87.494 111.616 87.394 111.706C85.364 113.466 82.874 115.406 78.844 116.126C76.104 116.616 73.404 116.856 71.024 116.856C68.624 116.846 66.564 116.606 65.144 116.106ZM78.314 79.8355C76.024 76.6355 71.934 75.6355 67.894 77.2855C63.804 78.9555 60.114 83.4855 61.094 89.8455C61.924 95.1955 63.434 103.816 65.574 115.486C68.344 116.366 73.454 116.336 78.714 115.406C82.454 114.746 84.824 112.956 86.754 111.296C84.314 99.5355 80.984 83.5755 78.314 79.8355Z" fill="#020035"/>
<path d="M14.7149 116.096C14.6149 116.026 14.5449 115.916 14.5449 115.796C14.5449 115.676 14.6049 115.556 14.7049 115.486C15.7649 114.786 19.1649 114.326 23.1749 114.326C27.1849 114.326 30.5849 114.796 31.6449 115.486C31.7449 115.556 31.8049 115.666 31.8049 115.796C31.8049 115.916 31.7449 116.036 31.6349 116.096C30.5649 116.776 27.1649 117.236 23.1749 117.236C19.1849 117.236 15.7849 116.786 14.7149 116.096ZM23.1849 115.056C19.7749 115.056 17.1649 115.396 15.8449 115.796C17.1649 116.186 19.7849 116.526 23.1849 116.526C26.5849 116.526 29.2049 116.196 30.5249 115.796C29.2049 115.386 26.5849 115.056 23.1849 115.056Z" fill="#020035"/>
<path d="M14.6152 115.406V124.986L31.7452 125.396V115.406H14.6152Z" fill="#FBAB3E"/>
<path d="M14.7141 116.096C14.3341 115.856 14.2441 115.586 14.2441 115.396C14.2441 113.586 22.8041 113.566 23.1741 113.566C23.5441 113.566 32.1041 113.586 32.1041 115.396C32.1041 115.576 32.0241 115.846 31.6341 116.096C31.5141 116.176 31.3641 116.166 31.2441 116.096C30.4541 115.576 27.4241 115.056 23.1741 115.056C18.9241 115.056 15.8941 115.586 15.1041 116.096C15.0441 116.136 14.9741 116.156 14.9041 116.156C14.8441 116.156 14.7741 116.136 14.7141 116.096ZM30.9641 115.176C29.9641 114.776 27.2641 114.296 23.1741 114.296C19.0841 114.296 16.3841 114.776 15.3841 115.176C16.8641 114.656 19.8041 114.326 23.1741 114.326C26.5441 114.326 29.4841 114.656 30.9641 115.176Z" fill="#020035"/>
<path d="M14.9141 115.796C15.8941 116.416 19.2241 116.876 23.1841 116.876C27.1441 116.876 30.4741 116.416 31.4541 115.796C30.4741 115.156 27.1441 114.696 23.1841 114.696C19.2241 114.686 15.8941 115.146 14.9141 115.796Z" fill="#020035"/>
<path d="M31.7439 125.756C31.8339 125.756 31.9239 125.716 31.9939 125.656C32.0639 125.586 32.1039 125.496 32.1039 125.396V115.406C32.1039 115.206 31.9439 115.046 31.7439 115.046C31.5439 115.046 31.3839 115.206 31.3839 115.406V125.026L14.9739 124.636V115.416C14.9739 115.216 14.8139 115.056 14.6139 115.056C14.4139 115.056 14.2539 115.216 14.2539 115.416V124.996C14.2539 125.196 14.4139 125.356 14.6039 125.356L31.7439 125.756Z" fill="#020035"/>
<path d="M14.7149 116.096C14.6149 116.026 14.5449 115.916 14.5449 115.796C14.5449 115.676 14.6049 115.556 14.7049 115.486C15.7649 114.786 19.1649 114.326 23.1749 114.326C27.1849 114.326 30.5849 114.796 31.6449 115.486C31.7449 115.556 31.8049 115.666 31.8049 115.796C31.8049 115.916 31.7449 116.036 31.6349 116.096C30.5649 116.776 27.1649 117.236 23.1749 117.236C19.1849 117.236 15.7849 116.786 14.7149 116.096ZM23.1849 115.056C19.7749 115.056 17.1649 115.396 15.8449 115.796C17.1649 116.186 19.7849 116.526 23.1849 116.526C26.5849 116.526 29.2049 116.196 30.5249 115.796C29.2049 115.386 26.5849 115.056 23.1849 115.056Z" fill="#020035"/>
<path d="M84.6451 144.056C91.2351 143.676 92.8051 139.886 90.7151 129.556C90.0251 126.166 87.1551 111.436 87.1551 111.436C85.4151 112.946 83.6751 114.816 78.7851 115.766C72.3851 117.016 67.7651 116.636 65.2651 115.766L67.6851 128.676L38.4951 127.146C38.4951 127.146 38.7951 124.556 37.3451 122.236C35.5051 119.276 31.7851 118.556 31.7851 118.556V124.086C31.7851 124.086 28.9951 125.396 22.3451 123.106C15.6951 120.806 13.0751 117.376 11.4251 118.526C10.4751 119.186 10.9851 121.196 12.2451 123.276C13.4951 125.346 14.0951 125.946 14.0951 125.946C14.0951 125.946 13.0551 127.466 13.1651 129.056C13.3051 131.156 14.0951 131.896 14.0951 131.896C14.0951 131.896 14.0351 134.396 15.4151 136.196C17.2051 138.526 20.4051 141.106 40.3651 142.286C53.6551 143.066 82.9151 144.156 84.6451 144.056Z" fill="white"/>
<path d="M40.355 142.646C20.605 141.476 17.065 138.926 15.135 136.416C13.865 134.766 13.745 132.606 13.735 132.026C13.485 131.716 12.925 130.836 12.805 129.076C12.715 127.746 13.345 126.486 13.645 125.976C13.375 125.646 12.8049 124.906 11.9349 123.456C10.7549 121.506 9.94497 119.116 11.215 118.226C12.285 117.486 13.5649 118.246 15.5049 119.406C17.1349 120.376 19.365 121.706 22.455 122.766C27.865 124.626 30.675 124.056 31.415 123.836V118.566C31.415 118.456 31.465 118.356 31.545 118.286C31.625 118.216 31.7349 118.186 31.8449 118.206C32.0049 118.236 35.745 118.996 37.645 122.046C38.825 123.936 38.8949 125.976 38.8749 126.806L67.235 128.286L64.895 115.826C64.875 115.696 64.915 115.566 65.015 115.486C65.115 115.406 65.2449 115.376 65.3749 115.416C66.8049 115.916 70.975 116.916 78.705 115.406C83.075 114.546 84.875 112.956 86.455 111.556L86.9049 111.156C87.0049 111.076 87.135 111.046 87.265 111.086C87.385 111.126 87.475 111.236 87.505 111.356C87.535 111.506 90.3849 126.116 91.0649 129.476C92.395 136.016 92.235 139.756 90.525 141.966C89.365 143.466 87.505 144.246 84.665 144.406C84.585 144.406 84.455 144.416 84.275 144.416C80.325 144.426 52.765 143.376 40.355 142.646ZM78.855 116.126C71.805 117.506 67.615 116.826 65.735 116.296L68.045 128.616C68.065 128.726 68.035 128.836 67.965 128.926C67.895 129.006 67.785 129.066 67.675 129.046L38.485 127.516C38.385 127.516 38.2949 127.466 38.2249 127.386C38.1649 127.306 38.135 127.206 38.145 127.116C38.145 127.086 38.405 124.616 37.045 122.436C35.675 120.236 33.1549 119.326 32.1549 119.036V124.096C32.1549 124.236 32.0749 124.366 31.945 124.426C31.8249 124.476 28.945 125.776 22.2249 123.466C19.0649 122.376 16.795 121.026 15.135 120.036C13.225 118.896 12.285 118.376 11.635 118.836C10.945 119.316 11.3349 121.066 12.5649 123.096C13.7649 125.086 14.355 125.686 14.365 125.696C14.485 125.816 14.5049 126.016 14.4049 126.156C14.3949 126.166 13.4349 127.596 13.5349 129.046C13.6649 130.946 14.345 131.636 14.355 131.646C14.435 131.716 14.4749 131.816 14.4749 131.916C14.4749 131.936 14.4349 134.306 15.7249 135.986C17.5549 138.366 20.965 140.786 40.415 141.936C53.385 142.706 82.875 143.786 84.645 143.706C87.265 143.556 88.955 142.866 89.975 141.546C91.515 139.536 91.6449 135.866 90.3749 129.636C89.7749 126.676 87.4949 114.976 86.9349 112.136C85.2749 113.586 83.395 115.236 78.855 116.126Z" fill="#020035"/>
<path d="M16.7458 133.656C16.9158 133.656 17.0758 133.536 17.1058 133.356C17.1358 133.156 17.0058 132.976 16.8058 132.936C16.7858 132.936 15.1058 132.636 14.3858 131.676C14.2658 131.516 14.0357 131.486 13.8757 131.606C13.7157 131.726 13.6858 131.956 13.8058 132.116C14.6958 133.306 16.6057 133.646 16.6857 133.666C16.7057 133.656 16.7258 133.656 16.7458 133.656Z" fill="#020035"/>
<path d="M21.2444 94.7855C21.2444 94.7855 23.6744 96.2655 24.0044 99.3655C24.3344 102.466 20.5044 104.416 19.6944 107.726C18.8844 111.036 23.5344 115.446 23.5344 115.446C23.5344 115.446 21.1744 111.646 22.0544 108.346C23.1144 104.356 25.1743 104.366 25.9043 101.126C26.6343 97.8855 22.9944 95.5955 21.2444 94.7855Z" fill="white"/>
<path d="M23.2851 115.706C23.0851 115.516 18.4951 111.106 19.3451 107.646C19.7251 106.096 20.7151 104.856 21.6651 103.666C22.7751 102.286 23.8151 100.986 23.6451 99.4155C23.3351 96.5355 21.0751 95.1155 21.0551 95.1055C20.8951 95.0055 20.8351 94.7955 20.9251 94.6255C21.0151 94.4555 21.2251 94.3855 21.3951 94.4655C22.3651 94.9155 27.1351 97.3355 26.2551 101.206C25.8851 102.846 25.1951 103.696 24.4551 104.586C23.7051 105.506 22.9251 106.446 22.3951 108.436C21.5751 111.546 23.8151 115.216 23.8351 115.256C23.9351 115.406 23.8951 115.616 23.7551 115.726C23.6851 115.776 23.6051 115.806 23.5251 115.806C23.4451 115.806 23.3551 115.776 23.2851 115.706ZM24.3651 99.3355C24.5651 101.196 23.3751 102.686 22.2251 104.116C21.3151 105.246 20.3851 106.416 20.0351 107.816C19.5951 109.616 20.9451 111.826 22.1451 113.356C21.6351 111.936 21.2251 110.036 21.6951 108.256C22.2651 106.116 23.1251 105.056 23.8951 104.126C24.6051 103.266 25.2151 102.526 25.5451 101.046C25.9851 99.1155 24.7151 97.5655 23.3951 96.5355C23.8551 97.2555 24.2451 98.1855 24.3651 99.3355Z" fill="#020035"/>
<path d="M20.6253 90.1055C20.6253 90.1055 19.0153 91.0855 18.7953 93.1355C18.5753 95.1855 21.1153 96.4855 21.6553 98.6655C22.1953 100.846 19.1153 103.776 19.1153 103.776C19.1153 103.776 20.6753 101.256 20.0953 99.0755C19.3953 96.4355 18.0253 96.4355 17.5453 94.2955C17.0553 92.1655 19.4653 90.6455 20.6253 90.1055Z" fill="white"/>
<path d="M18.8853 104.066C18.7453 103.946 18.7153 103.746 18.8053 103.596C18.8153 103.576 20.2753 101.186 19.7453 99.1755C19.4053 97.8855 18.8952 97.2655 18.4052 96.6755C17.9352 96.0955 17.4452 95.5055 17.1852 94.3855C16.5852 91.7255 19.8153 90.0855 20.4753 89.7855C20.6553 89.7055 20.8553 89.7755 20.9453 89.9455C21.0353 90.1155 20.9753 90.3255 20.8153 90.4255C20.8053 90.4355 19.3552 91.3455 19.1552 93.1855C19.0452 94.1755 19.6953 94.9755 20.4453 95.9155C21.0853 96.7155 21.7453 97.5455 22.0053 98.5955C22.5853 100.956 19.4953 103.926 19.3553 104.056C19.2853 104.126 19.1953 104.156 19.1053 104.156C19.0253 104.146 18.9453 104.126 18.8853 104.066ZM17.8953 94.2255C18.1053 95.1755 18.5053 95.6555 18.9653 96.2155C19.4753 96.8455 20.0653 97.5455 20.4453 98.9955C20.6953 99.9355 20.5853 100.906 20.3653 101.746C20.9953 100.826 21.5353 99.7055 21.3053 98.7655C21.0853 97.8655 20.4753 97.1055 19.8853 96.3655C19.1053 95.3955 18.3053 94.3955 18.4453 93.1055C18.4953 92.6255 18.6153 92.1955 18.7753 91.8255C18.1453 92.4555 17.6753 93.2755 17.8953 94.2255Z" fill="#020035"/>
<path d="M37.6642 17.1655C37.8542 17.1655 38.0142 17.0155 38.0242 16.8255C38.0342 16.6255 37.8842 16.4555 37.6842 16.4455C37.6542 16.4455 34.5542 16.2355 32.7842 15.6455C30.4142 14.8455 29.9342 12.8055 29.9242 12.7855C29.8842 12.5955 29.6942 12.4655 29.4942 12.5155C29.2942 12.5555 29.1742 12.7555 29.2242 12.9455C29.2442 13.0455 29.8042 15.4055 32.5642 16.3355C34.4242 16.9555 37.5142 17.1655 37.6442 17.1755C37.6542 17.1655 37.6542 17.1655 37.6642 17.1655Z" fill="white"/>
<path d="M33.6021 36.6094C33.6582 36.5862 33.6437 36.4226 33.5697 36.244C33.4957 36.0654 33.3902 35.9395 33.3341 35.9628C33.2779 35.986 33.2924 36.1497 33.3664 36.3282C33.4405 36.5068 33.546 36.6327 33.6021 36.6094Z" fill="white"/>
<path d="M60.7441 89.9055L61.5541 128.356L67.6841 128.676L60.7441 89.9055Z" fill="#020035"/>
<path d="M17.3345 128.716C17.4645 128.716 17.5945 128.646 17.6545 128.516C17.7445 128.336 17.6745 128.116 17.4945 128.026C17.4845 128.026 16.8745 127.716 16.0845 127.146C15.2845 126.566 14.3545 125.686 14.3445 125.676C14.2045 125.536 13.9745 125.546 13.8345 125.686C13.6945 125.826 13.7045 126.056 13.8445 126.196C13.8845 126.236 14.8145 127.116 15.6545 127.726C16.5045 128.336 17.1345 128.656 17.1645 128.666C17.2245 128.706 17.2845 128.716 17.3345 128.716Z" fill="#020035"/>
</svg>
