<svg width="135" height="145" viewBox="0 0 135 145" fill="none" xmlns="http://www.w3.org/2000/svg">
<path d="M7.28018 114.65H67.5202C71.3202 114.65 74.3902 111.57 74.3902 107.78V7.27C74.3902 3.47 71.3102 0.400002 67.5202 0.400002H7.28018C3.48018 0.400002 0.410181 3.48 0.410181 7.27V107.78C0.400181 111.58 3.48018 114.65 7.28018 114.65Z" fill="#020035"/>
<path d="M67.5198 115.05H7.27979C3.26978 115.05 0.00976562 111.79 0.00976562 107.78V7.27C0.00976562 3.26 3.26978 0 7.27979 0H67.5198C71.5298 0 74.7898 3.26 74.7898 7.27V107.78C74.7798 111.79 71.5198 115.05 67.5198 115.05ZM7.27979 0.79C3.70979 0.79 0.799805 3.7 0.799805 7.27V107.78C0.799805 111.35 3.70979 114.26 7.27979 114.26H67.5198C71.0898 114.26 73.9998 111.35 73.9998 107.78V7.27C73.9998 3.7 71.0898 0.79 67.5198 0.79H7.27979Z" fill="#020035"/>
<path d="M9.97064 111.1H64.8306C67.5006 111.1 69.6606 108.94 69.6606 106.27V8.77C69.6606 6.1 67.5006 3.94 64.8306 3.94H9.97064C7.30064 3.94 5.14062 6.1 5.14062 8.77V106.27C5.14062 108.94 7.30064 111.1 9.97064 111.1Z" fill="white"/>
<path d="M28.0206 12.13H46.7706C48.1306 12.13 49.2306 11.03 49.2306 9.67C49.2306 8.31 48.1306 7.21 46.7706 7.21H28.0206C26.6606 7.21 25.5605 8.31 25.5605 9.67C25.5605 11.03 26.6606 12.13 28.0206 12.13Z" fill="#020035"/>
<path d="M46.7701 12.53H28.0201C26.4501 12.53 25.1602 11.25 25.1602 9.67C25.1602 8.09 26.4401 6.81 28.0201 6.81H46.7701C48.3401 6.81 49.6301 8.09 49.6301 9.67C49.6301 11.25 48.3501 12.53 46.7701 12.53ZM28.0201 7.6C26.8801 7.6 25.9501 8.53 25.9501 9.67C25.9501 10.81 26.8801 11.74 28.0201 11.74H46.7701C47.9101 11.74 48.8401 10.81 48.8401 9.67C48.8401 8.53 47.9101 7.6 46.7701 7.6H28.0201Z" fill="#020035"/>
<path d="M15.2414 94.96H59.5614C60.5514 94.96 61.3615 94.15 61.3615 93.16V27.44C61.3615 26.45 60.5614 25.64 59.5614 25.64H15.2414C14.2514 25.64 13.4414 26.45 13.4414 27.44V93.16C13.4414 94.15 14.2514 94.96 15.2414 94.96Z" fill="#BFE5EF"/>
<path d="M59.5607 95.35H15.2407C14.0307 95.35 13.0508 94.37 13.0508 93.16V27.44C13.0508 26.23 14.0307 25.25 15.2407 25.25H59.5607C60.7707 25.25 61.7507 26.23 61.7507 27.44V93.16C61.7507 94.37 60.7607 95.35 59.5607 95.35ZM15.2407 26.04C14.4707 26.04 13.8408 26.67 13.8408 27.44V93.16C13.8408 93.93 14.4707 94.56 15.2407 94.56H59.5607C60.3307 94.56 60.9608 93.93 60.9608 93.16V27.44C60.9608 26.67 60.3307 26.04 59.5607 26.04H15.2407Z" fill="#020035"/>
<path d="M49.2299 78.06H25.5599C25.3399 78.06 25.1699 77.88 25.1699 77.67C25.1699 77.45 25.3499 77.28 25.5599 77.28H49.2299C49.4499 77.28 49.6199 77.46 49.6199 77.67C49.6299 77.88 49.4499 78.06 49.2299 78.06Z" fill="#020035"/>
<path d="M46.9614 84.68H27.8314C27.6114 84.68 27.4414 84.5 27.4414 84.29C27.4414 84.07 27.6214 83.9 27.8314 83.9H46.9614C47.1814 83.9 47.3514 84.08 47.3514 84.29C47.3514 84.51 47.1814 84.68 46.9614 84.68Z" fill="#020035"/>
<path d="M56.5909 50.14C56.5909 50.24 56.5909 50.35 56.5809 50.45C56.5909 50.63 56.5809 50.82 56.5709 51C56.3009 57.31 52.941 62.82 47.981 66.07C47.901 66.14 47.811 66.19 47.731 66.24C47.681 66.27 47.6409 66.31 47.5909 66.33C44.6709 68.15 41.2309 69.2 37.5309 69.2C34.1509 69.2 30.981 68.32 28.231 66.78C28.131 66.73 28.0309 66.66 27.9309 66.6C27.8909 66.59 27.8509 66.57 27.8109 66.53C22.2209 63.22 18.4609 57.11 18.4609 50.14C18.4609 49.8 18.4709 49.46 18.4909 49.12C18.5209 48.58 18.5709 48.06 18.6509 47.54C18.7309 46.94 18.8309 46.34 18.9909 45.75C20.1809 40.66 23.4309 36.35 27.8209 33.76C27.9409 33.68 28.0409 33.62 28.1609 33.56C28.261 33.49 28.3709 33.43 28.4709 33.38C31.1709 31.91 34.2609 31.09 37.5309 31.09C40.4909 31.09 43.291 31.77 45.791 32.98C45.891 33.02 46.0009 33.07 46.0909 33.14C46.2109 33.18 46.3109 33.24 46.4309 33.31C52.3909 36.45 56.4709 42.66 56.5809 49.84C56.5909 49.92 56.5909 50.04 56.5909 50.14Z" fill="#020035"/>
<path d="M37.5303 69.6C34.2003 69.6 30.9203 68.74 28.0403 67.13C27.9703 67.09 27.8904 67.04 27.8004 66.99C27.7504 66.96 27.6403 66.93 27.5303 66.82C21.7203 63.39 18.0703 56.98 18.0703 50.15C18.0703 49.8 18.0803 49.46 18.1003 49.11C18.1303 48.56 18.1803 48.03 18.2603 47.48C18.3503 46.79 18.4704 46.18 18.6104 45.64C19.8004 40.55 23.0803 36.09 27.6203 33.41C27.7403 33.33 27.8603 33.25 28.0003 33.19C28.0703 33.14 28.1804 33.07 28.3004 33.01C31.1004 31.49 34.3003 30.68 37.5403 30.68C40.4803 30.68 43.3203 31.33 45.9703 32.6C46.0703 32.64 46.1803 32.69 46.2803 32.76C46.3703 32.8 46.4603 32.85 46.5603 32.9C52.9103 36.25 56.8803 42.71 56.9803 49.8C56.9903 49.88 56.9903 50.01 56.9903 50.13C56.9903 50.25 56.9903 50.37 56.9703 50.5C56.9903 50.61 56.9703 50.81 56.9603 51.01C56.6903 57.24 53.4103 62.99 48.1903 66.41C48.1603 66.44 48.0803 66.49 48.0003 66.54C47.9903 66.55 47.9103 66.6 47.9003 66.6C47.8403 66.64 47.8003 66.67 47.7603 66.69C44.7203 68.59 41.1703 69.6 37.5303 69.6ZM37.5303 31.47C34.4203 31.47 31.3603 32.25 28.6603 33.71C28.5503 33.76 28.4603 33.82 28.3703 33.88C28.2203 33.95 28.1403 34.01 28.0403 34.07C23.6803 36.65 20.5303 40.93 19.3803 45.83C19.2403 46.35 19.1304 46.92 19.0504 47.59C18.9704 48.12 18.9203 48.62 18.9003 49.14C18.8903 49.47 18.8703 49.81 18.8703 50.14C18.8703 56.7 22.3803 62.85 28.0303 66.2C28.0603 66.21 28.1303 66.25 28.1603 66.27L28.2503 66.33C28.3103 66.37 28.3603 66.4 28.4303 66.44C31.2103 68 34.3604 68.82 37.5504 68.82C41.0504 68.82 44.4503 67.85 47.4003 66.01C47.4903 65.95 47.5303 65.92 47.5803 65.9C47.6603 65.85 47.7103 65.82 47.7503 65.78C52.7903 62.48 55.9403 56.96 56.2003 50.99C56.2103 50.8 56.2203 50.64 56.2103 50.49C56.2203 50.32 56.2203 50.23 56.2203 50.15C56.2203 50.06 56.2203 49.96 56.2103 49.87C56.1103 43.02 52.3003 36.82 46.2703 33.64C46.1203 33.56 46.0603 33.52 45.9903 33.49C45.9603 33.48 45.9203 33.46 45.8903 33.44C45.8303 33.4 45.7603 33.36 45.6703 33.33C43.0703 32.09 40.3503 31.47 37.5303 31.47Z" fill="#020035"/>
<path d="M41.6895 34.69C41.6895 34.69 46.8395 30.18 51.4395 33.86C56.0395 37.54 57.5795 46.07 56.3995 49.51C55.1495 53.15 49.6795 55.62 46.5995 53.57C43.5195 51.52 42.8295 45.7 42.8295 45.7L41.6895 34.69Z" fill="#E57225"/>
<path d="M32.6109 34.96C32.6109 34.96 27.1909 30.77 22.8309 34.72C18.4709 38.67 17.5309 47.25 18.8309 50.64C20.2309 54.3 25.9109 56.33 28.8609 54.1C31.8109 51.87 32.1509 46.02 32.1509 46.02L32.6109 34.96Z" fill="#E57225"/>
<path d="M51.5912 33.66C49.4812 31.97 47.2412 31.97 45.4212 32.47C45.2812 32.51 45.1312 32.55 45.0012 32.6C44.0312 32.93 43.1912 33.36 42.5912 33.75H42.5812C42.5012 33.8 42.4412 33.85 42.3712 33.89C42.2912 33.94 42.2312 33.98 42.1612 34.02C42.1512 34.03 42.1212 34.05 42.1112 34.06C42.0612 34.1 42.0212 34.13 41.9812 34.15C41.9812 34.16 41.9712 34.16 41.9712 34.16C41.9412 34.17 41.9212 34.2 41.9012 34.21C41.8612 34.25 41.8212 34.28 41.7812 34.3C41.7512 34.33 41.7312 34.34 41.7012 34.35C41.6012 34.44 41.5412 34.48 41.5312 34.49C41.4812 34.53 41.4512 34.61 41.4512 34.69L41.4612 34.81L41.5112 35.31V35.36L41.5412 35.62L41.5712 35.87L42.0512 40.52L42.0912 40.83V40.84L42.1212 41.17L42.5012 44.82L42.5512 45.25C42.5512 45.25 42.5512 45.25 42.5512 45.26L42.5912 45.69V45.7C42.6412 46.04 43.2312 50.43 45.4812 52.86C45.5312 52.93 45.5812 52.98 45.6512 53.03C45.7012 53.08 45.7512 53.13 45.8112 53.19C46.0212 53.39 46.2312 53.56 46.4612 53.71C47.2512 54.23 48.2012 54.5 49.2512 54.5C49.4512 54.5 49.6612 54.49 49.8512 54.47C50.4312 54.42 51.0312 54.29 51.6312 54.08C53.6112 53.41 55.3012 52.05 56.1912 50.48C56.2912 50.28 56.3912 50.09 56.4812 49.89C56.5112 49.81 56.5512 49.75 56.5712 49.67V49.66C56.5812 49.62 56.6012 49.58 56.6112 49.54C57.8912 45.89 56.1412 37.3 51.5912 33.66ZM56.4712 48.07C56.4212 48.54 56.3412 48.97 56.2212 49.33C56.2212 49.37 56.2112 49.41 56.1912 49.43C56.1412 49.59 56.0711 49.76 55.9911 49.91C55.2311 51.55 53.5112 52.99 51.5012 53.68C50.9812 53.86 50.4512 53.98 49.9512 54.02C48.7212 54.16 47.5912 53.94 46.7312 53.37C46.4912 53.21 46.2712 53.03 46.0912 52.83C46.0212 52.78 45.9712 52.73 45.9312 52.67C45.8612 52.62 45.8112 52.57 45.7612 52.5C43.6112 50.1 43.0612 45.72 43.0612 45.66L42.9812 44.87L42.9112 44.33C42.9112 44.33 42.9212 44.33 42.9112 44.32V44.31L42.8412 43.64L42.6712 41.99L42.6012 41.4C42.6012 41.39 42.6012 41.39 42.6012 41.39V41.38L42.5612 40.99L42.0512 36.08L42.0412 35.83L42.0212 35.56V35.51L41.9911 35.25L41.9612 34.99L41.9312 34.78C41.9812 34.74 42.0512 34.69 42.1312 34.62C42.1712 34.59 42.2112 34.55 42.2512 34.53C42.2812 34.52 42.3012 34.49 42.3312 34.48C42.3712 34.45 42.4112 34.43 42.4512 34.4C42.4812 34.37 42.5212 34.36 42.5412 34.33C42.5512 34.33 42.5512 34.32 42.5712 34.32C42.5812 34.31 42.6112 34.29 42.6412 34.27C42.6812 34.24 42.7212 34.22 42.7712 34.19H42.7812C42.8512 34.14 42.9112 34.1 42.9812 34.06C43.6312 33.64 44.5812 33.17 45.6512 32.89C45.7812 32.86 45.9212 32.82 46.0712 32.8C47.6812 32.47 49.5412 32.62 51.3112 34.03C55.4312 37.32 56.9312 44.27 56.4712 48.05V48.07Z" fill="#020035"/>
<path d="M32.7503 34.78C32.7503 34.78 32.6704 34.73 32.5504 34.65C32.5404 34.64 32.5103 34.62 32.5003 34.62C32.4503 34.57 32.3803 34.53 32.3203 34.49C32.3103 34.48 32.2904 34.48 32.2804 34.46C32.2804 34.46 32.2703 34.45 32.2503 34.45C32.2103 34.41 32.1604 34.38 32.1104 34.35C32.1004 34.35 32.0803 34.34 32.0603 34.32L32.0504 34.31C31.9704 34.27 31.9103 34.23 31.8303 34.19C31.1803 33.81 30.2103 33.34 29.0703 33.06C28.7703 32.98 28.4404 32.92 28.1104 32.88C26.3904 32.66 24.4603 32.96 22.6803 34.56C19.0303 37.86 17.6503 44.45 18.1403 48.64C18.2103 49.26 18.3404 49.83 18.4804 50.33V50.34C18.5304 50.48 18.5703 50.6 18.6203 50.73C19.3703 52.65 21.3004 54.28 23.6704 54.96C24.4204 55.17 25.1403 55.27 25.8203 55.27C27.0503 55.27 28.1503 54.94 29.0003 54.29C29.0103 54.28 29.0404 54.26 29.0504 54.25C29.1204 54.2 29.1804 54.15 29.2304 54.09C29.3004 54.04 29.3503 54 29.4003 53.93C31.2303 52.23 31.9404 49.18 32.2304 47.41C32.2404 47.29 32.2603 47.19 32.2703 47.08C32.3003 46.95 32.3103 46.83 32.3203 46.73C32.3603 46.34 32.3903 46.08 32.3903 46.04L32.5603 41.86V41.85L32.5703 41.64V41.63L32.6004 40.84L32.6104 40.6V40.59L32.6203 40.33L32.8004 36.1L32.8103 35.84V35.45L32.8203 35.2L32.8303 34.98C32.8403 34.89 32.8203 34.83 32.7503 34.78ZM32.3203 36.31L32.1403 40.58L32.1303 40.87V40.9L32.1203 41.17L31.9204 46.02C31.9204 46.02 31.9204 46.05 31.9104 46.1C31.9104 46.18 31.9003 46.31 31.8803 46.49V46.52C31.8703 46.62 31.8503 46.72 31.8303 46.86C31.6303 48.43 30.9804 51.85 29.0904 53.6C29.0404 53.67 28.9704 53.72 28.9204 53.76C28.8504 53.83 28.8003 53.88 28.7403 53.92L28.7304 53.93C27.5104 54.85 25.7203 55.07 23.8103 54.52C21.5703 53.88 19.7503 52.36 19.0603 50.58C18.8203 49.96 18.6704 49.14 18.5904 48.18C18.5904 48.17 18.5904 48.17 18.5904 48.15C18.5404 47.27 18.5503 46.29 18.6403 45.26C18.9503 41.63 20.2903 37.36 23.0003 34.9C24.3603 33.67 25.8303 33.25 27.1803 33.25C27.2703 33.25 27.3804 33.25 27.4704 33.26C27.8104 33.27 28.1404 33.31 28.4704 33.38H28.4804C29.7104 33.6 30.7803 34.1 31.5003 34.52C31.5503 34.55 31.5903 34.57 31.6403 34.61H31.6503C31.6603 34.61 31.6803 34.62 31.7003 34.64C31.7503 34.67 31.8004 34.69 31.8404 34.73C31.8504 34.73 31.8703 34.74 31.8703 34.74C31.8803 34.75 31.9004 34.75 31.9104 34.77C31.9804 34.81 32.0303 34.85 32.0803 34.87L32.0904 34.88C32.2204 34.96 32.3103 35.02 32.3803 35.08L32.3703 35.43L32.3404 35.68V35.78L32.3303 35.95V36.04L32.3203 36.31Z" fill="#020035"/>
<path d="M44.9703 58.32C45.6203 60.24 46.4903 62.86 47.3703 65.76C47.3203 65.79 47.2803 65.83 47.2303 65.85C44.3103 67.67 40.8703 68.72 37.1703 68.72C33.7903 68.72 30.6203 67.84 27.8703 66.3C27.7703 66.25 27.6703 66.18 27.5703 66.12C28.2603 63.25 28.9303 60.69 29.4403 58.7C29.4403 58.66 29.4503 58.62 29.4703 58.58C29.5403 58.65 29.6103 58.71 29.6903 58.78C30.9703 59.95 32.8903 61.27 36.8103 61.27H36.9303C41.3203 61.26 43.6303 59.58 44.7503 58.22C44.8003 58.17 44.8403 58.12 44.8803 58.06C44.8803 58.07 44.8903 58.1 44.8903 58.11C44.9103 58.17 44.9403 58.25 44.9703 58.32Z" fill="#FFEDDF"/>
<path d="M43.8501 54.97C43.8501 54.97 44.2801 56.14 44.9301 58.04C43.8501 59.43 41.5101 61.38 36.9201 61.26C32.4401 61.14 30.7501 59.74 29.4701 58.53C30.0301 56.37 30.3901 55.04 30.3901 55.04C30.3901 55.04 26.3801 52.89 26.1601 45.54C25.9301 38.18 30.8401 33.33 37.6401 33.34C44.8001 33.35 47.8501 38.79 48.0401 45.27C48.2401 51.76 43.8501 54.97 43.8501 54.97Z" fill="#FFC783"/>
<path d="M45.821 53.23C45.861 53.16 45.911 53.11 45.951 53.05V53.04C46.001 52.97 46.0411 52.92 46.0911 52.84C47.2211 51.2 48.371 48.68 48.261 45.27C48.121 40.41 46.4511 36.81 43.5911 34.85C43.4511 34.73 43.3011 34.64 43.1411 34.56C42.9711 34.44 42.801 34.35 42.631 34.27C42.551 34.22 42.4911 34.18 42.4111 34.17H42.381C42.311 34.1 42.261 34.08 42.201 34.07C42.191 34.07 42.1711 34.06 42.1611 34.04C41.9811 33.94 41.7911 33.86 41.6111 33.82C41.3311 33.7 41.0711 33.61 40.7811 33.53H40.7711C40.6411 33.49 40.5111 33.45 40.3611 33.44C39.5111 33.22 38.591 33.11 37.621 33.11C37.621 33.11 37.6211 33.11 37.6111 33.11C36.3911 33.11 35.2011 33.27 34.1011 33.58C33.9311 33.63 33.7611 33.67 33.6011 33.72C33.5911 33.72 33.591 33.72 33.571 33.72C33.311 33.81 33.061 33.9 32.811 34.01C32.801 34.01 32.8011 34.02 32.8011 34.02C32.5611 34.11 32.3311 34.23 32.0911 34.35C32.0211 34.38 31.9611 34.4 31.8911 34.43C31.8811 34.43 31.8511 34.44 31.8411 34.47H31.8311C31.8011 34.5 31.781 34.51 31.751 34.52C31.711 34.55 31.661 34.59 31.621 34.61H31.6111C31.4811 34.66 31.341 34.74 31.201 34.85C31.201 34.85 31.201 34.85 31.191 34.86C30.431 35.29 29.741 35.84 29.121 36.48C26.911 38.76 25.7911 41.89 25.9111 45.54C26.0411 49.97 27.5111 52.53 28.7111 53.91C28.7611 53.98 28.811 54.04 28.871 54.09L29.0311 54.25C29.5011 54.73 29.8911 55.02 30.1011 55.15C30.0011 55.56 29.7211 56.67 29.3311 58.24V58.25C29.3211 58.3 29.3011 58.35 29.2911 58.41C29.2811 58.42 29.2811 58.42 29.2811 58.42C29.2811 58.42 29.2811 58.43 29.2911 58.45C28.7911 60.44 28.121 63.1 27.431 66.04C27.471 66.08 27.5111 66.09 27.5511 66.11C27.6511 66.18 27.7511 66.24 27.8511 66.29C28.5011 63.49 29.131 60.92 29.631 58.96C29.641 58.89 29.6611 58.83 29.6711 58.76C29.6711 58.75 29.681 58.75 29.681 58.73V58.72C29.711 58.6 29.7311 58.5 29.7711 58.38C29.8411 58.08 29.9111 57.79 29.9811 57.53C29.9911 57.45 30.0211 57.39 30.0311 57.31C30.3311 56.12 30.5311 55.35 30.5811 55.15C30.5911 55.12 30.5911 55.1 30.5911 55.1C30.6211 55 30.5611 54.88 30.4711 54.84C30.4711 54.84 30.4411 54.83 30.4011 54.8H30.3911C30.2511 54.7 29.851 54.43 29.371 53.94C29.321 53.89 29.2711 53.82 29.2111 53.77C29.1611 53.72 29.1111 53.67 29.0511 53.6C27.9211 52.29 26.4811 49.8 26.3511 45.53C26.2511 42.01 27.311 38.98 29.431 36.81C29.851 36.39 30.2811 36 30.7711 35.68V35.67C30.8411 35.62 30.9011 35.57 30.9711 35.53C31.0511 35.46 31.1411 35.4 31.2211 35.36C31.3211 35.28 31.4411 35.22 31.5511 35.16C31.7111 35.04 31.8811 34.95 32.0511 34.87C32.0811 34.86 32.091 34.84 32.121 34.84C32.151 34.81 32.1911 34.79 32.2111 34.77C32.2511 34.76 32.2811 34.74 32.3011 34.74C32.3811 34.69 32.4611 34.65 32.5411 34.64C32.6811 34.56 32.841 34.5 33.001 34.44C33.011 34.43 33.0311 34.43 33.0411 34.43C33.2211 34.34 33.4111 34.27 33.6011 34.21C33.7311 34.16 33.861 34.12 34.011 34.08C34.021 34.08 34.051 34.07 34.061 34.07C34.161 34.03 34.2611 34 34.3511 33.99C34.4411 33.96 34.5311 33.94 34.6111 33.92C35.5711 33.68 36.5611 33.57 37.6111 33.57C37.6211 33.57 37.621 33.57 37.621 33.57C38.441 33.57 39.2011 33.64 39.9111 33.78C39.9911 33.79 40.0811 33.81 40.1611 33.83C40.1711 33.83 40.2011 33.83 40.2111 33.84C40.2911 33.85 40.371 33.87 40.451 33.88C40.541 33.91 40.621 33.93 40.701 33.96H40.7111C41.0911 34.05 41.4311 34.17 41.7711 34.31C41.8511 34.35 41.9411 34.38 42.0211 34.41C42.1011 34.45 42.161 34.48 42.241 34.51C42.371 34.58 42.501 34.64 42.631 34.72L42.6411 34.73C42.8211 34.81 42.9811 34.91 43.1511 35.03C43.1911 35.04 43.221 35.07 43.251 35.1C43.261 35.1 43.261 35.11 43.261 35.11C43.301 35.12 43.341 35.15 43.381 35.18C43.451 35.23 43.5211 35.28 43.5911 35.34C47.0911 37.96 47.7011 42.78 47.7811 45.27C47.8811 48.5 46.811 50.91 45.741 52.5C45.701 52.58 45.6511 52.64 45.6111 52.71C45.5611 52.78 45.5111 52.84 45.4711 52.89C44.5511 54.13 43.721 54.76 43.701 54.78C43.611 54.83 43.5811 54.95 43.6111 55.04C43.6211 55.07 44.021 56.17 44.631 57.95V57.96C44.661 58.04 44.6811 58.1 44.7211 58.2C44.7211 58.21 44.7211 58.23 44.7311 58.25C44.7611 58.33 44.781 58.41 44.811 58.49C45.461 60.41 46.321 62.99 47.191 65.85C47.241 65.82 47.2811 65.78 47.3311 65.76C47.4111 65.71 47.5011 65.66 47.5811 65.59C45.9711 60.27 44.4111 55.91 44.1011 55.05C44.4211 54.81 45.091 54.21 45.821 53.23Z" fill="#020035"/>
<path d="M37.5617 39.77C34.7517 39.82 30.9417 40.11 30.8417 43.26C30.7417 46.41 34.6017 50.24 36.8117 50.31C39.0217 50.38 41.6317 47.62 42.7417 44.87C43.8617 42.12 42.7217 39.67 37.5617 39.77Z" fill="#020035"/>
<path d="M42.8611 41.32C42.7811 41.2 42.691 41.1 42.581 40.99C42.501 40.9 42.421 40.82 42.321 40.74C42.241 40.66 42.151 40.6 42.061 40.53C41.121 39.88 39.7011 39.52 37.8611 39.52H37.561C36.281 39.55 34.171 39.59 32.621 40.32C32.541 40.36 32.461 40.4 32.381 40.44C32.291 40.48 32.211 40.53 32.131 40.57C31.271 41.12 30.651 41.95 30.601 43.23C30.571 44.33 31.011 45.61 31.821 46.84C31.891 46.93 31.951 47.02 32.031 47.13V47.14C32.081 47.23 32.1611 47.31 32.2311 47.4C32.4411 47.69 32.6811 47.96 32.9211 48.22C34.2211 49.59 35.711 50.49 36.811 50.51H36.891C39.021 50.51 41.371 48.17 42.601 45.72V45.71C42.681 45.58 42.7411 45.45 42.8011 45.32C42.8711 45.19 42.921 45.07 42.971 44.94C42.981 44.91 42.981 44.9 43.001 44.87C43.541 43.48 43.4911 42.25 42.8611 41.32ZM42.691 44.32V44.33C42.651 44.49 42.591 44.63 42.531 44.78C42.521 44.81 42.521 44.82 42.501 44.85C41.431 47.43 38.911 50.15 36.821 50.07C35.851 50.03 34.461 49.19 33.261 47.92C32.911 47.53 32.581 47.13 32.321 46.73C32.241 46.64 32.181 46.53 32.121 46.44C32.111 46.43 32.1111 46.43 32.1111 46.41C32.0211 46.31 31.971 46.19 31.901 46.08C31.341 45.1 31.051 44.1 31.081 43.25C31.121 42.31 31.5011 41.64 32.1111 41.15C32.1911 41.08 32.2711 41.03 32.3611 40.98C32.4411 40.93 32.521 40.88 32.601 40.82C33.831 40.18 35.661 40.01 37.581 39.98C39.711 39.94 41.291 40.35 42.141 41.17C42.241 41.26 42.341 41.37 42.411 41.48C42.441 41.51 42.4611 41.53 42.4811 41.56C42.5711 41.69 42.651 41.84 42.701 41.98C42.941 42.52 42.951 43.09 42.871 43.63C42.821 43.89 42.771 44.1 42.691 44.32Z" fill="#020035"/>
<path d="M41.1521 38.8362C41.3729 38.8295 41.5422 38.5063 41.5302 38.1144C41.5183 37.7224 41.3296 37.4102 41.1088 37.4169C40.888 37.4237 40.7187 37.7468 40.7306 38.1388C40.7426 38.5307 40.9313 38.843 41.1521 38.8362Z" fill="#020035"/>
<path d="M33.111 39.0864C33.3318 39.0797 33.5012 38.7565 33.4892 38.3646C33.4773 37.9726 33.2885 37.6604 33.0677 37.6671C32.8469 37.6739 32.6777 37.997 32.6896 38.389C32.7016 38.7809 32.8902 39.0932 33.111 39.0864Z" fill="#020035"/>
<path d="M30.061 48.53C30.031 48.53 30.001 48.52 29.971 48.51C29.921 48.49 28.731 47.94 28.551 46.73C28.371 45.55 29.071 44.6 29.101 44.56C29.181 44.46 29.321 44.44 29.421 44.52C29.521 44.6 29.541 44.74 29.471 44.84C29.461 44.85 28.861 45.67 29.011 46.66C29.161 47.62 30.151 48.08 30.161 48.08C30.281 48.13 30.331 48.27 30.281 48.39C30.231 48.48 30.141 48.53 30.061 48.53Z" fill="#020035"/>
<path d="M34.4011 34.89C34.5111 35.44 33.0211 35.64 32.1611 36.13C31.3011 36.62 30.3511 36.15 31.5911 34.98C32.8311 33.8 34.2411 34.06 34.4011 34.89Z" fill="#020035"/>
<path d="M34.6207 34.84C34.5907 34.67 34.5207 34.51 34.4007 34.38C34.3507 34.3 34.2707 34.25 34.1907 34.18C34.1407 34.14 34.0907 34.11 34.0207 34.08C33.9807 34.07 33.9407 34.04 33.8907 34.03C33.8807 34.03 33.8607 34.02 33.8507 34.02C33.7707 33.99 33.6907 33.97 33.6107 33.97C33.6007 33.97 33.6007 33.97 33.6007 33.97C33.3807 33.93 33.1007 33.94 32.8307 34.01C32.8207 34.01 32.8207 34.02 32.8207 34.02C32.5707 34.07 32.3207 34.16 32.0607 34.32C32.0207 34.35 31.9707 34.39 31.9207 34.42C31.9107 34.42 31.8807 34.43 31.8707 34.46H31.8607C31.8307 34.49 31.8107 34.5 31.7807 34.51C31.7407 34.54 31.6907 34.58 31.6507 34.6L31.6107 34.64C31.5607 34.69 31.5107 34.73 31.4507 34.8H31.4407C31.3707 34.85 31.3207 34.92 31.2707 34.97C31.2207 35.04 31.1707 35.09 31.1307 35.14C31.1207 35.15 31.1207 35.15 31.1007 35.17C31.0707 35.21 31.0307 35.26 31.0107 35.3C31.0107 35.3 31.0107 35.3 31.0007 35.31C30.9107 35.44 30.8607 35.56 30.8207 35.66V35.68C30.7807 35.8 30.7807 35.89 30.7907 35.98C30.7907 36.11 30.8407 36.22 30.8907 36.28C31.0207 36.46 31.2607 36.56 31.5207 36.56C31.7007 36.56 31.9107 36.51 32.1207 36.42C32.1707 36.41 32.2407 36.37 32.2907 36.34C32.3007 36.33 32.3207 36.33 32.3307 36.31C32.3407 36.31 32.3407 36.3 32.3607 36.3C32.4307 36.26 32.4907 36.23 32.5707 36.2C32.5807 36.2 32.6007 36.19 32.6107 36.19C32.6807 36.16 32.7407 36.12 32.8207 36.11C32.9807 36.03 33.1607 35.97 33.3307 35.91C34.0107 35.66 34.6507 35.44 34.6507 34.95C34.6407 34.92 34.6407 34.88 34.6207 34.84ZM33.1607 35.46C33.0407 35.5 32.9407 35.54 32.8207 35.58C32.7507 35.61 32.6807 35.63 32.6107 35.66C32.6007 35.66 32.6007 35.67 32.5807 35.67C32.5107 35.71 32.4407 35.74 32.3707 35.77C32.3607 35.77 32.3407 35.77 32.3407 35.78C32.2607 35.81 32.1807 35.83 32.1307 35.88C32.0907 35.88 32.0607 35.91 32.0407 35.92C31.6707 36.13 31.3307 36.12 31.2507 36C31.2007 35.95 31.2107 35.82 31.3407 35.61C31.4107 35.51 31.5107 35.37 31.6707 35.22L31.8407 35.05H31.8507C31.9007 35 31.9707 34.95 32.0207 34.91C32.0307 34.9 32.0607 34.88 32.0707 34.88C32.0807 34.85 32.1107 34.84 32.1207 34.84C32.1507 34.81 32.1907 34.79 32.2107 34.77C32.2407 34.76 32.2507 34.74 32.2807 34.73C32.3507 34.68 32.4207 34.64 32.4907 34.61C32.6607 34.52 32.8407 34.47 33.0007 34.44C33.0107 34.43 33.0307 34.43 33.0407 34.43C33.1307 34.42 33.2407 34.4 33.3307 34.4H33.4107C33.5107 34.41 33.6107 34.43 33.7007 34.45C33.7507 34.46 33.8007 34.49 33.8407 34.52C34.0107 34.6 34.1307 34.74 34.1707 34.93C34.2007 35.09 33.5507 35.33 33.1607 35.46Z" fill="#020035"/>
<path d="M35.1906 42.2765C36.6755 42.2312 37.8705 41.9081 37.8597 41.5548C37.8489 41.2015 36.6365 40.9518 35.1515 40.9971C33.6666 41.0424 32.4716 41.3656 32.4824 41.7189C32.4932 42.0721 33.7057 42.3218 35.1906 42.2765Z" fill="white"/>
<path d="M37.0908 61.5C37.0408 61.5 36.9808 61.5 36.9208 61.5C30.9208 61.44 29.3808 58.63 29.3108 58.51C29.2508 58.4 29.2908 58.26 29.4108 58.2C29.5208 58.14 29.6608 58.18 29.7208 58.3C29.7308 58.33 31.2208 60.98 36.9208 61.04C42.6408 61.09 44.6608 57.97 44.6808 57.93C44.7508 57.82 44.8908 57.79 45.0008 57.86C45.1108 57.93 45.1408 58.07 45.0808 58.18C44.9908 58.31 42.9508 61.5 37.0908 61.5Z" fill="#020035"/>
<path d="M30.4306 55.04C30.4306 55.04 30.9806 55.53 32.5806 55.89C34.4506 56.31 35.6406 56.11 35.6406 56.11C35.6406 56.11 34.8706 57.31 32.4106 57.59C30.2606 57.83 29.8906 57.16 29.8906 57.16L30.4306 55.04Z" fill="#020035"/>
<path d="M35.8406 55.98C35.7906 55.9 35.7006 55.86 35.6006 55.88C35.5906 55.88 34.4206 56.08 32.6306 55.67C31.1206 55.33 30.5906 54.87 30.5706 54.87C30.5306 54.83 30.4906 54.8 30.4306 54.8H30.4207C30.4107 54.8 30.3806 54.8 30.3706 54.81C30.3206 54.82 30.2706 54.88 30.2406 54.93C30.2306 54.94 30.2106 54.96 30.2106 54.98L29.6707 57.1C29.6607 57.15 29.6606 57.22 29.6806 57.27C29.6906 57.28 29.7206 57.32 29.7606 57.36C29.8106 57.41 29.8806 57.48 30.0006 57.53C30.2706 57.7 30.7506 57.86 31.5606 57.86C31.8106 57.86 32.1106 57.85 32.4406 57.81C34.9806 57.52 35.8106 56.28 35.8406 56.23C35.8906 56.15 35.8806 56.06 35.8406 55.98ZM30.1406 57.09L30.5706 55.41C30.9006 55.59 31.5006 55.88 32.5206 56.1C33.6206 56.35 34.4806 56.39 35.0306 56.37C34.6006 56.71 33.7706 57.18 32.3706 57.34C30.8606 57.52 30.3006 57.22 30.1406 57.09Z" fill="#020035"/>
<path d="M39.7387 34.73C39.6687 35.29 41.1688 35.39 42.0488 35.83C42.9288 36.27 43.8588 35.74 42.5488 34.64C41.2388 33.54 39.8487 33.89 39.7387 34.73Z" fill="#020035"/>
<path d="M43.3696 35.3C43.3596 35.25 43.3296 35.2 43.2896 35.13C43.2896 35.13 43.2896 35.12 43.2796 35.12C43.1896 34.96 43.0596 34.78 42.8296 34.6C42.7996 34.57 42.7796 34.55 42.7496 34.52C42.7396 34.49 42.7096 34.48 42.6996 34.47C42.6596 34.43 42.6096 34.4 42.5696 34.37C42.5596 34.36 42.5596 34.36 42.5396 34.34C42.4896 34.3 42.4196 34.26 42.3696 34.22H42.3596C42.3496 34.22 42.3496 34.21 42.3296 34.21C42.2496 34.16 42.1696 34.11 42.1096 34.08C41.6096 33.79 41.1396 33.71 40.7496 33.74H40.7396C40.5396 33.74 40.3896 33.79 40.2396 33.84L40.2296 33.85C40.1996 33.85 40.1796 33.86 40.1496 33.89C40.0596 33.92 39.9796 33.97 39.8996 34.05H39.8896C39.8096 34.1 39.7596 34.17 39.7096 34.25C39.6096 34.38 39.5396 34.54 39.5296 34.71C39.4496 35.26 40.1596 35.46 40.9096 35.68C41.0396 35.72 41.1796 35.76 41.3196 35.8C41.4096 35.83 41.4896 35.85 41.5696 35.89C41.5796 35.89 41.5796 35.89 41.5996 35.9C41.6796 35.91 41.7596 35.94 41.8196 35.98C41.8296 35.98 41.8296 35.98 41.8496 35.99C41.8896 36 41.9396 36.02 41.9796 36.04C42.0196 36.07 42.0596 36.08 42.0996 36.09C42.2996 36.18 42.5096 36.22 42.6896 36.22C42.9796 36.22 43.2396 36.12 43.3696 35.91C43.3796 35.88 43.4096 35.86 43.4196 35.82C43.4496 35.75 43.4596 35.68 43.4596 35.6V35.59C43.4396 35.5 43.4196 35.4 43.3696 35.3ZM42.9496 35.65C42.8696 35.77 42.5396 35.81 42.1496 35.61C42.1096 35.58 42.0696 35.57 42.0196 35.56C41.9396 35.52 41.8596 35.48 41.7696 35.46C41.7596 35.46 41.7596 35.45 41.7396 35.45C41.6696 35.42 41.5996 35.4 41.5196 35.38C41.5096 35.37 41.5096 35.37 41.4896 35.37C41.4096 35.34 41.3196 35.32 41.2396 35.29C41.1596 35.26 41.0796 35.25 40.9996 35.22C40.6096 35.1 39.9396 34.91 39.9696 34.75C39.9796 34.59 40.0896 34.45 40.2296 34.34C40.2796 34.31 40.3296 34.29 40.3996 34.26C40.4496 34.25 40.4996 34.22 40.5596 34.21C40.7796 34.16 41.0696 34.17 41.3796 34.26C41.4796 34.29 41.5896 34.31 41.6896 34.36C41.7696 34.4 41.8496 34.44 41.9296 34.48C41.9396 34.49 41.9596 34.51 41.9696 34.51C42.0196 34.55 42.0696 34.59 42.1296 34.61C42.1296 34.62 42.1396 34.62 42.1396 34.62C42.2096 34.66 42.2696 34.71 42.3396 34.76C42.3496 34.77 42.3796 34.79 42.3896 34.8C42.5196 34.9 42.6296 35.01 42.6996 35.1C42.8396 35.26 42.9096 35.4 42.9396 35.49C42.9796 35.57 42.9796 35.63 42.9496 35.65Z" fill="#020035"/>
<path d="M32.9756 38.3167C33.0364 38.3148 33.0829 38.2238 33.0795 38.1134C33.0762 38.003 33.0242 37.915 32.9634 37.9169C32.9027 37.9187 32.8562 38.0097 32.8596 38.1201C32.863 38.2305 32.9149 38.3185 32.9756 38.3167Z" fill="white"/>
<path d="M41.0167 38.0165C41.0774 38.0146 41.1239 37.9236 41.1206 37.8132C41.1172 37.7028 41.0652 37.6148 41.0045 37.6167C40.9438 37.6186 40.8973 37.7096 40.9006 37.82C40.904 37.9304 40.956 38.0184 41.0167 38.0165Z" fill="white"/>
<path d="M37.5307 69.6C34.2007 69.6 30.9207 68.74 28.0407 67.13C27.9707 67.09 27.8907 67.04 27.8007 66.99C27.7507 66.96 27.6407 66.93 27.5307 66.82C22.4507 63.82 18.9407 58.46 18.2107 52.53C18.1807 52.31 18.3407 52.12 18.5507 52.09C18.7807 52.06 18.9606 52.22 18.9906 52.43C19.6906 58.12 23.0606 63.26 28.0106 66.2C28.0406 66.21 28.1106 66.25 28.1406 66.27L28.2307 66.33C28.2907 66.37 28.3407 66.4 28.4107 66.44C31.1907 68 34.3407 68.82 37.5307 68.82C41.0307 68.82 44.4306 67.85 47.3806 66.01C47.4706 65.95 47.5106 65.92 47.5606 65.9C47.6406 65.85 47.6907 65.82 47.7307 65.78C52.7707 62.48 55.9206 56.96 56.1806 50.99C56.1906 50.77 56.3407 50.6 56.5907 50.61C56.8107 50.62 56.9807 50.8 56.9707 51.02C56.7007 57.24 53.4206 62.99 48.2006 66.4C48.1706 66.43 48.0906 66.48 48.0106 66.53C48.0006 66.54 47.9207 66.59 47.9107 66.59C47.8507 66.63 47.8107 66.66 47.7707 66.68C44.7207 68.59 41.1707 69.6 37.5307 69.6Z" fill="#020035"/>
<path d="M126.179 142.89C126.269 143.17 81.3691 143.7 81.3691 143.7L75.6191 109.37C75.6191 109.37 75.1591 109.2 74.3891 108.86C73.2891 108.36 71.5591 107.51 69.6491 106.31C66.7791 104.52 63.5091 101.92 61.3291 98.53C60.2291 96.83 59.4191 94.93 59.0591 92.82C57.7891 85.28 53.3891 76.16 51.1191 68.71C50.0691 65.27 49.4691 62.18 49.8491 59.75V59.71C49.8591 59.63 49.8791 59.57 49.8891 59.5C49.8991 59.42 49.9191 59.34 49.9391 59.26C50.6191 56.27 53.0391 55.08 55.9791 55.15C56.0591 55.14 56.1491 55.14 56.2291 55.15C56.3091 55.15 56.3991 55.15 56.4791 55.16H56.5691C58.0991 55.28 59.7491 55.7 61.3391 56.36C63.8191 57.39 66.1591 59.02 67.7291 60.93C68.4391 61.78 69.0691 62.57 69.6391 63.27C73.0391 67.49 74.3791 69.5 74.3791 69.5V41.63C74.3791 41.63 90.9291 56.03 98.2891 67.37C100.699 71.09 104.749 81.05 109.289 93.48C109.849 95.03 110.429 96.62 111.019 98.25C112.329 101.89 113.669 105.69 115.009 109.56L115.759 111.72C119.399 122.25 123.039 133.2 126.179 142.89Z" fill="white"/>
<path d="M81.3696 144.1C81.1796 144.1 81.0097 143.96 80.9797 143.77L75.2696 109.66C75.0596 109.58 74.6997 109.43 74.2297 109.22C73.0997 108.71 71.3596 107.85 69.4396 106.64C65.6996 104.3 62.8596 101.64 60.9996 98.74C59.7996 96.88 59.0196 94.91 58.6796 92.88C57.8896 88.18 55.8697 82.85 53.9097 77.69C52.7197 74.56 51.5996 71.61 50.7596 68.82C49.5396 64.8 49.1297 61.9 49.4797 59.69C49.4897 59.57 49.5096 59.5 49.5196 59.43C49.5396 59.34 49.5496 59.24 49.5896 59.14C50.2496 56.25 52.4996 54.66 56.0096 54.76C56.0596 54.74 56.1896 54.74 56.3196 54.77C56.3496 54.77 56.4596 54.77 56.5596 54.78C58.1896 54.9 59.8796 55.32 61.5096 56.01C64.1196 57.1 66.4997 58.81 68.0497 60.69C68.5197 61.26 68.9596 61.8 69.3796 62.31L69.9697 63.03C71.9797 65.53 73.2896 67.27 74.0096 68.27V41.63C74.0096 41.48 74.0996 41.34 74.2396 41.27C74.3796 41.2 74.5497 41.23 74.6597 41.33C74.8297 41.47 91.3396 55.9 98.6396 67.16C100.87 70.6 104.58 79.41 109.68 93.35L111.41 98.12C112.67 101.61 115.69 110.31 116.1 111.5C116.1 111.5 116.12 111.55 116.14 111.6C116.22 111.83 123.46 133.2 126.57 142.78C126.64 142.99 126.52 143.21 126.32 143.28C126.11 143.35 125.89 143.23 125.82 143.03C122.71 133.45 115.47 112.09 115.4 111.87C115.39 111.86 115.37 111.78 115.36 111.77C114.95 110.58 111.93 101.89 110.67 98.4L108.94 93.64C103.93 79.95 100.14 70.95 97.9797 67.61C91.5597 57.72 77.9297 45.32 74.7897 42.52V69.54C74.7897 69.71 74.6796 69.87 74.5096 69.92C74.3396 69.97 74.1596 69.9 74.0696 69.76C74.0596 69.74 72.6997 67.71 69.3497 63.56L68.7596 62.84C68.3496 62.33 67.9096 61.79 67.4396 61.22C65.9696 59.43 63.6896 57.8 61.1996 56.76C59.6396 56.11 58.0396 55.7 56.5596 55.58C56.5496 55.58 56.4496 55.58 56.4396 55.58C56.3796 55.57 56.3096 55.57 56.2496 55.57C56.1496 55.56 56.0996 55.56 56.0696 55.56C54.2196 55.5 51.1297 55.97 50.3497 59.37C50.3197 59.46 50.3097 59.52 50.2997 59.58L50.2596 59.78C49.9296 61.91 50.3296 64.7 51.5196 68.6C52.3596 71.36 53.4797 74.3 54.6597 77.42C56.6297 82.61 58.6697 87.98 59.4697 92.76C59.7897 94.68 60.5296 96.55 61.6796 98.32C63.4796 101.13 66.2296 103.7 69.8696 105.98C71.7596 107.17 73.4596 108.01 74.5596 108.51C75.3096 108.84 75.7596 109.01 75.7696 109.01C75.8996 109.06 75.9996 109.18 76.0196 109.31L81.7696 143.64C81.8096 143.85 81.6596 144.06 81.4496 144.09C81.4096 144.09 81.3896 144.1 81.3696 144.1Z" fill="#020035"/>
<path d="M80.3704 76.78C80.2704 76.78 80.1605 76.74 80.0805 76.66C79.9105 76.48 75.8105 72.16 74.0705 69.76C73.9405 69.58 73.9805 69.34 74.1605 69.21C74.3405 69.08 74.5805 69.12 74.7105 69.3C76.4205 71.66 80.6105 76.07 80.6505 76.12C80.8005 76.28 80.7905 76.53 80.6405 76.68C80.5605 76.74 80.4604 76.78 80.3704 76.78Z" fill="#020035"/>
<path d="M7.28018 114.65H67.5202C71.3202 114.65 74.3902 111.57 74.3902 107.78V7.27C74.3902 3.47 71.3102 0.400002 67.5202 0.400002H7.28018C3.48018 0.400002 0.410181 3.48 0.410181 7.27V107.78C0.400181 111.58 3.48018 114.65 7.28018 114.65Z" fill="#020035"/>
<path d="M67.5198 115.05H7.27979C3.26978 115.05 0.00976562 111.79 0.00976562 107.78V7.27C0.00976562 3.26 3.26978 0 7.27979 0H67.5198C71.5298 0 74.7898 3.26 74.7898 7.27V107.78C74.7798 111.79 71.5198 115.05 67.5198 115.05ZM7.27979 0.79C3.70979 0.79 0.799805 3.7 0.799805 7.27V107.78C0.799805 111.35 3.70979 114.26 7.27979 114.26H67.5198C71.0898 114.26 73.9998 111.35 73.9998 107.78V7.27C73.9998 3.7 71.0898 0.79 67.5198 0.79H7.27979Z" fill="#020035"/>
<path d="M9.97064 111.1H64.8306C67.5006 111.1 69.6606 108.94 69.6606 106.27V8.77C69.6606 6.1 67.5006 3.94 64.8306 3.94H9.97064C7.30064 3.94 5.14062 6.1 5.14062 8.77V106.27C5.14062 108.94 7.30064 111.1 9.97064 111.1Z" fill="white"/>
<path d="M28.0206 12.13H46.7706C48.1306 12.13 49.2306 11.03 49.2306 9.67C49.2306 8.31 48.1306 7.21 46.7706 7.21H28.0206C26.6606 7.21 25.5605 8.31 25.5605 9.67C25.5605 11.03 26.6606 12.13 28.0206 12.13Z" fill="#020035"/>
<path d="M46.7701 12.53H28.0201C26.4501 12.53 25.1602 11.25 25.1602 9.67C25.1602 8.09 26.4401 6.81 28.0201 6.81H46.7701C48.3401 6.81 49.6301 8.09 49.6301 9.67C49.6301 11.25 48.3501 12.53 46.7701 12.53ZM28.0201 7.6C26.8801 7.6 25.9501 8.53 25.9501 9.67C25.9501 10.81 26.8801 11.74 28.0201 11.74H46.7701C47.9101 11.74 48.8401 10.81 48.8401 9.67C48.8401 8.53 47.9101 7.6 46.7701 7.6H28.0201Z" fill="#020035"/>
<path d="M15.2414 94.96H59.5614C60.5514 94.96 61.3615 94.15 61.3615 93.16V27.44C61.3615 26.45 60.5614 25.64 59.5614 25.64H15.2414C14.2514 25.64 13.4414 26.45 13.4414 27.44V93.16C13.4414 94.15 14.2514 94.96 15.2414 94.96Z" fill="#BFE5EF"/>
<path d="M59.5607 95.35H15.2407C14.0307 95.35 13.0508 94.37 13.0508 93.16V27.44C13.0508 26.23 14.0307 25.25 15.2407 25.25H59.5607C60.7707 25.25 61.7507 26.23 61.7507 27.44V93.16C61.7507 94.37 60.7607 95.35 59.5607 95.35ZM15.2407 26.04C14.4707 26.04 13.8408 26.67 13.8408 27.44V93.16C13.8408 93.93 14.4707 94.56 15.2407 94.56H59.5607C60.3307 94.56 60.9608 93.93 60.9608 93.16V27.44C60.9608 26.67 60.3307 26.04 59.5607 26.04H15.2407Z" fill="#020035"/>
<path d="M49.2299 78.06H25.5599C25.3399 78.06 25.1699 77.88 25.1699 77.67C25.1699 77.45 25.3499 77.28 25.5599 77.28H49.2299C49.4499 77.28 49.6199 77.46 49.6199 77.67C49.6299 77.88 49.4499 78.06 49.2299 78.06Z" fill="#020035"/>
<path d="M46.9614 84.68H27.8314C27.6114 84.68 27.4414 84.5 27.4414 84.29C27.4414 84.07 27.6214 83.9 27.8314 83.9H46.9614C47.1814 83.9 47.3514 84.08 47.3514 84.29C47.3514 84.51 47.1814 84.68 46.9614 84.68Z" fill="#020035"/>
<path d="M56.5909 50.14C56.5909 50.24 56.5909 50.35 56.5809 50.45C56.5909 50.63 56.5809 50.82 56.5709 51C56.3009 57.31 52.941 62.82 47.981 66.07C47.901 66.14 47.811 66.19 47.731 66.24C47.681 66.27 47.6409 66.31 47.5909 66.33C44.6709 68.15 41.2309 69.2 37.5309 69.2C34.1509 69.2 30.981 68.32 28.231 66.78C28.131 66.73 28.0309 66.66 27.9309 66.6C27.8909 66.59 27.8509 66.57 27.8109 66.53C22.2209 63.22 18.4609 57.11 18.4609 50.14C18.4609 49.8 18.4709 49.46 18.4909 49.12C18.5209 48.58 18.5709 48.06 18.6509 47.54C18.7309 46.94 18.8309 46.34 18.9909 45.75C20.1809 40.66 23.4309 36.35 27.8209 33.76C27.9409 33.68 28.0409 33.62 28.1609 33.56C28.261 33.49 28.3709 33.43 28.4709 33.38C31.1709 31.91 34.2609 31.09 37.5309 31.09C40.4909 31.09 43.291 31.77 45.791 32.98C45.891 33.02 46.0009 33.07 46.0909 33.14C46.2109 33.18 46.3109 33.24 46.4309 33.31C52.3909 36.45 56.4709 42.66 56.5809 49.84C56.5909 49.92 56.5909 50.04 56.5909 50.14Z" fill="#020035"/>
<path d="M37.5303 69.6C34.2003 69.6 30.9203 68.74 28.0403 67.13C27.9703 67.09 27.8904 67.04 27.8004 66.99C27.7504 66.96 27.6403 66.93 27.5303 66.82C21.7203 63.39 18.0703 56.98 18.0703 50.15C18.0703 49.8 18.0803 49.46 18.1003 49.11C18.1303 48.56 18.1803 48.03 18.2603 47.48C18.3503 46.79 18.4704 46.18 18.6104 45.64C19.8004 40.55 23.0803 36.09 27.6203 33.41C27.7403 33.33 27.8603 33.25 28.0003 33.19C28.0703 33.14 28.1804 33.07 28.3004 33.01C31.1004 31.49 34.3003 30.68 37.5403 30.68C40.4803 30.68 43.3203 31.33 45.9703 32.6C46.0703 32.64 46.1803 32.69 46.2803 32.76C46.3703 32.8 46.4603 32.85 46.5603 32.9C52.9103 36.25 56.8803 42.71 56.9803 49.8C56.9903 49.88 56.9903 50.01 56.9903 50.13C56.9903 50.25 56.9903 50.37 56.9703 50.5C56.9903 50.61 56.9703 50.81 56.9603 51.01C56.6903 57.24 53.4103 62.99 48.1903 66.41C48.1603 66.44 48.0803 66.49 48.0003 66.54C47.9903 66.55 47.9103 66.6 47.9003 66.6C47.8403 66.64 47.8003 66.67 47.7603 66.69C44.7203 68.59 41.1703 69.6 37.5303 69.6ZM37.5303 31.47C34.4203 31.47 31.3603 32.25 28.6603 33.71C28.5503 33.76 28.4603 33.82 28.3703 33.88C28.2203 33.95 28.1403 34.01 28.0403 34.07C23.6803 36.65 20.5303 40.93 19.3803 45.83C19.2403 46.35 19.1304 46.92 19.0504 47.59C18.9704 48.12 18.9203 48.62 18.9003 49.14C18.8903 49.47 18.8703 49.81 18.8703 50.14C18.8703 56.7 22.3803 62.85 28.0303 66.2C28.0603 66.21 28.1303 66.25 28.1603 66.27L28.2503 66.33C28.3103 66.37 28.3603 66.4 28.4303 66.44C31.2103 68 34.3604 68.82 37.5504 68.82C41.0504 68.82 44.4503 67.85 47.4003 66.01C47.4903 65.95 47.5303 65.92 47.5803 65.9C47.6603 65.85 47.7103 65.82 47.7503 65.78C52.7903 62.48 55.9403 56.96 56.2003 50.99C56.2103 50.8 56.2203 50.64 56.2103 50.49C56.2203 50.32 56.2203 50.23 56.2203 50.15C56.2203 50.06 56.2203 49.96 56.2103 49.87C56.1103 43.02 52.3003 36.82 46.2703 33.64C46.1203 33.56 46.0603 33.52 45.9903 33.49C45.9603 33.48 45.9203 33.46 45.8903 33.44C45.8303 33.4 45.7603 33.36 45.6703 33.33C43.0703 32.09 40.3503 31.47 37.5303 31.47Z" fill="#020035"/>
<path d="M41.6895 34.69C41.6895 34.69 46.8395 30.18 51.4395 33.86C56.0395 37.54 57.5795 46.07 56.3995 49.51C55.1495 53.15 49.6795 55.62 46.5995 53.57C43.5195 51.52 42.8295 45.7 42.8295 45.7L41.6895 34.69Z" fill="#E57225"/>
<path d="M32.6109 34.96C32.6109 34.96 27.1909 30.77 22.8309 34.72C18.4709 38.67 17.5309 47.25 18.8309 50.64C20.2309 54.3 25.9109 56.33 28.8609 54.1C31.8109 51.87 32.1509 46.02 32.1509 46.02L32.6109 34.96Z" fill="#E57225"/>
<path d="M51.5912 33.66C49.4812 31.97 47.2412 31.97 45.4212 32.47C45.2812 32.51 45.1312 32.55 45.0012 32.6C44.0312 32.93 43.1912 33.36 42.5912 33.75H42.5812C42.5012 33.8 42.4412 33.85 42.3712 33.89C42.2912 33.94 42.2312 33.98 42.1612 34.02C42.1512 34.03 42.1212 34.05 42.1112 34.06C42.0612 34.1 42.0212 34.13 41.9812 34.15C41.9812 34.16 41.9712 34.16 41.9712 34.16C41.9412 34.17 41.9212 34.2 41.9012 34.21C41.8612 34.25 41.8212 34.28 41.7812 34.3C41.7512 34.33 41.7312 34.34 41.7012 34.35C41.6012 34.44 41.5412 34.48 41.5312 34.49C41.4812 34.53 41.4512 34.61 41.4512 34.69L41.4612 34.81L41.5112 35.31V35.36L41.5412 35.62L41.5712 35.87L42.0512 40.52L42.0912 40.83V40.84L42.1212 41.17L42.5012 44.82L42.5512 45.25C42.5512 45.25 42.5512 45.25 42.5512 45.26L42.5912 45.69V45.7C42.6412 46.04 43.2312 50.43 45.4812 52.86C45.5312 52.93 45.5812 52.98 45.6512 53.03C45.7012 53.08 45.7512 53.13 45.8112 53.19C46.0212 53.39 46.2312 53.56 46.4612 53.71C47.2512 54.23 48.2012 54.5 49.2512 54.5C49.4512 54.5 49.6612 54.49 49.8512 54.47C50.4312 54.42 51.0312 54.29 51.6312 54.08C53.6112 53.41 55.3012 52.05 56.1912 50.48C56.2912 50.28 56.3912 50.09 56.4812 49.89C56.5112 49.81 56.5512 49.75 56.5712 49.67V49.66C56.5812 49.62 56.6012 49.58 56.6112 49.54C57.8912 45.89 56.1412 37.3 51.5912 33.66ZM56.4712 48.07C56.4212 48.54 56.3412 48.97 56.2212 49.33C56.2212 49.37 56.2112 49.41 56.1912 49.43C56.1412 49.59 56.0711 49.76 55.9911 49.91C55.2311 51.55 53.5112 52.99 51.5012 53.68C50.9812 53.86 50.4512 53.98 49.9512 54.02C48.7212 54.16 47.5912 53.94 46.7312 53.37C46.4912 53.21 46.2712 53.03 46.0912 52.83C46.0212 52.78 45.9712 52.73 45.9312 52.67C45.8612 52.62 45.8112 52.57 45.7612 52.5C43.6112 50.1 43.0612 45.72 43.0612 45.66L42.9812 44.87L42.9112 44.33C42.9112 44.33 42.9212 44.33 42.9112 44.32V44.31L42.8412 43.64L42.6712 41.99L42.6012 41.4C42.6012 41.39 42.6012 41.39 42.6012 41.39V41.38L42.5612 40.99L42.0512 36.08L42.0412 35.83L42.0212 35.56V35.51L41.9911 35.25L41.9612 34.99L41.9312 34.78C41.9812 34.74 42.0512 34.69 42.1312 34.62C42.1712 34.59 42.2112 34.55 42.2512 34.53C42.2812 34.52 42.3012 34.49 42.3312 34.48C42.3712 34.45 42.4112 34.43 42.4512 34.4C42.4812 34.37 42.5212 34.36 42.5412 34.33C42.5512 34.33 42.5512 34.32 42.5712 34.32C42.5812 34.31 42.6112 34.29 42.6412 34.27C42.6812 34.24 42.7212 34.22 42.7712 34.19H42.7812C42.8512 34.14 42.9112 34.1 42.9812 34.06C43.6312 33.64 44.5812 33.17 45.6512 32.89C45.7812 32.86 45.9212 32.82 46.0712 32.8C47.6812 32.47 49.5412 32.62 51.3112 34.03C55.4312 37.32 56.9312 44.27 56.4712 48.05V48.07Z" fill="#020035"/>
<path d="M32.7503 34.78C32.7503 34.78 32.6704 34.73 32.5504 34.65C32.5404 34.64 32.5103 34.62 32.5003 34.62C32.4503 34.57 32.3803 34.53 32.3203 34.49C32.3103 34.48 32.2904 34.48 32.2804 34.46C32.2804 34.46 32.2703 34.45 32.2503 34.45C32.2103 34.41 32.1604 34.38 32.1104 34.35C32.1004 34.35 32.0803 34.34 32.0603 34.32L32.0504 34.31C31.9704 34.27 31.9103 34.23 31.8303 34.19C31.1803 33.81 30.2103 33.34 29.0703 33.06C28.7703 32.98 28.4404 32.92 28.1104 32.88C26.3904 32.66 24.4603 32.96 22.6803 34.56C19.0303 37.86 17.6503 44.45 18.1403 48.64C18.2103 49.26 18.3404 49.83 18.4804 50.33V50.34C18.5304 50.48 18.5703 50.6 18.6203 50.73C19.3703 52.65 21.3004 54.28 23.6704 54.96C24.4204 55.17 25.1403 55.27 25.8203 55.27C27.0503 55.27 28.1503 54.94 29.0003 54.29C29.0103 54.28 29.0404 54.26 29.0504 54.25C29.1204 54.2 29.1804 54.15 29.2304 54.09C29.3004 54.04 29.3503 54 29.4003 53.93C31.2303 52.23 31.9404 49.18 32.2304 47.41C32.2404 47.29 32.2603 47.19 32.2703 47.08C32.3003 46.95 32.3103 46.83 32.3203 46.73C32.3603 46.34 32.3903 46.08 32.3903 46.04L32.5603 41.86V41.85L32.5703 41.64V41.63L32.6004 40.84L32.6104 40.6V40.59L32.6203 40.33L32.8004 36.1L32.8103 35.84V35.45L32.8203 35.2L32.8303 34.98C32.8403 34.89 32.8203 34.83 32.7503 34.78ZM32.3203 36.31L32.1403 40.58L32.1303 40.87V40.9L32.1203 41.17L31.9204 46.02C31.9204 46.02 31.9204 46.05 31.9104 46.1C31.9104 46.18 31.9003 46.31 31.8803 46.49V46.52C31.8703 46.62 31.8503 46.72 31.8303 46.86C31.6303 48.43 30.9804 51.85 29.0904 53.6C29.0404 53.67 28.9704 53.72 28.9204 53.76C28.8504 53.83 28.8003 53.88 28.7403 53.92L28.7304 53.93C27.5104 54.85 25.7203 55.07 23.8103 54.52C21.5703 53.88 19.7503 52.36 19.0603 50.58C18.8203 49.96 18.6704 49.14 18.5904 48.18C18.5904 48.17 18.5904 48.17 18.5904 48.15C18.5404 47.27 18.5503 46.29 18.6403 45.26C18.9503 41.63 20.2903 37.36 23.0003 34.9C24.3603 33.67 25.8303 33.25 27.1803 33.25C27.2703 33.25 27.3804 33.25 27.4704 33.26C27.8104 33.27 28.1404 33.31 28.4704 33.38H28.4804C29.7104 33.6 30.7803 34.1 31.5003 34.52C31.5503 34.55 31.5903 34.57 31.6403 34.61H31.6503C31.6603 34.61 31.6803 34.62 31.7003 34.64C31.7503 34.67 31.8004 34.69 31.8404 34.73C31.8504 34.73 31.8703 34.74 31.8703 34.74C31.8803 34.75 31.9004 34.75 31.9104 34.77C31.9804 34.81 32.0303 34.85 32.0803 34.87L32.0904 34.88C32.2204 34.96 32.3103 35.02 32.3803 35.08L32.3703 35.43L32.3404 35.68V35.78L32.3303 35.95V36.04L32.3203 36.31Z" fill="#020035"/>
<path d="M44.9703 58.32C45.6203 60.24 46.4903 62.86 47.3703 65.76C47.3203 65.79 47.2803 65.83 47.2303 65.85C44.3103 67.67 40.8703 68.72 37.1703 68.72C33.7903 68.72 30.6203 67.84 27.8703 66.3C27.7703 66.25 27.6703 66.18 27.5703 66.12C28.2603 63.25 28.9303 60.69 29.4403 58.7C29.4403 58.66 29.4503 58.62 29.4703 58.58C29.5403 58.65 29.6103 58.71 29.6903 58.78C30.9703 59.95 32.8903 61.27 36.8103 61.27H36.9303C41.3203 61.26 43.6303 59.58 44.7503 58.22C44.8003 58.17 44.8403 58.12 44.8803 58.06C44.8803 58.07 44.8903 58.1 44.8903 58.11C44.9103 58.17 44.9403 58.25 44.9703 58.32Z" fill="#FFEDDF"/>
<path d="M43.8501 54.97C43.8501 54.97 44.2801 56.14 44.9301 58.04C43.8501 59.43 41.5101 61.38 36.9201 61.26C32.4401 61.14 30.7501 59.74 29.4701 58.53C30.0301 56.37 30.3901 55.04 30.3901 55.04C30.3901 55.04 26.3801 52.89 26.1601 45.54C25.9301 38.18 30.8401 33.33 37.6401 33.34C44.8001 33.35 47.8501 38.79 48.0401 45.27C48.2401 51.76 43.8501 54.97 43.8501 54.97Z" fill="#FFC783"/>
<path d="M45.821 53.23C45.861 53.16 45.911 53.11 45.951 53.05V53.04C46.001 52.97 46.0411 52.92 46.0911 52.84C47.2211 51.2 48.371 48.68 48.261 45.27C48.121 40.41 46.4511 36.81 43.5911 34.85C43.4511 34.73 43.3011 34.64 43.1411 34.56C42.9711 34.44 42.801 34.35 42.631 34.27C42.551 34.22 42.4911 34.18 42.4111 34.17H42.381C42.311 34.1 42.261 34.08 42.201 34.07C42.191 34.07 42.1711 34.06 42.1611 34.04C41.9811 33.94 41.7911 33.86 41.6111 33.82C41.3311 33.7 41.0711 33.61 40.7811 33.53H40.7711C40.6411 33.49 40.5111 33.45 40.3611 33.44C39.5111 33.22 38.591 33.11 37.621 33.11C37.621 33.11 37.6211 33.11 37.6111 33.11C36.3911 33.11 35.2011 33.27 34.1011 33.58C33.9311 33.63 33.7611 33.67 33.6011 33.72C33.5911 33.72 33.591 33.72 33.571 33.72C33.311 33.81 33.061 33.9 32.811 34.01C32.801 34.01 32.8011 34.02 32.8011 34.02C32.5611 34.11 32.3311 34.23 32.0911 34.35C32.0211 34.38 31.9611 34.4 31.8911 34.43C31.8811 34.43 31.8511 34.44 31.8411 34.47H31.8311C31.8011 34.5 31.781 34.51 31.751 34.52C31.711 34.55 31.661 34.59 31.621 34.61H31.6111C31.4811 34.66 31.341 34.74 31.201 34.85C31.201 34.85 31.201 34.85 31.191 34.86C30.431 35.29 29.741 35.84 29.121 36.48C26.911 38.76 25.7911 41.89 25.9111 45.54C26.0411 49.97 27.5111 52.53 28.7111 53.91C28.7611 53.98 28.811 54.04 28.871 54.09L29.0311 54.25C29.5011 54.73 29.8911 55.02 30.1011 55.15C30.0011 55.56 29.7211 56.67 29.3311 58.24V58.25C29.3211 58.3 29.3011 58.35 29.2911 58.41C29.2811 58.42 29.2811 58.42 29.2811 58.42C29.2811 58.42 29.2811 58.43 29.2911 58.45C28.7911 60.44 28.121 63.1 27.431 66.04C27.471 66.08 27.5111 66.09 27.5511 66.11C27.6511 66.18 27.7511 66.24 27.8511 66.29C28.5011 63.49 29.131 60.92 29.631 58.96C29.641 58.89 29.6611 58.83 29.6711 58.76C29.6711 58.75 29.681 58.75 29.681 58.73V58.72C29.711 58.6 29.7311 58.5 29.7711 58.38C29.8411 58.08 29.9111 57.79 29.9811 57.53C29.9911 57.45 30.0211 57.39 30.0311 57.31C30.3311 56.12 30.5311 55.35 30.5811 55.15C30.5911 55.12 30.5911 55.1 30.5911 55.1C30.6211 55 30.5611 54.88 30.4711 54.84C30.4711 54.84 30.4411 54.83 30.4011 54.8H30.3911C30.2511 54.7 29.851 54.43 29.371 53.94C29.321 53.89 29.2711 53.82 29.2111 53.77C29.1611 53.72 29.1111 53.67 29.0511 53.6C27.9211 52.29 26.4811 49.8 26.3511 45.53C26.2511 42.01 27.311 38.98 29.431 36.81C29.851 36.39 30.2811 36 30.7711 35.68V35.67C30.8411 35.62 30.9011 35.57 30.9711 35.53C31.0511 35.46 31.1411 35.4 31.2211 35.36C31.3211 35.28 31.4411 35.22 31.5511 35.16C31.7111 35.04 31.8811 34.95 32.0511 34.87C32.0811 34.86 32.091 34.84 32.121 34.84C32.151 34.81 32.1911 34.79 32.2111 34.77C32.2511 34.76 32.2811 34.74 32.3011 34.74C32.3811 34.69 32.4611 34.65 32.5411 34.64C32.6811 34.56 32.841 34.5 33.001 34.44C33.011 34.43 33.0311 34.43 33.0411 34.43C33.2211 34.34 33.4111 34.27 33.6011 34.21C33.7311 34.16 33.861 34.12 34.011 34.08C34.021 34.08 34.051 34.07 34.061 34.07C34.161 34.03 34.2611 34 34.3511 33.99C34.4411 33.96 34.5311 33.94 34.6111 33.92C35.5711 33.68 36.5611 33.57 37.6111 33.57C37.6211 33.57 37.621 33.57 37.621 33.57C38.441 33.57 39.2011 33.64 39.9111 33.78C39.9911 33.79 40.0811 33.81 40.1611 33.83C40.1711 33.83 40.2011 33.83 40.2111 33.84C40.2911 33.85 40.371 33.87 40.451 33.88C40.541 33.91 40.621 33.93 40.701 33.96H40.7111C41.0911 34.05 41.4311 34.17 41.7711 34.31C41.8511 34.35 41.9411 34.38 42.0211 34.41C42.1011 34.45 42.161 34.48 42.241 34.51C42.371 34.58 42.501 34.64 42.631 34.72L42.6411 34.73C42.8211 34.81 42.9811 34.91 43.1511 35.03C43.1911 35.04 43.221 35.07 43.251 35.1C43.261 35.1 43.261 35.11 43.261 35.11C43.301 35.12 43.341 35.15 43.381 35.18C43.451 35.23 43.5211 35.28 43.5911 35.34C47.0911 37.96 47.7011 42.78 47.7811 45.27C47.8811 48.5 46.811 50.91 45.741 52.5C45.701 52.58 45.6511 52.64 45.6111 52.71C45.5611 52.78 45.5111 52.84 45.4711 52.89C44.5511 54.13 43.721 54.76 43.701 54.78C43.611 54.83 43.5811 54.95 43.6111 55.04C43.6211 55.07 44.021 56.17 44.631 57.95V57.96C44.661 58.04 44.6811 58.1 44.7211 58.2C44.7211 58.21 44.7211 58.23 44.7311 58.25C44.7611 58.33 44.781 58.41 44.811 58.49C45.461 60.41 46.321 62.99 47.191 65.85C47.241 65.82 47.2811 65.78 47.3311 65.76C47.4111 65.71 47.5011 65.66 47.5811 65.59C45.9711 60.27 44.4111 55.91 44.1011 55.05C44.4211 54.81 45.091 54.21 45.821 53.23Z" fill="#020035"/>
<path d="M37.5617 39.77C34.7517 39.82 30.9417 40.11 30.8417 43.26C30.7417 46.41 34.6017 50.24 36.8117 50.31C39.0217 50.38 41.6317 47.62 42.7417 44.87C43.8617 42.12 42.7217 39.67 37.5617 39.77Z" fill="#020035"/>
<path d="M42.8611 41.32C42.7811 41.2 42.691 41.1 42.581 40.99C42.501 40.9 42.421 40.82 42.321 40.74C42.241 40.66 42.151 40.6 42.061 40.53C41.121 39.88 39.7011 39.52 37.8611 39.52H37.561C36.281 39.55 34.171 39.59 32.621 40.32C32.541 40.36 32.461 40.4 32.381 40.44C32.291 40.48 32.211 40.53 32.131 40.57C31.271 41.12 30.651 41.95 30.601 43.23C30.571 44.33 31.011 45.61 31.821 46.84C31.891 46.93 31.951 47.02 32.031 47.13V47.14C32.081 47.23 32.1611 47.31 32.2311 47.4C32.4411 47.69 32.6811 47.96 32.9211 48.22C34.2211 49.59 35.711 50.49 36.811 50.51H36.891C39.021 50.51 41.371 48.17 42.601 45.72V45.71C42.681 45.58 42.7411 45.45 42.8011 45.32C42.8711 45.19 42.921 45.07 42.971 44.94C42.981 44.91 42.981 44.9 43.001 44.87C43.541 43.48 43.4911 42.25 42.8611 41.32ZM42.691 44.32V44.33C42.651 44.49 42.591 44.63 42.531 44.78C42.521 44.81 42.521 44.82 42.501 44.85C41.431 47.43 38.911 50.15 36.821 50.07C35.851 50.03 34.461 49.19 33.261 47.92C32.911 47.53 32.581 47.13 32.321 46.73C32.241 46.64 32.181 46.53 32.121 46.44C32.111 46.43 32.1111 46.43 32.1111 46.41C32.0211 46.31 31.971 46.19 31.901 46.08C31.341 45.1 31.051 44.1 31.081 43.25C31.121 42.31 31.5011 41.64 32.1111 41.15C32.1911 41.08 32.2711 41.03 32.3611 40.98C32.4411 40.93 32.521 40.88 32.601 40.82C33.831 40.18 35.661 40.01 37.581 39.98C39.711 39.94 41.291 40.35 42.141 41.17C42.241 41.26 42.341 41.37 42.411 41.48C42.441 41.51 42.4611 41.53 42.4811 41.56C42.5711 41.69 42.651 41.84 42.701 41.98C42.941 42.52 42.951 43.09 42.871 43.63C42.821 43.89 42.771 44.1 42.691 44.32Z" fill="#020035"/>
<path d="M41.1521 38.8362C41.3729 38.8295 41.5422 38.5063 41.5302 38.1144C41.5183 37.7224 41.3296 37.4102 41.1088 37.4169C40.888 37.4237 40.7187 37.7468 40.7306 38.1388C40.7426 38.5307 40.9313 38.843 41.1521 38.8362Z" fill="#020035"/>
<path d="M33.111 39.0864C33.3318 39.0797 33.5012 38.7565 33.4892 38.3646C33.4773 37.9726 33.2885 37.6604 33.0677 37.6671C32.8469 37.6739 32.6777 37.997 32.6896 38.389C32.7016 38.7809 32.8902 39.0932 33.111 39.0864Z" fill="#020035"/>
<path d="M30.061 48.53C30.031 48.53 30.001 48.52 29.971 48.51C29.921 48.49 28.731 47.94 28.551 46.73C28.371 45.55 29.071 44.6 29.101 44.56C29.181 44.46 29.321 44.44 29.421 44.52C29.521 44.6 29.541 44.74 29.471 44.84C29.461 44.85 28.861 45.67 29.011 46.66C29.161 47.62 30.151 48.08 30.161 48.08C30.281 48.13 30.331 48.27 30.281 48.39C30.231 48.48 30.141 48.53 30.061 48.53Z" fill="#020035"/>
<path d="M34.4011 34.89C34.5111 35.44 33.0211 35.64 32.1611 36.13C31.3011 36.62 30.3511 36.15 31.5911 34.98C32.8311 33.8 34.2411 34.06 34.4011 34.89Z" fill="#020035"/>
<path d="M34.6207 34.84C34.5907 34.67 34.5207 34.51 34.4007 34.38C34.3507 34.3 34.2707 34.25 34.1907 34.18C34.1407 34.14 34.0907 34.11 34.0207 34.08C33.9807 34.07 33.9407 34.04 33.8907 34.03C33.8807 34.03 33.8607 34.02 33.8507 34.02C33.7707 33.99 33.6907 33.97 33.6107 33.97C33.6007 33.97 33.6007 33.97 33.6007 33.97C33.3807 33.93 33.1007 33.94 32.8307 34.01C32.8207 34.01 32.8207 34.02 32.8207 34.02C32.5707 34.07 32.3207 34.16 32.0607 34.32C32.0207 34.35 31.9707 34.39 31.9207 34.42C31.9107 34.42 31.8807 34.43 31.8707 34.46H31.8607C31.8307 34.49 31.8107 34.5 31.7807 34.51C31.7407 34.54 31.6907 34.58 31.6507 34.6L31.6107 34.64C31.5607 34.69 31.5107 34.73 31.4507 34.8H31.4407C31.3707 34.85 31.3207 34.92 31.2707 34.97C31.2207 35.04 31.1707 35.09 31.1307 35.14C31.1207 35.15 31.1207 35.15 31.1007 35.17C31.0707 35.21 31.0307 35.26 31.0107 35.3C31.0107 35.3 31.0107 35.3 31.0007 35.31C30.9107 35.44 30.8607 35.56 30.8207 35.66V35.68C30.7807 35.8 30.7807 35.89 30.7907 35.98C30.7907 36.11 30.8407 36.22 30.8907 36.28C31.0207 36.46 31.2607 36.56 31.5207 36.56C31.7007 36.56 31.9107 36.51 32.1207 36.42C32.1707 36.41 32.2407 36.37 32.2907 36.34C32.3007 36.33 32.3207 36.33 32.3307 36.31C32.3407 36.31 32.3407 36.3 32.3607 36.3C32.4307 36.26 32.4907 36.23 32.5707 36.2C32.5807 36.2 32.6007 36.19 32.6107 36.19C32.6807 36.16 32.7407 36.12 32.8207 36.11C32.9807 36.03 33.1607 35.97 33.3307 35.91C34.0107 35.66 34.6507 35.44 34.6507 34.95C34.6407 34.92 34.6407 34.88 34.6207 34.84ZM33.1607 35.46C33.0407 35.5 32.9407 35.54 32.8207 35.58C32.7507 35.61 32.6807 35.63 32.6107 35.66C32.6007 35.66 32.6007 35.67 32.5807 35.67C32.5107 35.71 32.4407 35.74 32.3707 35.77C32.3607 35.77 32.3407 35.77 32.3407 35.78C32.2607 35.81 32.1807 35.83 32.1307 35.88C32.0907 35.88 32.0607 35.91 32.0407 35.92C31.6707 36.13 31.3307 36.12 31.2507 36C31.2007 35.95 31.2107 35.82 31.3407 35.61C31.4107 35.51 31.5107 35.37 31.6707 35.22L31.8407 35.05H31.8507C31.9007 35 31.9707 34.95 32.0207 34.91C32.0307 34.9 32.0607 34.88 32.0707 34.88C32.0807 34.85 32.1107 34.84 32.1207 34.84C32.1507 34.81 32.1907 34.79 32.2107 34.77C32.2407 34.76 32.2507 34.74 32.2807 34.73C32.3507 34.68 32.4207 34.64 32.4907 34.61C32.6607 34.52 32.8407 34.47 33.0007 34.44C33.0107 34.43 33.0307 34.43 33.0407 34.43C33.1307 34.42 33.2407 34.4 33.3307 34.4H33.4107C33.5107 34.41 33.6107 34.43 33.7007 34.45C33.7507 34.46 33.8007 34.49 33.8407 34.52C34.0107 34.6 34.1307 34.74 34.1707 34.93C34.2007 35.09 33.5507 35.33 33.1607 35.46Z" fill="#020035"/>
<path d="M35.1906 42.2765C36.6755 42.2312 37.8705 41.9081 37.8597 41.5548C37.8489 41.2015 36.6365 40.9518 35.1515 40.9971C33.6666 41.0424 32.4716 41.3656 32.4824 41.7189C32.4932 42.0721 33.7057 42.3218 35.1906 42.2765Z" fill="white"/>
<path d="M37.0908 61.5C37.0408 61.5 36.9808 61.5 36.9208 61.5C30.9208 61.44 29.3808 58.63 29.3108 58.51C29.2508 58.4 29.2908 58.26 29.4108 58.2C29.5208 58.14 29.6608 58.18 29.7208 58.3C29.7308 58.33 31.2208 60.98 36.9208 61.04C42.6408 61.09 44.6608 57.97 44.6808 57.93C44.7508 57.82 44.8908 57.79 45.0008 57.86C45.1108 57.93 45.1408 58.07 45.0808 58.18C44.9908 58.31 42.9508 61.5 37.0908 61.5Z" fill="#020035"/>
<path d="M30.4306 55.04C30.4306 55.04 30.9806 55.53 32.5806 55.89C34.4506 56.31 35.6406 56.11 35.6406 56.11C35.6406 56.11 34.8706 57.31 32.4106 57.59C30.2606 57.83 29.8906 57.16 29.8906 57.16L30.4306 55.04Z" fill="#020035"/>
<path d="M35.8406 55.98C35.7906 55.9 35.7006 55.86 35.6006 55.88C35.5906 55.88 34.4206 56.08 32.6306 55.67C31.1206 55.33 30.5906 54.87 30.5706 54.87C30.5306 54.83 30.4906 54.8 30.4306 54.8H30.4207C30.4107 54.8 30.3806 54.8 30.3706 54.81C30.3206 54.82 30.2706 54.88 30.2406 54.93C30.2306 54.94 30.2106 54.96 30.2106 54.98L29.6707 57.1C29.6607 57.15 29.6606 57.22 29.6806 57.27C29.6906 57.28 29.7206 57.32 29.7606 57.36C29.8106 57.41 29.8806 57.48 30.0006 57.53C30.2706 57.7 30.7506 57.86 31.5606 57.86C31.8106 57.86 32.1106 57.85 32.4406 57.81C34.9806 57.52 35.8106 56.28 35.8406 56.23C35.8906 56.15 35.8806 56.06 35.8406 55.98ZM30.1406 57.09L30.5706 55.41C30.9006 55.59 31.5006 55.88 32.5206 56.1C33.6206 56.35 34.4806 56.39 35.0306 56.37C34.6006 56.71 33.7706 57.18 32.3706 57.34C30.8606 57.52 30.3006 57.22 30.1406 57.09Z" fill="#020035"/>
<path d="M39.7387 34.73C39.6687 35.29 41.1688 35.39 42.0488 35.83C42.9288 36.27 43.8588 35.74 42.5488 34.64C41.2388 33.54 39.8487 33.89 39.7387 34.73Z" fill="#020035"/>
<path d="M43.3696 35.3C43.3596 35.25 43.3296 35.2 43.2896 35.13C43.2896 35.13 43.2896 35.12 43.2796 35.12C43.1896 34.96 43.0596 34.78 42.8296 34.6C42.7996 34.57 42.7796 34.55 42.7496 34.52C42.7396 34.49 42.7096 34.48 42.6996 34.47C42.6596 34.43 42.6096 34.4 42.5696 34.37C42.5596 34.36 42.5596 34.36 42.5396 34.34C42.4896 34.3 42.4196 34.26 42.3696 34.22H42.3596C42.3496 34.22 42.3496 34.21 42.3296 34.21C42.2496 34.16 42.1696 34.11 42.1096 34.08C41.6096 33.79 41.1396 33.71 40.7496 33.74H40.7396C40.5396 33.74 40.3896 33.79 40.2396 33.84L40.2296 33.85C40.1996 33.85 40.1796 33.86 40.1496 33.89C40.0596 33.92 39.9796 33.97 39.8996 34.05H39.8896C39.8096 34.1 39.7596 34.17 39.7096 34.25C39.6096 34.38 39.5396 34.54 39.5296 34.71C39.4496 35.26 40.1596 35.46 40.9096 35.68C41.0396 35.72 41.1796 35.76 41.3196 35.8C41.4096 35.83 41.4896 35.85 41.5696 35.89C41.5796 35.89 41.5796 35.89 41.5996 35.9C41.6796 35.91 41.7596 35.94 41.8196 35.98C41.8296 35.98 41.8296 35.98 41.8496 35.99C41.8896 36 41.9396 36.02 41.9796 36.04C42.0196 36.07 42.0596 36.08 42.0996 36.09C42.2996 36.18 42.5096 36.22 42.6896 36.22C42.9796 36.22 43.2396 36.12 43.3696 35.91C43.3796 35.88 43.4096 35.86 43.4196 35.82C43.4496 35.75 43.4596 35.68 43.4596 35.6V35.59C43.4396 35.5 43.4196 35.4 43.3696 35.3ZM42.9496 35.65C42.8696 35.77 42.5396 35.81 42.1496 35.61C42.1096 35.58 42.0696 35.57 42.0196 35.56C41.9396 35.52 41.8596 35.48 41.7696 35.46C41.7596 35.46 41.7596 35.45 41.7396 35.45C41.6696 35.42 41.5996 35.4 41.5196 35.38C41.5096 35.37 41.5096 35.37 41.4896 35.37C41.4096 35.34 41.3196 35.32 41.2396 35.29C41.1596 35.26 41.0796 35.25 40.9996 35.22C40.6096 35.1 39.9396 34.91 39.9696 34.75C39.9796 34.59 40.0896 34.45 40.2296 34.34C40.2796 34.31 40.3296 34.29 40.3996 34.26C40.4496 34.25 40.4996 34.22 40.5596 34.21C40.7796 34.16 41.0696 34.17 41.3796 34.26C41.4796 34.29 41.5896 34.31 41.6896 34.36C41.7696 34.4 41.8496 34.44 41.9296 34.48C41.9396 34.49 41.9596 34.51 41.9696 34.51C42.0196 34.55 42.0696 34.59 42.1296 34.61C42.1296 34.62 42.1396 34.62 42.1396 34.62C42.2096 34.66 42.2696 34.71 42.3396 34.76C42.3496 34.77 42.3796 34.79 42.3896 34.8C42.5196 34.9 42.6296 35.01 42.6996 35.1C42.8396 35.26 42.9096 35.4 42.9396 35.49C42.9796 35.57 42.9796 35.63 42.9496 35.65Z" fill="#020035"/>
<path d="M32.9756 38.3167C33.0364 38.3148 33.0829 38.2238 33.0795 38.1134C33.0762 38.003 33.0242 37.915 32.9634 37.9169C32.9027 37.9187 32.8562 38.0097 32.8596 38.1201C32.863 38.2305 32.9149 38.3185 32.9756 38.3167Z" fill="white"/>
<path d="M41.0167 38.0165C41.0774 38.0146 41.1239 37.9236 41.1206 37.8132C41.1172 37.7028 41.0652 37.6148 41.0045 37.6167C40.9438 37.6186 40.8973 37.7096 40.9006 37.82C40.904 37.9304 40.956 38.0184 41.0167 38.0165Z" fill="white"/>
<path d="M37.5307 69.6C34.2007 69.6 30.9207 68.74 28.0407 67.13C27.9707 67.09 27.8907 67.04 27.8007 66.99C27.7507 66.96 27.6407 66.93 27.5307 66.82C22.4507 63.82 18.9407 58.46 18.2107 52.53C18.1807 52.31 18.3407 52.12 18.5507 52.09C18.7807 52.06 18.9606 52.22 18.9906 52.43C19.6906 58.12 23.0606 63.26 28.0106 66.2C28.0406 66.21 28.1106 66.25 28.1406 66.27L28.2307 66.33C28.2907 66.37 28.3407 66.4 28.4107 66.44C31.1907 68 34.3407 68.82 37.5307 68.82C41.0307 68.82 44.4306 67.85 47.3806 66.01C47.4706 65.95 47.5106 65.92 47.5606 65.9C47.6406 65.85 47.6907 65.82 47.7307 65.78C52.7707 62.48 55.9206 56.96 56.1806 50.99C56.1906 50.77 56.3407 50.6 56.5907 50.61C56.8107 50.62 56.9807 50.8 56.9707 51.02C56.7007 57.24 53.4206 62.99 48.2006 66.4C48.1706 66.43 48.0906 66.48 48.0106 66.53C48.0006 66.54 47.9207 66.59 47.9107 66.59C47.8507 66.63 47.8107 66.66 47.7707 66.68C44.7207 68.59 41.1707 69.6 37.5307 69.6Z" fill="#020035"/>
<path d="M126.179 143.7C126.269 143.98 81.3691 143.7 81.3691 143.7L75.6191 109.37C75.6191 109.37 75.1591 109.2 74.3891 108.86C73.2891 108.36 71.5591 107.51 69.6491 106.31C66.7791 104.52 63.5091 101.92 61.3291 98.53C60.2291 96.83 59.4191 94.93 59.0591 92.82C57.7891 85.28 53.3891 76.16 51.1191 68.71C50.0691 65.27 49.4691 62.18 49.8491 59.75V59.71C49.8591 59.63 49.8791 59.57 49.8891 59.5C49.8991 59.42 49.9191 59.34 49.9391 59.26C50.6191 56.27 53.0391 55.08 55.9791 55.15C56.0591 55.14 56.1491 55.14 56.2291 55.15C56.3091 55.15 56.3991 55.15 56.4791 55.16H56.5691C58.0991 55.28 59.7491 55.7 61.3391 56.36C63.8191 57.39 66.1591 59.02 67.7291 60.93C68.4391 61.78 69.0691 62.57 69.6391 63.27C73.0391 67.49 74.3791 69.5 74.3791 69.5V41.63C74.3791 41.63 90.9291 56.03 98.2891 67.37C100.699 71.09 104.749 81.05 109.289 93.48C109.849 95.03 110.429 96.62 111.019 98.25C112.329 101.89 113.669 105.69 115.009 109.56L115.759 111.72C119.399 122.25 123.039 134.01 126.179 143.7Z" fill="white"/>
<path d="M81.3696 144.1C81.1796 144.1 81.0097 143.96 80.9797 143.77L75.2696 109.66C75.0596 109.58 74.6997 109.43 74.2297 109.22C73.0997 108.71 71.3596 107.85 69.4396 106.64C65.6996 104.3 62.8596 101.64 60.9996 98.74C59.7996 96.88 59.0196 94.91 58.6796 92.88C57.8896 88.18 55.8697 82.85 53.9097 77.69C52.7197 74.56 51.5996 71.61 50.7596 68.82C49.5396 64.8 49.1297 61.9 49.4797 59.69C49.4897 59.57 49.5096 59.5 49.5196 59.43C49.5396 59.34 49.5496 59.24 49.5896 59.14C50.2496 56.25 52.4996 54.66 56.0096 54.76C56.0596 54.74 56.1896 54.74 56.3196 54.77C56.3496 54.77 56.4596 54.77 56.5596 54.78C58.1896 54.9 59.8796 55.32 61.5096 56.01C64.1196 57.1 66.4997 58.81 68.0497 60.69C68.5197 61.26 68.9596 61.8 69.3796 62.31L69.9697 63.03C71.9797 65.53 73.2896 67.27 74.0096 68.27V41.63C74.0096 41.48 74.0996 41.34 74.2396 41.27C74.3796 41.2 74.5497 41.23 74.6597 41.33C74.8297 41.47 91.3396 55.9 98.6396 67.16C100.87 70.6 104.58 79.41 109.68 93.35L111.41 98.12C112.67 101.61 115.69 110.31 116.1 111.5C116.1 111.5 116.12 111.55 116.14 111.6C116.22 111.83 123.68 133.74 126.78 143.32C126.85 143.53 126.73 143.75 126.53 143.82C126.32 143.89 126.1 143.77 126.03 143.57C122.92 133.99 115.46 112.09 115.39 111.87C115.38 111.86 115.36 111.78 115.35 111.77C114.94 110.58 111.92 101.89 110.66 98.4L108.93 93.64C103.92 79.95 100.13 70.95 97.9697 67.61C91.5497 57.72 77.9197 45.32 74.7797 42.52V69.54C74.7797 69.71 74.6696 69.87 74.4996 69.92C74.3296 69.97 74.1496 69.9 74.0596 69.76C74.0496 69.74 72.6896 67.71 69.3396 63.56L68.7496 62.84C68.3396 62.33 67.8996 61.79 67.4296 61.22C65.9596 59.43 63.6796 57.8 61.1896 56.76C59.6296 56.11 58.0297 55.7 56.5497 55.58C56.5397 55.58 56.4396 55.58 56.4296 55.58C56.3696 55.57 56.2996 55.57 56.2396 55.57C56.1396 55.56 56.0896 55.56 56.0596 55.56C54.2096 55.5 51.1196 55.97 50.3396 59.37C50.3096 59.46 50.2997 59.52 50.2897 59.58L50.2496 59.78C49.9196 61.91 50.3196 64.7 51.5096 68.6C52.3496 71.36 53.4696 74.3 54.6496 77.42C56.6196 82.61 58.6596 87.98 59.4596 92.76C59.7796 94.68 60.5197 96.55 61.6697 98.32C63.4697 101.13 66.2197 103.7 69.8597 105.98C71.7497 107.17 73.4497 108.01 74.5497 108.51C75.2997 108.84 75.7496 109.01 75.7596 109.01C75.8896 109.06 75.9896 109.18 76.0096 109.31L81.7596 143.64C81.7996 143.85 81.6496 144.06 81.4396 144.09C81.4096 144.09 81.3896 144.1 81.3696 144.1Z" fill="#020035"/>
<path d="M80.3704 76.78C80.2704 76.78 80.1605 76.74 80.0805 76.66C79.9105 76.48 75.8105 72.16 74.0705 69.76C73.9405 69.58 73.9805 69.34 74.1605 69.21C74.3405 69.08 74.5805 69.12 74.7105 69.3C76.4205 71.66 80.6105 76.07 80.6505 76.12C80.8005 76.28 80.7905 76.53 80.6405 76.68C80.5605 76.74 80.4604 76.78 80.3704 76.78Z" fill="#020035"/>
<path d="M134.041 144.1H72.1907C71.9707 144.1 71.8008 143.92 71.8008 143.71C71.8008 143.5 71.9807 143.32 72.1907 143.32H134.041C134.261 143.32 134.431 143.5 134.431 143.71C134.431 143.92 134.261 144.1 134.041 144.1Z" fill="#020035"/>
</svg>
