<svg width="94" height="144" viewBox="0 0 94 144" fill="none" xmlns="http://www.w3.org/2000/svg">
<path d="M9.15936 142.79H84.1194C88.8394 142.79 92.6694 138.96 92.6694 134.24V9.17C92.6694 4.45 88.8394 0.620003 84.1194 0.620003H9.15936C4.43936 0.620003 0.609375 4.45 0.609375 9.17V134.24C0.609375 138.96 4.43936 142.79 9.15936 142.79Z" fill="#020035"/>
<path d="M84.12 143.4H9.15999C4.10999 143.4 0 139.29 0 134.24V9.17C0 4.12 4.10999 0.0100021 9.15999 0.0100021H84.12C89.17 0.0100021 93.28 4.12 93.28 9.17V134.24C93.28 139.29 89.17 143.4 84.12 143.4ZM9.15999 1.23C4.77999 1.23 1.22 4.79 1.22 9.17V134.24C1.22 138.62 4.77999 142.18 9.15999 142.18H84.12C88.5 142.18 92.06 138.62 92.06 134.24V9.17C92.06 4.79 88.5 1.23 84.12 1.23H9.15999Z" fill="#020035"/>
<path d="M12.51 138.37H80.77C84.09 138.37 86.78 135.68 86.78 132.36V11.04C86.78 7.72 84.09 5.03 80.77 5.03H12.51C9.18999 5.03 6.5 7.72 6.5 11.04V132.36C6.51 135.68 9.18999 138.37 12.51 138.37Z" fill="white"/>
<path d="M34.98 15.22H58.31C60 15.22 61.37 13.85 61.37 12.16C61.37 10.47 60 9.10001 58.31 9.10001H34.98C33.29 9.10001 31.92 10.47 31.92 12.16C31.91 13.85 33.29 15.22 34.98 15.22Z" fill="#020035"/>
<path d="M58.3105 15.84H34.9805C32.9505 15.84 31.3105 14.19 31.3105 12.16C31.3105 10.13 32.9605 8.49001 34.9805 8.49001H58.3105C60.3405 8.49001 61.9805 10.14 61.9805 12.16C61.9805 14.19 60.3305 15.84 58.3105 15.84ZM34.9805 9.71C33.6305 9.71 32.5305 10.81 32.5305 12.16C32.5305 13.51 33.6305 14.61 34.9805 14.61H58.3105C59.6605 14.61 60.7605 13.51 60.7605 12.16C60.7605 10.81 59.6605 9.71 58.3105 9.71H34.9805Z" fill="#020035"/>
<path d="M63.7993 49.56C63.7193 50.36 63.6693 51.16 63.5693 51.96C62.8793 57.63 60.9893 62.81 57.2593 67.23C56.9193 67.63 56.5293 67.99 56.1693 68.38C55.7793 68.79 55.3092 68.93 54.7492 68.93C44.9292 68.92 35.0992 68.92 25.2692 68.92C24.3392 68.92 23.4093 68.91 22.4793 68.92C21.8893 68.92 21.4493 68.68 21.2293 68.13C21.0093 67.59 21.1292 67.09 21.5492 66.68C24.9192 63.37 26.8193 59.29 27.8893 54.76C28.3193 52.96 28.5392 51.13 28.6292 49.29C28.6492 48.96 28.7693 48.84 29.0893 48.87C29.1993 48.88 29.3093 48.87 29.4193 48.87C40.6593 48.87 51.8993 48.87 63.1393 48.87C63.3593 48.87 63.5793 48.89 63.7993 48.9C63.7993 49.12 63.7993 49.34 63.7993 49.56Z" fill="#020035"/>
<path d="M63.7997 75.55C63.4897 76.18 62.9897 76.42 62.2897 76.42C51.5997 76.41 40.9197 76.41 30.2297 76.41C29.1697 76.41 28.7097 75.95 28.7097 74.89C28.7097 73.97 28.7097 73.06 28.7097 72.14C28.7097 71.26 28.6197 71.35 29.4797 71.35C37.8297 71.35 46.1897 71.34 54.5397 71.36C55.9097 71.36 57.0397 70.93 58.0097 69.95C60.4397 67.52 62.2197 64.66 63.5697 61.53C63.6297 61.39 63.6597 61.24 63.7897 61.14C63.7997 65.94 63.7997 70.75 63.7997 75.55Z" fill="#020035"/>
<path d="M63.799 46.4C63.619 46.41 63.439 46.43 63.259 46.43C51.969 46.43 40.669 46.43 29.379 46.43C28.709 46.43 28.709 46.43 28.709 45.75C28.709 44.76 28.709 43.78 28.709 42.79C28.709 41.86 29.199 41.37 30.109 41.37C31.979 41.37 33.859 41.36 35.729 41.38C36.089 41.38 36.239 41.29 36.209 40.91C36.179 40.64 36.199 40.36 36.209 40.08C36.239 39.38 36.779 38.87 37.489 38.87C38.189 38.87 38.729 39.39 38.759 40.09C38.769 40.41 38.769 40.73 38.759 41.05C38.749 41.28 38.839 41.38 39.079 41.37C40.929 41.37 42.769 41.36 44.619 41.37C44.869 41.37 44.969 41.27 44.959 41.02C44.949 40.7 44.949 40.38 44.959 40.06C44.989 39.38 45.529 38.87 46.209 38.87C46.919 38.86 47.479 39.36 47.509 40.06C47.529 40.38 47.519 40.7 47.509 41.02C47.499 41.26 47.579 41.38 47.839 41.38C49.709 41.37 51.589 41.37 53.459 41.38C53.719 41.38 53.789 41.26 53.789 41.02C53.779 40.72 53.779 40.41 53.789 40.1C53.809 39.4 54.349 38.88 55.049 38.87C55.769 38.86 56.319 39.38 56.339 40.11C56.349 40.39 56.359 40.67 56.339 40.94C56.319 41.26 56.429 41.38 56.769 41.37C58.319 41.36 59.879 41.36 61.429 41.36C61.719 41.36 62.009 41.38 62.299 41.36C63.009 41.3 63.509 41.59 63.809 42.23C63.799 43.62 63.799 45.01 63.799 46.4Z" fill="#020035"/>
<path d="M63.7993 49.56C63.7193 50.36 63.6693 51.16 63.5693 51.96C62.8793 57.63 60.9893 62.81 57.2593 67.23C56.9193 67.63 56.5293 67.99 56.1693 68.38C55.7793 68.79 55.3092 68.93 54.7492 68.93C44.9292 68.92 35.0992 68.92 25.2692 68.92C24.3392 68.92 23.4093 68.91 22.4793 68.92C21.8893 68.92 21.4493 68.68 21.2293 68.13C21.0093 67.59 21.1292 67.09 21.5492 66.68C24.9192 63.37 26.8193 59.29 27.8893 54.76C28.3193 52.96 28.5392 51.13 28.6292 49.29C28.6492 48.96 28.7693 48.84 29.0893 48.87C29.1993 48.88 29.3093 48.87 29.4193 48.87C40.6593 48.87 51.8993 48.87 63.1393 48.87C63.3593 48.87 63.5793 48.89 63.7993 48.9C63.7993 49.12 63.7993 49.34 63.7993 49.56Z" fill="#66D1F2"/>
<path d="M63.7997 75.55C63.4897 76.18 62.9897 76.42 62.2897 76.42C51.5997 76.41 40.9197 76.41 30.2297 76.41C29.1697 76.41 28.7097 75.95 28.7097 74.89C28.7097 73.97 28.7097 73.06 28.7097 72.14C28.7097 71.26 28.6197 71.35 29.4797 71.35C37.8297 71.35 46.1897 71.34 54.5397 71.36C55.9097 71.36 57.0397 70.93 58.0097 69.95C60.4397 67.52 62.2197 64.66 63.5697 61.53C63.6297 61.39 63.6597 61.24 63.7897 61.14C63.7997 65.94 63.7997 70.75 63.7997 75.55Z" fill="#66D1F2"/>
<path d="M63.799 46.4C63.619 46.41 63.439 46.43 63.259 46.43C51.969 46.43 40.669 46.43 29.379 46.43C28.709 46.43 28.709 46.43 28.709 45.75C28.709 44.76 28.709 43.78 28.709 42.79C28.709 41.86 29.199 41.37 30.109 41.37C31.979 41.37 33.859 41.36 35.729 41.38C36.089 41.38 36.239 41.29 36.209 40.91C36.179 40.64 36.199 40.36 36.209 40.08C36.239 39.38 36.779 38.87 37.489 38.87C38.189 38.87 38.729 39.39 38.759 40.09C38.769 40.41 38.769 40.73 38.759 41.05C38.749 41.28 38.839 41.38 39.079 41.37C40.929 41.37 42.769 41.36 44.619 41.37C44.869 41.37 44.969 41.27 44.959 41.02C44.949 40.7 44.949 40.38 44.959 40.06C44.989 39.38 45.529 38.87 46.209 38.87C46.919 38.86 47.479 39.36 47.509 40.06C47.529 40.38 47.519 40.7 47.509 41.02C47.499 41.26 47.579 41.38 47.839 41.38C49.709 41.37 51.589 41.37 53.459 41.38C53.719 41.38 53.789 41.26 53.789 41.02C53.779 40.72 53.779 40.41 53.789 40.1C53.809 39.4 54.349 38.88 55.049 38.87C55.769 38.86 56.319 39.38 56.339 40.11C56.349 40.39 56.359 40.67 56.339 40.94C56.319 41.26 56.429 41.38 56.769 41.37C58.319 41.36 59.879 41.36 61.429 41.36C61.719 41.36 62.009 41.38 62.299 41.36C63.009 41.3 63.509 41.59 63.809 42.23C63.799 43.62 63.799 45.01 63.799 46.4Z" fill="#66D1F2"/>
<path d="M54.7491 69.33C46.5591 69.32 38.3691 69.32 30.1891 69.32H24.4391C23.7891 69.32 23.1391 69.32 22.4891 69.32C22.4791 69.32 22.4791 69.32 22.4691 69.32C21.7091 69.32 21.1291 68.95 20.8591 68.28C20.5791 67.59 20.7191 66.92 21.2691 66.39C24.2991 63.41 26.3391 59.58 27.4991 54.67C27.8991 52.99 28.1291 51.23 28.2291 49.27C28.2391 49.16 28.2491 48.84 28.4891 48.63C28.6491 48.49 28.8691 48.45 29.1291 48.46C29.1791 48.46 29.2391 48.46 29.2991 48.46H29.4191H63.1391C63.2991 48.46 63.4491 48.47 63.6091 48.48L63.8191 48.49C64.0391 48.5 64.2091 48.68 64.2091 48.9V49.57C64.2091 49.58 64.2091 49.6 64.2091 49.61L64.1391 50.38C64.0891 50.92 64.0391 51.47 63.9791 52.01C63.2191 58.23 61.1291 63.29 57.5691 67.49C57.3391 67.77 57.0791 68.03 56.8291 68.29L56.4691 68.66C56.0291 69.12 55.4791 69.33 54.7491 69.33ZM35.0891 68.51C41.6391 68.51 48.1991 68.51 54.7491 68.52C55.2591 68.52 55.5991 68.39 55.8691 68.1L56.2391 67.72C56.4791 67.47 56.7191 67.23 56.9391 66.97C60.3891 62.89 62.4191 57.97 63.1591 51.91C63.2291 51.38 63.2691 50.84 63.3191 50.3L63.3891 49.28C63.2991 49.28 63.2191 49.27 63.1291 49.27H29.4091C29.2191 49.27 29.1291 49.28 29.0391 49.27H29.0291C29.0291 49.28 29.0291 49.29 29.0291 49.3C28.9291 51.31 28.6891 53.12 28.2791 54.85C27.0791 59.91 24.9691 63.88 21.8291 66.97C21.5191 67.27 21.4491 67.59 21.6091 67.97C21.7591 68.34 22.0291 68.51 22.4691 68.51H22.4791C23.1291 68.51 23.7791 68.51 24.4391 68.51H30.1891C31.8191 68.51 33.4491 68.51 35.0891 68.51Z" fill="#020035"/>
<path d="M62.2888 76.83C53.8888 76.82 45.4988 76.82 37.0988 76.82H30.2288C28.9488 76.82 28.2988 76.17 28.2988 74.9V74.44C28.2988 73.68 28.2988 72.91 28.2988 72.15V71.92C28.2988 71.57 28.2988 71.33 28.4788 71.14C28.6688 70.95 28.9088 70.96 29.2588 70.95H29.4688H33.8888C40.7688 70.95 47.6488 70.95 54.5288 70.96H54.5388C55.8288 70.96 56.8288 70.55 57.7088 69.67C59.9488 67.42 61.7388 64.71 63.1888 61.37C63.2688 61.16 63.3488 60.96 63.5388 60.81C63.6588 60.72 63.8288 60.7 63.9688 60.77C64.1088 60.84 64.1888 60.98 64.1888 61.13V75.54C64.1888 75.6 64.1788 75.66 64.1488 75.72C63.8088 76.47 63.1888 76.83 62.2888 76.83ZM43.9788 76C50.0788 76 56.1788 76 62.2788 76.01C62.2788 76.01 62.2788 76.01 62.2888 76.01C62.8388 76.01 63.1688 75.85 63.3888 75.45V62.92C62.0088 65.8 60.3288 68.21 58.2988 70.24C57.2788 71.27 56.0488 71.77 54.5588 71.77C54.5588 71.77 54.5488 71.77 54.5388 71.77C47.6588 71.76 40.7788 71.76 33.8988 71.76H29.4788H29.2588C29.2088 71.76 29.1588 71.76 29.1088 71.76C29.1088 71.81 29.1088 71.86 29.1088 71.9V72.14C29.1088 72.9 29.1088 73.66 29.1088 74.43V74.89C29.1088 75.72 29.3888 76 30.2188 76H37.0888C39.3988 76 41.6888 76 43.9788 76Z" fill="#020035"/>
<path d="M29.3788 46.84C28.4788 46.84 28.2988 46.66 28.2988 45.75V42.79C28.2988 41.63 28.9588 40.97 30.1088 40.97H30.8588C32.4888 40.97 34.1088 40.97 35.7388 40.98C35.7688 40.98 35.7888 40.98 35.7988 40.98C35.7788 40.65 35.7888 40.39 35.7988 40.14C35.8388 39.17 36.5588 38.48 37.4888 38.48C38.4088 38.48 39.1288 39.17 39.1688 40.09C39.1788 40.39 39.1788 40.68 39.1688 40.98C40.9788 40.98 42.7588 40.98 44.5388 40.98C44.5288 40.65 44.5388 40.36 44.5488 40.07C44.5888 39.18 45.2988 38.49 46.1988 38.48C46.2088 38.48 46.2188 38.48 46.2288 38.48C47.1488 38.48 47.8688 39.15 47.9188 40.05C47.9288 40.36 47.9288 40.66 47.9188 40.97C49.7588 40.97 51.5688 40.97 53.3788 40.97C53.3688 40.65 53.3788 40.37 53.3788 40.09C53.4088 39.18 54.1188 38.48 55.0388 38.47H55.0488C55.9988 38.47 56.7088 39.15 56.7388 40.1C56.7488 40.44 56.7588 40.71 56.7388 40.97H56.7488C57.8888 40.96 59.0388 40.96 60.1888 40.96H61.6988C61.8788 40.97 62.0688 40.97 62.2588 40.96C63.1488 40.88 63.7888 41.27 64.1688 42.06C64.1988 42.11 64.2088 42.17 64.2088 42.24V46.4C64.2088 46.62 64.0388 46.79 63.8188 46.81L63.6588 46.82C63.5288 46.83 63.3888 46.84 63.2588 46.84H29.3788ZM29.1188 46.02C29.1888 46.02 29.2888 46.02 29.3788 46.02H63.2588C63.2988 46.02 63.3488 46.02 63.3888 46.02V42.34C63.1588 41.92 62.8188 41.75 62.3188 41.78C62.1088 41.8 61.8988 41.79 61.6788 41.79H60.1788C59.0388 41.79 57.8888 41.79 56.7488 41.8C56.5788 41.81 56.2888 41.78 56.0988 41.57C55.8888 41.34 55.9088 41.03 55.9188 40.93C55.9388 40.69 55.9288 40.45 55.9188 40.22C55.8988 39.65 55.5388 39.3 55.0388 39.3C55.0388 39.3 55.0388 39.3 55.0288 39.3C54.5388 39.3 54.1888 39.65 54.1688 40.13C54.1588 40.43 54.1588 40.73 54.1688 41.02C54.1688 41.11 54.1788 41.39 53.9788 41.6C53.8488 41.74 53.6588 41.8 53.4288 41.8C51.5488 41.79 49.6788 41.79 47.8088 41.8C47.5788 41.8 47.3888 41.73 47.2588 41.6C47.0588 41.4 47.0688 41.12 47.0688 41.03C47.0788 40.72 47.0788 40.41 47.0688 40.1C47.0488 39.64 46.6788 39.3 46.1988 39.3H46.1888C45.7188 39.3 45.3588 39.64 45.3388 40.11C45.3288 40.42 45.3288 40.73 45.3388 41.03C45.3388 41.12 45.3488 41.39 45.1488 41.6C45.0188 41.74 44.8288 41.8 44.5888 41.8C42.7388 41.8 40.8988 41.8 39.0588 41.8C38.8288 41.8 38.6488 41.73 38.5188 41.6C38.3888 41.47 38.3288 41.28 38.3388 41.06C38.3488 40.75 38.3488 40.44 38.3388 40.13C38.3188 39.65 37.9688 39.31 37.4788 39.31C36.9888 39.31 36.6288 39.65 36.6088 40.12C36.5988 40.42 36.5888 40.66 36.6088 40.9C36.6188 41.01 36.6488 41.33 36.4288 41.57C36.2288 41.79 35.8988 41.8 35.7188 41.81C34.0988 41.8 32.4788 41.8 30.8488 41.8H30.0988C29.4088 41.8 29.1088 42.11 29.0988 42.81V45.76C29.1188 45.84 29.1188 45.94 29.1188 46.02Z" fill="#020035"/>
<path d="M46.6396 118.44C53.1511 118.44 58.4296 113.161 58.4296 106.65C58.4296 100.139 53.1511 94.86 46.6396 94.86C40.1282 94.86 34.8496 100.139 34.8496 106.65C34.8496 113.161 40.1282 118.44 46.6396 118.44Z" fill="#FBAB3E"/>
<path d="M46.6398 118.96C39.8598 118.96 34.3398 113.44 34.3398 106.66C34.3398 99.88 39.8598 94.36 46.6398 94.36C53.4198 94.36 58.9398 99.88 58.9398 106.66C58.9398 113.44 53.4298 118.96 46.6398 118.96ZM46.6398 95.38C40.4198 95.38 35.3698 100.44 35.3698 106.65C35.3698 112.86 40.4298 117.92 46.6398 117.92C52.8498 117.92 57.9098 112.86 57.9098 106.65C57.9098 100.44 52.8598 95.38 46.6398 95.38Z" fill="#020035"/>
<path d="M44.4902 110.91L41.2802 108.05C41.0702 107.86 41.0502 107.54 41.2402 107.33C41.4302 107.12 41.7602 107.1 41.9602 107.29L44.4502 109.51L51.2902 102.74C51.4902 102.54 51.8202 102.54 52.0202 102.74C52.2202 102.94 52.2202 103.27 52.0202 103.47L44.4902 110.91Z" fill="#020035"/>
</svg>
